<svg version="1.1" xmlns="http://www.w3.org/2000/svg" viewBox="0 0 636.5016964441697 650.0986925605516" width="200.5016964441697" height="200.0986925605516" filter="invert(93%) hue-rotate(180deg)">
  <!-- svg-source:excalidraw -->
  
  <defs>
    <style class="style-fonts">
      @font-face {
        font-family: "Virgil";
        src: url("https://excalidraw.com/Virgil.woff2");
      }
      @font-face {
        font-family: "Cascadia";
        src: url("https://excalidraw.com/Cascadia.woff2");
      }
    </style>
    
  </defs>
  <g stroke-linecap="round" transform="translate(178.93709876735716 197.4387444324541) rotate(0 148.66552900840003 54.76624577433546)"><path d="M-1.18 0.45 C107.42 0.09, 210.74 0.16, 298.39 1 M296.27 1.33 C295.51 45, 294.72 86.04, 295.34 107.85 M298.4 110.54 C190.45 107.07, 81.44 109.44, 1.36 109.62 M1.83 108.26 C-0.36 82.22, -0.11 52.48, -0.61 1.16" stroke="#000000" stroke-width="4.5" fill="none" stroke-dasharray="8 12"></path></g><g stroke-linecap="round" transform="translate(178.93709876735716 307.3388175563714) rotate(0 148.66552900840003 54.766245774335516)"><path d="M1.34 0.88 C98.59 0.28, 201.08 0.33, 298.74 -0.93 M296.2 1.65 C294.83 43.03, 294.76 85.68, 298.6 108.18 M298.44 108.35 C225.59 112.22, 155 111.11, -0.65 109.27 M-0.55 110.22 C-1.31 69.17, -1.61 32.06, 0.28 -0.6" stroke="#000000" stroke-width="4.5" fill="none" stroke-dasharray="8 12"></path></g><g stroke-linecap="round" transform="translate(178.93709876735716 418.15282060234335) rotate(0 148.66552900840003 54.766245774335516)"><path d="M-1.42 0.95 C99.35 -0.31, 197.98 -2.25, 298.79 -0.78 M295.41 -0.65 C294.73 38.45, 297.98 78.91, 296.16 110.98 M297.43 110.72 C189.25 107.86, 77.81 107.51, 0.87 110.88 M-0.31 108.49 C-0.31 84.78, 0.58 57.11, 0.22 -0.99" stroke="#000000" stroke-width="4.5" fill="none" stroke-dasharray="8 12"></path></g><g stroke-linecap="round" transform="translate(178.93709876735716 530.5662010118806) rotate(0 148.66552900840003 54.766245774335516)"><path d="M1.06 1 C108.41 -2.35, 215.45 -2.2, 298.31 -0.83 M295.34 -1.68 C297.54 40.55, 295.11 85.25, 298.69 111.04 M298.69 109.62 C231.39 111.04, 167.62 112.65, -0.94 109.13 M-0.61 110.7 C0.44 72.29, 0.39 35.24, 0.5 -0.72" stroke="#000000" stroke-width="4.5" fill="none" stroke-dasharray="8 12"></path></g><g stroke-linecap="round"><g transform="translate(214.39013422215737 176.06683259624435) rotate(0 -102.19506711107869 -62.836100244024294)"><path d="M0 0 C-8.52 -14.96, -17.03 -68.82, -51.1 -89.77 C-85.16 -110.71, -178.84 -119.69, -204.39 -125.67" stroke="#1e1e1e" stroke-width="1.5" fill="none" stroke-dasharray="8 9"></path></g><g transform="translate(214.39013422215737 176.06683259624435) rotate(0 -102.19506711107869 -62.836100244024294)"><path d="M-174.88 -131.07 C-183.68 -129.46, -192.48 -127.85, -204.39 -125.67" stroke="#1e1e1e" stroke-width="1.5" fill="none"></path></g><g transform="translate(214.39013422215737 176.06683259624435) rotate(0 -102.19506711107869 -62.836100244024294)"><path d="M-178.31 -110.84 C-186.09 -115.26, -193.86 -119.68, -204.39 -125.67" stroke="#1e1e1e" stroke-width="1.5" fill="none"></path></g></g><mask></mask><g stroke-linecap="round"><g transform="translate(421.8030515327031 180.81296351427568) rotate(179.02528064619025 102.9697759216894 -72.07040362181368)"><path d="M0 0 C23.8 -6.7, 108.47 -16.19, 142.79 -40.22 C177.12 -64.24, 195.42 -126.82, 205.94 -144.14" stroke="#1e1e1e" stroke-width="1.5" fill="none" stroke-dasharray="8 9"></path></g><g transform="translate(421.8030515327031 180.81296351427568) rotate(179.02528064619025 102.9697759216894 -72.07040362181368)"><path d="M203.44 -114.25 C204.1 -122.16, 204.76 -130.07, 205.94 -144.14" stroke="#1e1e1e" stroke-width="1.5" fill="none"></path></g><g transform="translate(421.8030515327031 180.81296351427568) rotate(179.02528064619025 102.9697759216894 -72.07040362181368)"><path d="M184.81 -122.85 C190.4 -128.48, 196 -134.12, 205.94 -144.14" stroke="#1e1e1e" stroke-width="1.5" fill="none"></path></g></g><mask></mask><g transform="translate(97.16550150577939 24.155355984480252) rotate(0 36.089988708496094 22.5)"><text x="36.089988708496094" y="0" font-family="Virgil, Segoe UI Emoji" font-size="36px" fill="#1e1e1e" text-anchor="middle" style="white-space: pre;" direction="ltr" dominant-baseline="text-before-edge">OUt</text></g><g transform="translate(447.51853940968056 10) rotate(0 18.21599578857422 22.5)"><text x="18.21599578857422" y="0" font-family="Virgil, Segoe UI Emoji" font-size="36px" fill="#1e1e1e" text-anchor="middle" style="white-space: pre;" direction="ltr" dominant-baseline="text-before-edge">In</text></g></svg>