<svg version="1.1" xmlns="http://www.w3.org/2000/svg" viewBox="0 0 1057.883782268172 435.255503573935" width="1057.883782268172" height="435.255503573935" filter="invert(93%) hue-rotate(180deg)">
  <!-- svg-source:excalidraw -->
  
  <defs>
    <style class="style-fonts">
      @font-face {
        font-family: "Virgil";
        src: url("https://excalidraw.com/Virgil.woff2");
      }
      @font-face {
        font-family: "Cascadia";
        src: url("https://excalidraw.com/Cascadia.woff2");
      }
    </style>
    
  </defs>
  <g stroke-linecap="round" transform="translate(552.7853817680007 175.4417443904141) rotate(89.74724810771652 148.66552900840003 54.766245774335516)"><path d="M-1.18 0.45 C107.42 0.09, 210.74 0.16, 298.39 1 M296.27 1.33 C295.51 45, 294.72 86.04, 295.34 107.85 M298.4 110.54 C190.45 107.07, 81.44 109.44, 1.36 109.62 M1.83 108.26 C-0.36 82.22, -0.11 52.48, -0.61 1.16" stroke="#000000" stroke-width="4.5" fill="none" stroke-dasharray="8 12"></path></g><g stroke-linecap="round" transform="translate(442.88637797186 175.92655080353427) rotate(89.74724810771652 148.66552900840003 54.766245774335516)"><path d="M1.34 0.88 C98.59 0.28, 201.08 0.33, 298.74 -0.93 M296.2 1.65 C294.83 43.03, 294.76 85.68, 298.6 108.18 M298.44 108.35 C225.59 112.22, 155 111.11, -0.65 109.27 M-0.55 110.22 C-1.31 69.17, -1.61 32.06, 0.28 -0.6" stroke="#000000" stroke-width="4.5" fill="none" stroke-dasharray="8 12"></path></g><g stroke-linecap="round" transform="translate(332.07345314620267 176.41538887081845) rotate(89.74724810771652 148.66552900840003 54.766245774335516)"><path d="M-1.42 0.95 C99.35 -0.31, 197.98 -2.25, 298.79 -0.78 M295.41 -0.65 C294.73 38.45, 297.98 78.91, 296.16 110.98 M297.43 110.72 C189.25 107.86, 77.81 107.51, 0.87 110.88 M-0.31 108.49 C-0.31 84.78, 0.58 57.11, 0.22 -0.99" stroke="#000000" stroke-width="4.5" fill="none" stroke-dasharray="8 12"></path></g><g stroke-linecap="round" transform="translate(219.66116651892327 176.91128233288748) rotate(89.74724810771652 148.66552900840003 54.766245774335516)"><path d="M1.06 1 C108.41 -2.35, 215.45 -2.2, 298.31 -0.83 M295.34 -1.68 C297.54 40.55, 295.11 85.25, 298.69 111.04 M298.69 109.62 C231.39 111.04, 167.62 112.65, -0.94 109.13 M-0.61 110.7 C0.44 72.29, 0.39 35.24, 0.5 -0.72" stroke="#000000" stroke-width="4.5" fill="none" stroke-dasharray="8 12"></path></g><g stroke-linecap="round"><g transform="translate(1061.553307369006 108.90205479986071) rotate(339.2814059641794 -136.36330916021154 13.802099450223807)"><path d="M0 0 C-27.15 7.87, -117.45 50.49, -162.9 47.2 C-208.36 43.9, -254.42 -8.61, -272.73 -19.78" stroke="#1e1e1e" stroke-width="1.5" fill="none" stroke-dasharray="8 9"></path></g><g transform="translate(1061.553307369006 108.90205479986071) rotate(339.2814059641794 -136.36330916021154 13.802099450223807)"><path d="M-244.36 -10.03 C-252.81 -12.93, -261.27 -15.84, -272.73 -19.78" stroke="#1e1e1e" stroke-width="1.5" fill="none"></path></g><g transform="translate(1061.553307369006 108.90205479986071) rotate(339.2814059641794 -136.36330916021154 13.802099450223807)"><path d="M-257.26 5.93 C-261.87 -1.73, -266.48 -9.4, -272.73 -19.78" stroke="#1e1e1e" stroke-width="1.5" fill="none"></path></g></g><mask></mask><g stroke-linecap="round"><g transform="translate(67.3736381925865 145.35507710209833) rotate(425.2216889056519 102.9697759216894 -72.07040362181368)"><path d="M0 0 C23.8 -6.7, 108.47 -16.19, 142.79 -40.22 C177.12 -64.24, 195.42 -126.82, 205.94 -144.14" stroke="#1e1e1e" stroke-width="1.5" fill="none" stroke-dasharray="8 9"></path></g><g transform="translate(67.3736381925865 145.35507710209833) rotate(425.2216889056519 102.9697759216894 -72.07040362181368)"><path d="M203.44 -114.25 C204.1 -122.16, 204.76 -130.07, 205.94 -144.14" stroke="#1e1e1e" stroke-width="1.5" fill="none"></path></g><g transform="translate(67.3736381925865 145.35507710209833) rotate(425.2216889056519 102.9697759216894 -72.07040362181368)"><path d="M184.81 -122.85 C190.4 -128.48, 196 -134.12, 205.94 -144.14" stroke="#1e1e1e" stroke-width="1.5" fill="none"></path></g></g><mask></mask><g transform="translate(785.674957390167 374.96378772411424) rotate(8.86283259959762 36.089988708496094 22.5)"><text x="36.089988708496094" y="0" font-family="Virgil, Segoe UI Emoji" font-size="36px" fill="#1e1e1e" text-anchor="middle" style="white-space: pre;" direction="ltr" dominant-baseline="text-before-edge">OUt</text></g><g transform="translate(168.34409532923036 156.28773688131662) rotate(358.66348551864576 18.21599578857422 22.5)"><text x="18.21599578857422" y="0" font-family="Virgil, Segoe UI Emoji" font-size="36px" fill="#1e1e1e" text-anchor="middle" style="white-space: pre;" direction="ltr" dominant-baseline="text-before-edge">In</text></g><g stroke-linecap="round"><g transform="translate(282.55756011521004 379.5289994797962) rotate(340.2617767573677 -132.16921721901366 -47.330670627864606)"><path d="M0 0 C-11.93 -12.21, -27.51 -57.51, -71.56 -73.28 C-115.62 -89.06, -232.21 -91.1, -264.34 -94.66" stroke="#1e1e1e" stroke-width="1.5" fill="none" stroke-dasharray="8 9"></path></g><g transform="translate(282.55756011521004 379.5289994797962) rotate(340.2617767573677 -132.16921721901366 -47.330670627864606)"><path d="M-235.52 -103 C-245.3 -100.17, -255.08 -97.34, -264.34 -94.66" stroke="#1e1e1e" stroke-width="1.5" fill="none"></path></g><g transform="translate(282.55756011521004 379.5289994797962) rotate(340.2617767573677 -132.16921721901366 -47.330670627864606)"><path d="M-236.9 -82.52 C-246.22 -86.64, -255.53 -90.76, -264.34 -94.66" stroke="#1e1e1e" stroke-width="1.5" fill="none"></path></g></g><mask></mask><g transform="translate(147.62414011495838 340.1613466130033) rotate(5.080245714572794 36.089988708496094 22.5)"><text x="36.089988708496094" y="0" font-family="Virgil, Segoe UI Emoji" font-size="36px" fill="#1e1e1e" text-anchor="middle" style="white-space: pre;" direction="ltr" dominant-baseline="text-before-edge">OUt</text></g><g stroke-linecap="round"><g transform="translate(833.6049660527228 478.77740819475514) rotate(425.2216889056519 76.03773377095183 -109.64059476636726)"><path d="M0 0 C1.2 -18.15, -19.23 -72.35, 7.18 -108.9 C33.6 -145.45, 133.27 -200.88, 158.49 -219.28" stroke="#1e1e1e" stroke-width="1.5" fill="none" stroke-dasharray="8 9"></path></g><g transform="translate(833.6049660527228 478.77740819475514) rotate(425.2216889056519 76.03773377095183 -109.64059476636726)"><path d="M140.37 -195.37 C145.31 -201.89, 150.25 -208.41, 158.49 -219.28" stroke="#1e1e1e" stroke-width="1.5" fill="none"></path></g><g transform="translate(833.6049660527228 478.77740819475514) rotate(425.2216889056519 76.03773377095183 -109.64059476636726)"><path d="M129.24 -212.62 C137.22 -214.43, 145.19 -216.25, 158.49 -219.28" stroke="#1e1e1e" stroke-width="1.5" fill="none"></path></g></g><mask></mask><g transform="translate(871.0093560699574 178.8483257112183) rotate(358.66348551864576 18.21599578857422 22.5)"><text x="18.21599578857422" y="0" font-family="Virgil, Segoe UI Emoji" font-size="36px" fill="#1e1e1e" text-anchor="middle" style="white-space: pre;" direction="ltr" dominant-baseline="text-before-edge">In</text></g></svg>