<svg version="1.1" xmlns="http://www.w3.org/2000/svg" viewBox="0 0 582.1191661206959 354.31298160642024" width="582.1191661206959" height="354.31298160642024" filter="invert(93%) hue-rotate(180deg)">
  <!-- svg-source:excalidraw -->
  
  <defs>
    <style class="style-fonts">
      @font-face {
        font-family: "Virgil";
        src: url("https://excalidraw.com/Virgil.woff2");
      }
      @font-face {
        font-family: "Cascadia";
        src: url("https://excalidraw.com/Cascadia.woff2");
      }
    </style>
    
  </defs>
  <g stroke-linecap="round" transform="translate(415.3174941914084 10) rotate(0 78.40083596464376 167.15649080321012)"><path d="M32 0 M32 0 C54.1 -0.16, 72.99 1.02, 124.8 0 M32 0 C63.96 -1.19, 96.74 1, 124.8 0 M124.8 0 C147.21 -2.49, 155.48 14.14, 156.8 32 M124.8 0 C144.73 -1.41, 156.28 6.34, 156.8 32 M156.8 32 C154.09 129.25, 153.36 223.76, 156.8 302.31 M156.8 32 C157.8 121.72, 157.61 208.57, 156.8 302.31 M156.8 302.31 C153.2 326.14, 142.52 333.64, 124.8 334.31 M156.8 302.31 C156.68 323.22, 148.24 332.44, 124.8 334.31 M124.8 334.31 C99.55 337.62, 69.82 331.11, 32 334.31 M124.8 334.31 C96.48 331.95, 63.72 332.08, 32 334.31 M32 334.31 C13.87 332.26, -1.09 324.85, 0 302.31 M32 334.31 C11.9 334.07, -4.49 319.07, 0 302.31 M0 302.31 C5 233.08, 2.21 168.18, 0 32 M0 302.31 C-2 195.62, -3.68 89.15, 0 32 M0 32 C3.18 10.01, 10.9 0.15, 32 0 M0 32 C-1.33 14.8, 14.88 -3.88, 32 0" stroke="#1e1e1e" stroke-width="2" fill="none"></path></g><g transform="translate(438.1883542649389 154.65649080321015) rotate(0 55.52997589111328 22.5)"><text x="55.52997589111328" y="0" font-family="Virgil, Segoe UI Emoji" font-size="36px" fill="#1e1e1e" text-anchor="middle" style="white-space: pre;" direction="ltr" dominant-baseline="text-before-edge">Server</text></g><g stroke-linecap="round" transform="translate(10 28.737319958184173) rotate(0 44.870906866698476 27.5)"><path d="M13.75 0 M13.75 0 C31.09 -1.22, 40.93 2.03, 75.99 0 M13.75 0 C32.11 0.26, 53.02 2.05, 75.99 0 M75.99 0 C87.7 -1.34, 88.72 7.46, 89.74 13.75 M75.99 0 C89.62 3.26, 85.79 7.52, 89.74 13.75 M89.74 13.75 C92.68 22.39, 89.74 32.49, 89.74 41.25 M89.74 13.75 C88.55 20.85, 89.68 28.21, 89.74 41.25 M89.74 41.25 C91.59 48.28, 81.36 51.66, 75.99 55 M89.74 41.25 C88.59 54.47, 86.24 57.51, 75.99 55 M75.99 55 C55.85 51.68, 31.75 55.98, 13.75 55 M75.99 55 C58.36 57.33, 44.63 55.75, 13.75 55 M13.75 55 C1.01 57.32, 1.21 52.56, 0 41.25 M13.75 55 C6.71 51.83, 1.97 52.55, 0 41.25 M0 41.25 C-2.87 31.65, -1.24 26.69, 0 13.75 M0 41.25 C-0.39 30.47, -0.49 21.97, 0 13.75 M0 13.75 C0.39 1.34, 3.5 -0.67, 13.75 0 M0 13.75 C-2.36 1.77, 3.11 -1.24, 13.75 0" stroke="#1e1e1e" stroke-width="2" fill="none"></path></g><g transform="translate(31.380916632323476 33.73731995818417) rotate(0 23.489990234375 22.5)"><text x="23.489990234375" y="0" font-family="Virgil, Segoe UI Emoji" font-size="36px" fill="#1e1e1e" text-anchor="middle" style="white-space: pre;" direction="ltr" dominant-baseline="text-before-edge">PC</text></g><g stroke-linecap="round" transform="translate(10 146.2049346713032) rotate(0 44.870906866698476 27.5)"><path d="M13.75 0 M13.75 0 C29.98 -0.44, 50.84 2.45, 75.99 0 M13.75 0 C26.96 -0.38, 42.44 0.66, 75.99 0 M75.99 0 C81.91 -1.09, 89.07 2.53, 89.74 13.75 M75.99 0 C82.35 -1.47, 88.5 7.87, 89.74 13.75 M89.74 13.75 C90.86 28.56, 87.53 39.05, 89.74 41.25 M89.74 13.75 C88.82 23.99, 89.56 31.65, 89.74 41.25 M89.74 41.25 C91.69 51.2, 86.21 53.56, 75.99 55 M89.74 41.25 C89.29 51.35, 86.42 50.45, 75.99 55 M75.99 55 C53.57 56.33, 34.88 52.09, 13.75 55 M75.99 55 C65.16 52.83, 51.11 52.41, 13.75 55 M13.75 55 C3.63 51.55, 1.27 50.91, 0 41.25 M13.75 55 C5.05 56.85, -1.52 51.03, 0 41.25 M0 41.25 C-2.79 30.3, 1.12 23.98, 0 13.75 M0 41.25 C-0.53 33.68, -0.08 28.83, 0 13.75 M0 13.75 C-2.21 6.56, 7.87 1.82, 13.75 0 M0 13.75 C3.52 8.32, 5.55 -4.27, 13.75 0" stroke="#1e1e1e" stroke-width="2" fill="none"></path></g><g transform="translate(31.380916632323476 151.2049346713032) rotate(0 23.489990234375 22.5)"><text x="23.489990234375" y="0" font-family="Virgil, Segoe UI Emoji" font-size="36px" fill="#1e1e1e" text-anchor="middle" style="white-space: pre;" direction="ltr" dominant-baseline="text-before-edge">PC</text></g><g stroke-linecap="round" transform="translate(10 278.3521827952214) rotate(0 44.870906866698476 27.5)"><path d="M13.75 0 M13.75 0 C33.28 -2.67, 54.1 -1.12, 75.99 0 M13.75 0 C32.7 -0.69, 51.1 -0.3, 75.99 0 M75.99 0 C84.08 2.85, 93.64 4.2, 89.74 13.75 M75.99 0 C83.62 1.35, 94.2 2.1, 89.74 13.75 M89.74 13.75 C89.94 22.19, 92.07 34.28, 89.74 41.25 M89.74 13.75 C90.53 20.68, 89.81 29.46, 89.74 41.25 M89.74 41.25 C90.84 46.46, 87.38 51.16, 75.99 55 M89.74 41.25 C91.64 50.08, 86.09 58.6, 75.99 55 M75.99 55 C59.05 57.74, 47.2 54.63, 13.75 55 M75.99 55 C62.54 54.17, 48.02 54.73, 13.75 55 M13.75 55 C3.26 55.53, -0.22 51.47, 0 41.25 M13.75 55 C6.47 51.96, -3.28 51.88, 0 41.25 M0 41.25 C3.33 32.71, -1.7 26.08, 0 13.75 M0 41.25 C1.95 32.99, 1.83 24.53, 0 13.75 M0 13.75 C0.84 0.87, 6.65 1.85, 13.75 0 M0 13.75 C-1.57 8.02, 6.55 -4.38, 13.75 0" stroke="#1e1e1e" stroke-width="2" fill="none"></path></g><g transform="translate(31.380916632323476 283.3521827952214) rotate(0 23.489990234375 22.5)"><text x="23.489990234375" y="0" font-family="Virgil, Segoe UI Emoji" font-size="36px" fill="#1e1e1e" text-anchor="middle" style="white-space: pre;" direction="ltr" dominant-baseline="text-before-edge">PC</text></g><g stroke-linecap="round" transform="translate(171.7325604523164 90.86627082127058) rotate(0 81.5 79)"><path d="M32 0 M32 0 C55.44 2.29, 81.4 1.4, 131 0 M32 0 C58.68 -2.38, 85.38 -2.32, 131 0 M131 0 C153.99 -0.3, 163.81 13.8, 163 32 M131 0 C148.4 -4.56, 160.77 6.54, 163 32 M163 32 C159.07 67.09, 158.57 105.37, 163 126 M163 32 C162.53 61.62, 163.08 91.24, 163 126 M163 126 C164.64 144.69, 149.48 159.27, 131 158 M163 126 C161.77 144.48, 152.45 161.44, 131 158 M131 158 C105.19 155.73, 78.66 161.22, 32 158 M131 158 C97.21 157.75, 63.62 160.53, 32 158 M32 158 C9.3 160.99, 1.71 143.52, 0 126 M32 158 C13.42 160.93, -3.99 146.28, 0 126 M0 126 C-3.2 95.18, 1.66 62.77, 0 32 M0 126 C1.32 95.33, 2.58 62.28, 0 32 M0 32 C1.27 10.15, 7.34 -2.92, 32 0 M0 32 C1.08 6.51, 9.98 -0.26, 32 0" stroke="#1e1e1e" stroke-width="2" fill="none"></path></g><g transform="translate(178.83858614811717 147.36627082127058) rotate(0 74.39397430419922 22.5)"><text x="74.39397430419922" y="0" font-family="Virgil, Segoe UI Emoji" font-size="36px" fill="#1e1e1e" text-anchor="middle" style="white-space: pre;" direction="ltr" dominant-baseline="text-before-edge">Internet</text></g><g stroke-linecap="round"><g transform="translate(99.7418325431722 61.28105254174841) rotate(0 34.88348933374784 54.44488737522181)"><path d="M0.89 -0.36 C11.73 17.77, 55.24 91.18, 66.7 109.4 M-2.07 -3.03 C9.47 15.35, 60.12 92.97, 71.84 111.92" stroke="#1e1e1e" stroke-width="2" fill="none"></path></g></g><mask></mask><g stroke-linecap="round"><g transform="translate(102.7003844667648 173.70493467130314) rotate(0 33.95910330576234 -0.4434287912548882)"><path d="M-1.09 -1.97 C10.52 -2.99, 57.27 -3.94, 69.01 -4.02 M3.52 3.14 C14.98 2.3, 56.96 -0.59, 67.83 -0.97" stroke="#1e1e1e" stroke-width="2" fill="none"></path></g></g><mask></mask><g stroke-linecap="round"><g transform="translate(101.71415033283333 308.8107347188139) rotate(0 33.99227065264027 -71.19470249508495)"><path d="M0.83 1.37 C12.98 -22.21, 59.08 -119.5, 70.14 -143.76 M-2.16 -0.36 C9.96 -23.22, 55.98 -116.53, 68.51 -140.01" stroke="#1e1e1e" stroke-width="2" fill="none"></path></g></g><mask></mask><g stroke-linecap="round"><g transform="translate(330.5065501712651 168.77402733849902) rotate(0 43.0663846389576 0.8647374320728716)"><path d="M-1.8 -2.08 C13.1 -1.91, 73.43 -0.3, 87.94 0.6 M2.41 2.97 C17.28 3.53, 73.41 4.22, 86.86 3.48" stroke="#1e1e1e" stroke-width="2" fill="none"></path></g></g><mask></mask></svg>