<svg version="1.1" xmlns="http://www.w3.org/2000/svg" viewBox="0 0 626.2666047361681 200.54708820919194" width="626.2666047361681" height="200.54708820919194" filter="invert(93%) hue-rotate(180deg)">
  <!-- svg-source:excalidraw -->
  
  <defs>
    <style class="style-fonts">
      @font-face {
        font-family: "Virgil";
        src: url("https://excalidraw.com/Virgil.woff2");
      }
      @font-face {
        font-family: "Cascadia";
        src: url("https://excalidraw.com/Cascadia.woff2");
      }
    </style>
    
  </defs>
  <g stroke-linecap="round" transform="translate(172.71870053737177 10) rotate(0 131.6542062960533 27.5)"><path d="M13.75 0 M13.75 0 C76.55 5.08, 148.15 1.24, 249.56 0 M13.75 0 C62.94 1.79, 115.01 1.73, 249.56 0 M249.56 0 C256.14 -2.76, 267.1 1.58, 263.31 13.75 M249.56 0 C254.89 3.4, 263.57 2.75, 263.31 13.75 M263.31 13.75 C261.04 25.52, 260.89 34.45, 263.31 41.25 M263.31 13.75 C263.23 21.63, 261.93 30.93, 263.31 41.25 M263.31 41.25 C261.63 49.05, 260.52 58.51, 249.56 55 M263.31 41.25 C263.45 49.13, 262.47 56.33, 249.56 55 M249.56 55 C182.96 50.54, 113.95 49.28, 13.75 55 M249.56 55 C182.71 54.06, 117.37 55.88, 13.75 55 M13.75 55 C2 55.8, 3.09 49.47, 0 41.25 M13.75 55 C1.03 53.64, 1.5 53.72, 0 41.25 M0 41.25 C3.29 35.63, 0.28 19.17, 0 13.75 M0 41.25 C-0.06 33.96, -1.07 21.92, 0 13.75 M0 13.75 C2.96 2.67, 5.84 -3.42, 13.75 0 M0 13.75 C-4.44 4.63, 6.06 -1.27, 13.75 0" stroke="#1e1e1e" stroke-width="2" fill="none"></path></g><g transform="translate(195.92294803215555 15) rotate(0 108.44995880126953 22.5)"><text x="108.44995880126953" y="0" font-family="Virgil, Segoe UI Emoji" font-size="36px" fill="#1e1e1e" text-anchor="middle" style="white-space: pre;" direction="ltr" dominant-baseline="text-before-edge">Architecture</text></g><g stroke-linecap="round" transform="translate(10 135.54708820919194) rotate(0 126 27.5)"><path d="M13.75 0 M13.75 0 C100.47 0.64, 187.04 1.35, 238.25 0 M13.75 0 C67.49 1.35, 123.83 -1.45, 238.25 0 M238.25 0 C244.57 -2.06, 248.91 4.55, 252 13.75 M238.25 0 C248.15 -1.99, 248.26 7.22, 252 13.75 M252 13.75 C254.11 22.82, 255.73 34.31, 252 41.25 M252 13.75 C252.14 18.95, 250.48 24.48, 252 41.25 M252 41.25 C253.82 49.27, 244.2 52.57, 238.25 55 M252 41.25 C251.02 50.31, 243.76 53.51, 238.25 55 M238.25 55 C185.93 49.68, 135.04 49.4, 13.75 55 M238.25 55 C179.18 51.8, 116.15 52.76, 13.75 55 M13.75 55 C2.06 54.13, -1.23 46.58, 0 41.25 M13.75 55 C8.12 59.17, 0.61 49.25, 0 41.25 M0 41.25 C-2.31 29.51, -3.75 22.65, 0 13.75 M0 41.25 C-1.04 31.59, 1.96 20.66, 0 13.75 M0 13.75 C1.38 5.84, 1.78 -2.94, 13.75 0 M0 13.75 C-2.25 3.78, 3.49 3.84, 13.75 0" stroke="#1e1e1e" stroke-width="2" fill="none"></path></g><g transform="translate(19.198043823242188 140.54708820919194) rotate(0 116.80195617675781 22.5)"><text x="116.80195617675781" y="0" font-family="Virgil, Segoe UI Emoji" font-size="36px" fill="#1e1e1e" text-anchor="middle" style="white-space: pre;" direction="ltr" dominant-baseline="text-before-edge">Peer to Peer</text></g><g stroke-linecap="round" transform="translate(364.2666047361681 135.54708820919194) rotate(0 126 27.5)"><path d="M13.75 0 M13.75 0 C76.5 -2.39, 134.78 -2.05, 238.25 0 M13.75 0 C91.85 -1.93, 169.23 -1.24, 238.25 0 M238.25 0 C251.38 0.1, 255.91 6.72, 252 13.75 M238.25 0 C245.17 2.78, 254.91 5.05, 252 13.75 M252 13.75 C253.33 19.83, 247.97 28.38, 252 41.25 M252 13.75 C253.19 23.84, 251.86 32.69, 252 41.25 M252 41.25 C250.33 51.39, 245.28 52.72, 238.25 55 M252 41.25 C251.55 48.94, 248.23 51.92, 238.25 55 M238.25 55 C158.57 57.63, 73.52 59.01, 13.75 55 M238.25 55 C163.61 59.26, 93.13 58.64, 13.75 55 M13.75 55 C3.84 53.78, 2.37 53.15, 0 41.25 M13.75 55 C0.42 59.52, 2.48 49.1, 0 41.25 M0 41.25 C-0.24 37.54, -3.54 25.71, 0 13.75 M0 41.25 C0.12 35.64, -0.27 25.4, 0 13.75 M0 13.75 C0.94 0.88, 2.77 1.31, 13.75 0 M0 13.75 C2.21 1.42, 8.62 1.14, 13.75 0" stroke="#1e1e1e" stroke-width="2" fill="none"></path></g><g transform="translate(377.0466569212267 140.54708820919194) rotate(0 113.2199478149414 22.5)"><text x="113.2199478149414" y="0" font-family="Virgil, Segoe UI Emoji" font-size="36px" fill="#1e1e1e" text-anchor="middle" style="white-space: pre;" direction="ltr" dominant-baseline="text-before-edge">Client/Server</text></g><g stroke-linecap="round"><g transform="translate(303.87978976645934 68.18427766421371) rotate(0 -95.23208229256485 34.92914395732868)"><path d="M0.48 1.18 C-31.01 12.93, -159.31 59.8, -190.94 70.51 M-2.7 -0.65 C-33.18 10.36, -154.46 55.54, -185.95 66.83" stroke="#1e1e1e" stroke-width="2" fill="none"></path></g></g><mask></mask><g stroke-linecap="round"><g transform="translate(305.6719812797878 65.79884748067417) rotate(0 78.81327329359216 34.11328363152498)"><path d="M2.43 -1.32 C28.69 10.14, 132.19 55.43, 157.32 66.67 M0.31 4.13 C26.35 16.15, 129.51 58.88, 155.89 69.55" stroke="#1e1e1e" stroke-width="2" fill="none"></path></g></g><mask></mask></svg>