<svg version="1.1" xmlns="http://www.w3.org/2000/svg" viewBox="0 0 618.8412495560798 327.19513985493563" width="618.8412495560798" height="327.19513985493563" filter="invert(93%) hue-rotate(180deg)">
  <!-- svg-source:excalidraw -->
  
  <defs>
    <style class="style-fonts">
      @font-face {
        font-family: "Virgil";
        src: url("https://excalidraw.com/Virgil.woff2");
      }
      @font-face {
        font-family: "Cascadia";
        src: url("https://excalidraw.com/Cascadia.woff2");
      }
    </style>
    
  </defs>
  <g stroke-linecap="round" transform="translate(209.6300880733105 113.89659771496207) rotate(0 107.33685563875596 50)"><path d="M25 0 M25 0 C72.79 -1.39, 128.2 -2.37, 189.67 0 M25 0 C87.84 -0.71, 147.61 0.6, 189.67 0 M189.67 0 C204.42 -0.16, 212.9 4.59, 214.67 25 M189.67 0 C208.27 3.04, 218.99 4.64, 214.67 25 M214.67 25 C216.52 39.76, 217.57 50.87, 214.67 75 M214.67 25 C213.15 35.53, 213.65 44.97, 214.67 75 M214.67 75 C211.75 93.74, 202.41 100.18, 189.67 100 M214.67 75 C216.61 92.23, 208.74 103.47, 189.67 100 M189.67 100 C127.81 97.12, 63.32 99.37, 25 100 M189.67 100 C131.58 100.15, 67.77 99.68, 25 100 M25 100 C4.44 103.83, 1.55 90.36, 0 75 M25 100 C9.34 98.16, 0.46 96.22, 0 75 M0 75 C-1.6 55.62, 1.58 35.39, 0 25 M0 75 C-0.18 61.16, 1.78 43.61, 0 25 M0 25 C2.96 9.7, 11.13 -2.14, 25 0 M0 25 C-2.89 11.2, 4.57 -4.56, 25 0" stroke="#1e1e1e" stroke-width="2" fill="none"></path></g><g transform="translate(218.56097599966415 118.89659771496207) rotate(0 98.40596771240234 45)"><text x="98.40596771240234" y="0" font-family="Virgil, Segoe UI Emoji" font-size="36px" fill="#1e1e1e" text-anchor="middle" style="white-space: pre;" direction="ltr" dominant-baseline="text-before-edge">Components</text><text x="98.40596771240234" y="45" font-family="Virgil, Segoe UI Emoji" font-size="36px" fill="#1e1e1e" text-anchor="middle" style="white-space: pre;" direction="ltr" dominant-baseline="text-before-edge">of CN</text></g><g stroke-linecap="round" transform="translate(264.67463481057723 10) rotate(0 50 27.5)"><path d="M13.75 0 M13.75 0 C33.35 0.26, 54.71 -0.61, 86.25 0 M13.75 0 C41.25 1.9, 68.56 2.34, 86.25 0 M86.25 0 C96.21 -3.39, 98.4 0.74, 100 13.75 M86.25 0 C96.18 2.36, 102.76 6.52, 100 13.75 M100 13.75 C100.7 21.69, 97.41 33.06, 100 41.25 M100 13.75 C100.2 20.96, 98.12 29.1, 100 41.25 M100 41.25 C102.08 49.46, 96.41 53.56, 86.25 55 M100 41.25 C96.21 50.64, 93.29 50.77, 86.25 55 M86.25 55 C69.02 57.79, 44.23 51.4, 13.75 55 M86.25 55 C61.76 55.18, 37.01 56.11, 13.75 55 M13.75 55 C7.23 57.49, 0.42 49.64, 0 41.25 M13.75 55 C0.95 53.28, 0.26 50.93, 0 41.25 M0 41.25 C3.75 29.62, -1.03 26.8, 0 13.75 M0 41.25 C-2.22 30.59, -1.01 20.4, 0 13.75 M0 13.75 C3.97 3.5, 2.31 0.67, 13.75 0 M0 13.75 C-0.64 4.93, 6.96 0.51, 13.75 0" stroke="#1e1e1e" stroke-width="2" fill="none"></path></g><g transform="translate(278.8186396323546 15) rotate(0 35.855995178222656 22.5)"><text x="35.855995178222656" y="0" font-family="Virgil, Segoe UI Emoji" font-size="36px" fill="#1e1e1e" text-anchor="middle" style="white-space: pre;" direction="ltr" dominant-baseline="text-before-edge">HUB</text></g><g stroke-linecap="round" transform="translate(489.8412495560798 132.4963846095947) rotate(0 59.5 27.5)"><path d="M13.75 0 M13.75 0 C43.32 -2.18, 63.37 -0.45, 105.25 0 M13.75 0 C49.22 -0.98, 84.6 1.93, 105.25 0 M105.25 0 C116.91 0.42, 118.23 1.42, 119 13.75 M105.25 0 C112.7 0.26, 119.52 4.37, 119 13.75 M119 13.75 C115.62 22.35, 120.92 34.4, 119 41.25 M119 13.75 C118.14 22.79, 117.48 35.24, 119 41.25 M119 41.25 C117.92 48.15, 115.09 54.44, 105.25 55 M119 41.25 C119.35 52.79, 114.93 54.09, 105.25 55 M105.25 55 C75.07 55.14, 52.25 53.26, 13.75 55 M105.25 55 C73.53 55.19, 41.8 53.66, 13.75 55 M13.75 55 C4.73 55.72, -1.99 51.31, 0 41.25 M13.75 55 C2.6 57.72, 0.91 46.28, 0 41.25 M0 41.25 C0.92 34.97, -3.16 17.99, 0 13.75 M0 41.25 C0.39 30.59, -0.15 18.68, 0 13.75 M0 13.75 C2.08 4.32, 3.81 3.34, 13.75 0 M0 13.75 C3.1 0.97, 0.36 2.8, 13.75 0" stroke="#1e1e1e" stroke-width="2" fill="none"></path></g><g transform="translate(495.39526566936104 137.4963846095947) rotate(0 53.94598388671875 22.5)"><text x="53.94598388671875" y="0" font-family="Virgil, Segoe UI Emoji" font-size="36px" fill="#1e1e1e" text-anchor="middle" style="white-space: pre;" direction="ltr" dominant-baseline="text-before-edge">Switch</text></g><g stroke-linecap="round" transform="translate(249.72630432713834 262.19513985493563) rotate(0 77.5 27.5)"><path d="M13.75 0 M13.75 0 C53.63 1.43, 96.62 0.27, 141.25 0 M13.75 0 C43.84 0.46, 77.83 -0.9, 141.25 0 M141.25 0 C149.79 0.24, 153.42 1.55, 155 13.75 M141.25 0 C149.55 4.45, 151.81 5.38, 155 13.75 M155 13.75 C151.41 21.24, 153.19 32.89, 155 41.25 M155 13.75 C155.9 23.81, 156.2 35, 155 41.25 M155 41.25 C153.23 49.67, 148.76 55.37, 141.25 55 M155 41.25 C158.08 52.45, 148.76 52.8, 141.25 55 M141.25 55 C92.98 57.28, 45.54 56.71, 13.75 55 M141.25 55 C115.66 53.55, 87.46 54.19, 13.75 55 M13.75 55 C3.92 58.88, 3.99 52.35, 0 41.25 M13.75 55 C1.07 55.39, 0.33 52.57, 0 41.25 M0 41.25 C0.27 28.14, 3.46 21.41, 0 13.75 M0 41.25 C-2.32 33.86, -1.71 27.09, 0 13.75 M0 13.75 C-1.93 2.83, 4.87 -3.9, 13.75 0 M0 13.75 C3.22 6.99, 5.95 -4.16, 13.75 0" stroke="#1e1e1e" stroke-width="2" fill="none"></path></g><g transform="translate(257.29632691014615 267.19513985493563) rotate(0 69.92997741699219 22.5)"><text x="69.92997741699219" y="0" font-family="Virgil, Segoe UI Emoji" font-size="36px" fill="#1e1e1e" text-anchor="middle" style="white-space: pre;" direction="ltr" dominant-baseline="text-before-edge">Routers</text></g><g stroke-linecap="round" transform="translate(10 139.89300082687186) rotate(0 64 27.5)"><path d="M13.75 0 M13.75 0 C48.31 -0.31, 90.09 0.6, 114.25 0 M13.75 0 C50.54 -2.51, 86.09 -1.28, 114.25 0 M114.25 0 C121.28 0.31, 124.18 7.59, 128 13.75 M114.25 0 C126.27 -3.4, 132.01 4.18, 128 13.75 M128 13.75 C132.36 25.05, 130.47 38.34, 128 41.25 M128 13.75 C126.08 21.83, 129 30.58, 128 41.25 M128 41.25 C131.4 49.27, 124.76 51.34, 114.25 55 M128 41.25 C123.96 48.23, 121.44 56.75, 114.25 55 M114.25 55 C77.77 53.89, 43.87 57.8, 13.75 55 M114.25 55 C88.94 54.66, 65.82 54.58, 13.75 55 M13.75 55 C3 58.6, 1.39 50.77, 0 41.25 M13.75 55 C3.06 57.35, 1.43 54.38, 0 41.25 M0 41.25 C-1.58 31.12, -3.21 27.47, 0 13.75 M0 41.25 C-1.32 30.53, -0.35 21.02, 0 13.75 M0 13.75 C3.29 6.89, 3.56 0.4, 13.75 0 M0 13.75 C0.32 1.77, 2.72 3.64, 13.75 0" stroke="#1e1e1e" stroke-width="2" fill="none"></path></g><g transform="translate(16.904029846191406 144.89300082687186) rotate(0 57.095970153808594 22.5)"><text x="57.095970153808594" y="0" font-family="Virgil, Segoe UI Emoji" font-size="36px" fill="#1e1e1e" text-anchor="middle" style="white-space: pre;" direction="ltr" dominant-baseline="text-before-edge">Cables</text></g><g stroke-linecap="round"><g transform="translate(313.5266595409872 62.98038148407625) rotate(0 0.9947234534131724 25.270491399490993)"><path d="M-1.26 -1.26 C-1.32 6.68, 1.61 39.69, 2.41 48.41 M3.25 4.22 C2.48 12.54, -0.14 44.72, -0.38 51.81" stroke="#1e1e1e" stroke-width="2" fill="none"></path></g></g><mask></mask><g stroke-linecap="round"><g transform="translate(425.67994451599634 165.50086028114953) rotate(0 32.2229903866931 1.4599732100946596)"><path d="M0.17 2.73 C10.8 2.53, 51.79 0.42, 62.68 0.16 M-3.18 1.74 C8.37 1.74, 56.47 2.41, 67.63 2.76" stroke="#1e1e1e" stroke-width="2" fill="none"></path></g></g><mask></mask><g stroke-linecap="round"><g transform="translate(315.590851041463 213.66489117082835) rotate(0 1.16181861281395 23.815155364247147)"><path d="M-1.13 -0.05 C-1.06 8.11, 2.4 39.3, 2.94 47.11 M3.45 -2.54 C2.94 6.17, 1.39 41.54, 0.8 50.17" stroke="#1e1e1e" stroke-width="2" fill="none"></path></g></g><mask></mask><g stroke-linecap="round"><g transform="translate(211.00623323848447 172.3814286233079) rotate(0 -35.20070373521352 -0.6793230526623688)"><path d="M-0.16 -2.62 C-12.04 -3.16, -57.61 -3.7, -69.01 -3.41 M-3.68 2.14 C-15.98 1.9, -59.34 -0.95, -70.25 -0.89" stroke="#1e1e1e" stroke-width="2" fill="none"></path></g></g><mask></mask></svg>