<svg version="1.1" xmlns="http://www.w3.org/2000/svg" viewBox="0 0 447.9995813973412 339.5204100862095" width="447.9995813973412" height="339.5204100862095" filter="invert(93%) hue-rotate(180deg)">
  <!-- svg-source:excalidraw -->
  
  <defs>
    <style class="style-fonts">
      @font-face {
        font-family: "Virgil";
        src: url("https://excalidraw.com/Virgil.woff2");
      }
      @font-face {
        font-family: "Cascadia";
        src: url("https://excalidraw.com/Cascadia.woff2");
      }
    </style>
    
  </defs>
  <g stroke-linecap="round" transform="translate(12.958627162693233 89.58521827952217) rotate(0 100 81)"><path d="M32 0 M32 0 C69.73 2.12, 102.03 -2.85, 168 0 M32 0 C70.28 0.55, 103.51 0.21, 168 0 M168 0 C191.5 3.5, 203.32 14.58, 200 32 M168 0 C185.75 -1.01, 196.12 14.95, 200 32 M200 32 C200.69 52.04, 202.86 80.74, 200 130 M200 32 C200.8 65.14, 199.99 97.19, 200 130 M200 130 C201.82 155.33, 185.44 164.13, 168 162 M200 130 C202.95 150.5, 189 160.68, 168 162 M168 162 C122.22 162.83, 67.65 166.31, 32 162 M168 162 C115.62 162.04, 61.53 162.45, 32 162 M32 162 C8.17 159.34, 3.24 155.05, 0 130 M32 162 C11.59 165.75, -0.26 149, 0 130 M0 130 C-1.16 110.4, 2 86.83, 0 32 M0 130 C1.34 95.53, 0.09 62.67, 0 32 M0 32 C-2.11 13.64, 7.01 -2.24, 32 0 M0 32 C-1.17 7.28, 11.43 3.69, 32 0" stroke="#1e1e1e" stroke-width="2" fill="none"></path></g><g transform="translate(55.73664229941198 125.58521827952217) rotate(0 57.22198486328125 45)"><text x="57.22198486328125" y="0" font-family="Virgil, Segoe UI Emoji" font-size="36px" fill="#1e1e1e" text-anchor="middle" style="white-space: pre;" direction="ltr" dominant-baseline="text-before-edge">Data </text><text x="57.22198486328125" y="45" font-family="Virgil, Segoe UI Emoji" font-size="36px" fill="#1e1e1e" text-anchor="middle" style="white-space: pre;" direction="ltr" dominant-baseline="text-before-edge">LInk</text></g><g stroke-linecap="round" transform="translate(212.04110471284946 87.10583766706117) rotate(0 112 44)"><path d="M22 0 M22 0 C71.9 2.52, 120.56 0.01, 202 0 M22 0 C82.53 -3.8, 146.19 -4.15, 202 0 M202 0 C217.33 3.21, 221.89 9.17, 224 22 M202 0 C217.82 1.79, 222.26 9.32, 224 22 M224 22 C225.31 39.37, 222.95 48.63, 224 66 M224 22 C222.15 35.37, 222.97 52.28, 224 66 M224 66 C224.97 81.5, 218.79 88.32, 202 88 M224 66 C221.49 79.17, 217.02 84.75, 202 88 M202 88 C136.37 90.02, 63.3 88.44, 22 88 M202 88 C154.94 92.21, 106.74 90.83, 22 88 M22 88 C4.12 90.47, 3.13 82.54, 0 66 M22 88 C9.17 91.34, -1.75 83.4, 0 66 M0 66 C-2.99 46.62, -2.61 31.73, 0 22 M0 66 C1.01 55.6, 0.31 43.98, 0 22 M0 22 C0.43 5.74, 10.56 3.42, 22 0 M0 22 C-3.01 3.89, 9.07 -3.1, 22 0" stroke="#1e1e1e" stroke-width="2" fill="none"></path></g><g transform="translate(245.47112790620884 108.60583766706117) rotate(0 78.56997680664062 22.5)"><text x="78.56997680664062" y="0" font-family="Virgil, Segoe UI Emoji" font-size="36px" fill="#1e1e1e" text-anchor="middle" style="white-space: pre;" direction="ltr" dominant-baseline="text-before-edge">LLC/DLC</text></g><g stroke-linecap="round" transform="translate(213.5065019499259 177.09188250633946) rotate(0 112 38)"><path d="M19 0 M19 0 C59.78 1.36, 99.32 3.47, 205 0 M19 0 C86.25 -0.53, 150.35 0.87, 205 0 M205 0 C221.08 -2.62, 221 7.84, 224 19 M205 0 C214.57 -3.67, 220.21 10.19, 224 19 M224 19 C221.62 33.97, 226.78 43.02, 224 57 M224 19 C224.89 29.97, 223.49 37.67, 224 57 M224 57 C225.52 67.36, 216.87 73.65, 205 76 M224 57 C225.22 72.29, 222.08 80.28, 205 76 M205 76 C154.51 75.41, 101.42 78.5, 19 76 M205 76 C158.58 76.74, 110.34 74.02, 19 76 M19 76 C7.95 73.3, 0.33 67.3, 0 57 M19 76 C7.65 75.82, -1.3 72.36, 0 57 M0 57 C1.86 48.41, -0.96 43.94, 0 19 M0 57 C-0.23 48.98, 0.79 36.98, 0 19 M0 19 C3.29 6.3, 3.45 -2.54, 19 0 M0 19 C3.06 9.16, 4.69 -2.42, 19 0" stroke="#1e1e1e" stroke-width="2" fill="none"></path></g><g transform="translate(279.3185136686759 192.59188250633946) rotate(0 46.18798828125 22.5)"><text x="46.18798828125" y="0" font-family="Virgil, Segoe UI Emoji" font-size="36px" fill="#1e1e1e" text-anchor="middle" style="white-space: pre;" direction="ltr" dominant-baseline="text-before-edge">MAC </text></g><g stroke-linecap="round" transform="translate(10 10) rotate(0 210.54812170811232 36.981522849402666)"><path d="M18.49 0 M18.49 0 C170.11 1.49, 318.65 5.19, 402.61 0 M18.49 0 C156.16 0.47, 293.98 1.8, 402.61 0 M402.61 0 C418.1 3.08, 418.08 8.57, 421.1 18.49 M402.61 0 C415.23 2.37, 424.73 3.97, 421.1 18.49 M421.1 18.49 C423.25 36.08, 419.96 49.77, 421.1 55.47 M421.1 18.49 C420.28 32.55, 422.69 43.94, 421.1 55.47 M421.1 55.47 C421.51 71.72, 416.56 76.04, 402.61 73.96 M421.1 55.47 C421.68 68.86, 415.83 70.03, 402.61 73.96 M402.61 73.96 C322.52 74.6, 237.42 75.88, 18.49 73.96 M402.61 73.96 C322.83 76, 242.68 74.82, 18.49 73.96 M18.49 73.96 C2.58 72.15, -2.18 65.87, 0 55.47 M18.49 73.96 C7.64 74.76, 2.67 63.22, 0 55.47 M0 55.47 C-1.17 43.21, -3.64 31.22, 0 18.49 M0 55.47 C-1.12 45.63, -1.24 38.19, 0 18.49 M0 18.49 C-2.99 5.92, 3.28 -0.83, 18.49 0 M0 18.49 C-3.9 6.53, 7.37 -3.73, 18.49 0" stroke="#1e1e1e" stroke-width="2" fill="none"></path></g><g transform="translate(93.68416144199904 24.481522849402722) rotate(0 126.86396026611328 22.5)"><text x="126.86396026611328" y="0" font-family="Virgil, Segoe UI Emoji" font-size="36px" fill="#1e1e1e" text-anchor="middle" style="white-space: pre;" direction="ltr" dominant-baseline="text-before-edge">Network Layer</text></g><g stroke-linecap="round" transform="translate(16.90333798111658 255.55736438740416) rotate(0 210.54812170811232 36.981522849402666)"><path d="M18.49 0 M18.49 0 C107.73 -5.04, 197.27 -4.35, 402.61 0 M18.49 0 C139.45 2.62, 260.34 2.87, 402.61 0 M402.61 0 C410.95 2.08, 420.09 5.52, 421.1 18.49 M402.61 0 C416.3 -2.04, 419.31 8.09, 421.1 18.49 M421.1 18.49 C425.45 33.82, 420.52 44.1, 421.1 55.47 M421.1 18.49 C422.26 29.73, 422.62 38.35, 421.1 55.47 M421.1 55.47 C417.68 64.47, 412.7 76.43, 402.61 73.96 M421.1 55.47 C419.33 70.87, 411.03 76.92, 402.61 73.96 M402.61 73.96 C263.17 71.45, 123.83 74.83, 18.49 73.96 M402.61 73.96 C253.98 73.36, 104.44 72.43, 18.49 73.96 M18.49 73.96 C4.45 73.16, -2.11 65.96, 0 55.47 M18.49 73.96 C2.7 70.28, -3.03 64.24, 0 55.47 M0 55.47 C-2.76 42.74, -4.38 27.88, 0 18.49 M0 55.47 C2.26 45.84, 1.8 34.96, 0 18.49 M0 18.49 C3.44 5.95, 4.74 -2.94, 18.49 0 M0 18.49 C-4.44 2.05, 10.19 -1.73, 18.49 0" stroke="#1e1e1e" stroke-width="2" fill="none"></path></g><g transform="translate(100.9115198088578 270.0388872368069) rotate(0 126.5399398803711 22.5)"><text x="126.5399398803711" y="0" font-family="Virgil, Segoe UI Emoji" font-size="36px" fill="#1e1e1e" text-anchor="middle" style="white-space: pre;" direction="ltr" dominant-baseline="text-before-edge">Physical Layer</text></g></svg>