<svg version="1.1" xmlns="http://www.w3.org/2000/svg" viewBox="0 0 882.4439283322398 160.00173321614125" width="882.4439283322398" height="160.00173321614125" filter="invert(93%) hue-rotate(180deg)">
  <!-- svg-source:excalidraw -->
  
  <defs>
    <style class="style-fonts">
      @font-face {
        font-family: "Virgil";
        src: url("https://excalidraw.com/Virgil.woff2");
      }
      @font-face {
        font-family: "Cascadia";
        src: url("https://excalidraw.com/Cascadia.woff2");
      }
    </style>
    
  </defs>
  <g stroke-linecap="round" transform="translate(10 95.00173321614125) rotate(0 62.5 27.5)"><path d="M13.75 0 M13.75 0 C42.97 2.32, 76.31 2.45, 111.25 0 M13.75 0 C35 0.72, 58.39 -2.25, 111.25 0 M111.25 0 C123.8 -1.74, 127.12 4.87, 125 13.75 M111.25 0 C115.93 0.67, 123.49 6.62, 125 13.75 M125 13.75 C125.14 20.05, 123.04 30.09, 125 41.25 M125 13.75 C125.78 21.05, 122.79 29.35, 125 41.25 M125 41.25 C126.25 52.44, 116.63 55.27, 111.25 55 M125 41.25 C122.18 54.06, 122.66 53.09, 111.25 55 M111.25 55 C72.9 55.76, 37.66 56.8, 13.75 55 M111.25 55 C84.34 53.52, 60.8 55.3, 13.75 55 M13.75 55 C5.28 56, 0.04 46.74, 0 41.25 M13.75 55 C7.27 56.53, -3.03 49.2, 0 41.25 M0 41.25 C1.56 34.48, -3.97 28.11, 0 13.75 M0 41.25 C0.92 32.11, 1.5 20.15, 0 13.75 M0 13.75 C3.7 3.63, 4.32 -2.49, 13.75 0 M0 13.75 C0 7.02, 1.24 1.55, 13.75 0" stroke="#1e1e1e" stroke-width="2" fill="none"></path></g><g transform="translate(15.476020812988281 100.00173321614125) rotate(0 57.02397918701172 22.5)"><text x="57.02397918701172" y="0" font-family="Virgil, Segoe UI Emoji" font-size="36px" fill="#1e1e1e" text-anchor="middle" style="white-space: pre;" direction="ltr" dominant-baseline="text-before-edge">Sender</text></g><g stroke-linecap="round" transform="translate(727.4439283322398 95.00173321614119) rotate(0 72.5 27.5)"><path d="M13.75 0 M13.75 0 C41.03 3.4, 60.33 3.82, 131.25 0 M13.75 0 C43.5 0.2, 74.32 1.12, 131.25 0 M131.25 0 C138.82 -3.26, 141.76 4.81, 145 13.75 M131.25 0 C140.73 4.35, 145.8 5.73, 145 13.75 M145 13.75 C145.82 19.39, 143.43 30.72, 145 41.25 M145 13.75 C145.34 22.82, 146.42 36.37, 145 41.25 M145 41.25 C142.35 52.47, 141.52 56, 131.25 55 M145 41.25 C147.61 46.25, 144.67 53.91, 131.25 55 M131.25 55 C98.89 52.09, 63.63 53.4, 13.75 55 M131.25 55 C103.52 51.83, 71.07 54.59, 13.75 55 M13.75 55 C4.37 51.98, -0.2 50.31, 0 41.25 M13.75 55 C4.8 51.58, 0.73 53.6, 0 41.25 M0 41.25 C-0.14 31.62, -1.15 25.91, 0 13.75 M0 41.25 C1.3 33.7, 1.31 28.6, 0 13.75 M0 13.75 C-1.75 1.52, 3.87 -0.19, 13.75 0 M0 13.75 C1.86 0.95, 8.59 0.28, 13.75 0" stroke="#1e1e1e" stroke-width="2" fill="none"></path></g><g transform="translate(732.5339704464976 100.00173321614119) rotate(0 67.40995788574219 22.5)"><text x="67.40995788574219" y="0" font-family="Virgil, Segoe UI Emoji" font-size="36px" fill="#1e1e1e" text-anchor="middle" style="white-space: pre;" direction="ltr" dominant-baseline="text-before-edge">reciever</text></g><g stroke-linecap="round"><g transform="translate(136.97235540921156 120.20498699663551) rotate(0 293.0814230665573 1.0240564361214695)"><path d="M2.8 1.35 C100.33 1.34, 488.5 -0.3, 585.29 -0.62 M0.87 -0.38 C98.16 0.08, 487.06 2.24, 583.86 2.67" stroke="#1e1e1e" stroke-width="2" fill="none"></path></g></g><mask></mask><g stroke-linecap="round" transform="translate(203.52996671749577 60.67056412347745) rotate(0 40 27.5)"><path d="M13.75 0 M13.75 0 C28.66 -1.19, 34.38 -1.99, 66.25 0 M13.75 0 C26.7 -0.76, 42.92 2.41, 66.25 0 M66.25 0 C77.99 -1.25, 81.06 4.37, 80 13.75 M66.25 0 C71.67 -0.17, 78.88 6.32, 80 13.75 M80 13.75 C79.36 22.01, 83.44 28.28, 80 41.25 M80 13.75 C78.3 24.21, 79.11 30.96, 80 41.25 M80 41.25 C83.7 51.52, 74.56 53.55, 66.25 55 M80 41.25 C83.53 49.92, 79.96 56.48, 66.25 55 M66.25 55 C55.5 55.53, 41.06 57.85, 13.75 55 M66.25 55 C48.24 54.57, 24.84 54.44, 13.75 55 M13.75 55 C6.12 51.29, -0.91 50.87, 0 41.25 M13.75 55 C1.25 57.19, -3.08 52.84, 0 41.25 M0 41.25 C-2.93 36.07, 1.75 23.05, 0 13.75 M0 41.25 C0.52 31.92, 0.49 24.59, 0 13.75 M0 13.75 C1.38 4.61, 2 -1.42, 13.75 0 M0 13.75 C-0.79 0.66, 5 1.87, 13.75 0" stroke="#1e1e1e" stroke-width="2" fill="none"></path></g><g transform="translate(209.00597990108952 65.67056412347745) rotate(0 34.52398681640625 22.5)"><text x="34.52398681640625" y="0" font-family="Virgil, Segoe UI Emoji" font-size="36px" fill="#1e1e1e" text-anchor="middle" style="white-space: pre;" direction="ltr" dominant-baseline="text-before-edge">0011</text></g><g stroke-linecap="round" transform="translate(289.82931652007585 60.04841035253588) rotate(0 140 27.5)"><path d="M13.75 0 M13.75 0 C107.13 -6.02, 203.53 -5.1, 266.25 0 M13.75 0 C77.99 -3.44, 141.17 -1.85, 266.25 0 M266.25 0 C277.45 -2.01, 279.33 5.93, 280 13.75 M266.25 0 C275.7 -1.78, 276.62 6.6, 280 13.75 M280 13.75 C278.89 24.57, 280.78 26.18, 280 41.25 M280 13.75 C280.68 22.46, 280.26 32.7, 280 41.25 M280 41.25 C279.92 46.57, 278.21 57.01, 266.25 55 M280 41.25 C277.77 53.38, 271.79 54.83, 266.25 55 M266.25 55 C181.26 59.05, 102.5 58.55, 13.75 55 M266.25 55 C169.53 57.35, 71.59 55.61, 13.75 55 M13.75 55 C6.61 55.44, -2.81 48.25, 0 41.25 M13.75 55 C1.66 53.95, 2.93 48.1, 0 41.25 M0 41.25 C1.35 31.21, -3.87 24.62, 0 13.75 M0 41.25 C-0.02 30.26, -0.22 23.51, 0 13.75 M0 13.75 C3.85 4.02, 6.24 -0.87, 13.75 0 M0 13.75 C-4.05 0.88, 7.3 -4.41, 13.75 0" stroke="#1e1e1e" stroke-width="2" fill="none"></path></g><g transform="translate(296.6113599771071 65.04841035253588) rotate(0 133.21795654296875 22.5)"><text x="133.21795654296875" y="0" font-family="Virgil, Segoe UI Emoji" font-size="36px" fill="#1e1e1e" text-anchor="middle" style="white-space: pre;" direction="ltr" dominant-baseline="text-before-edge">100101000110101</text></g><g stroke-linecap="round" transform="translate(574.280558699989 61.39399065115987) rotate(0 40 27.5)"><path d="M13.75 0 M13.75 0 C36.33 0.75, 50.05 -2.32, 66.25 0 M13.75 0 C28.18 -1.37, 43.57 1.34, 66.25 0 M66.25 0 C73.56 -1.98, 80.14 4.86, 80 13.75 M66.25 0 C71.75 -3.93, 82.6 5.11, 80 13.75 M80 13.75 C79.23 23.54, 77.73 31.22, 80 41.25 M80 13.75 C79.78 24.52, 78.52 33.02, 80 41.25 M80 41.25 C81.1 51.22, 78.18 56.76, 66.25 55 M80 41.25 C76.51 48.83, 74.35 51.82, 66.25 55 M66.25 55 C50.93 54.5, 30.75 58.06, 13.75 55 M66.25 55 C52.75 54.08, 37.91 54.51, 13.75 55 M13.75 55 C7 53.95, -3.25 50.09, 0 41.25 M13.75 55 C3.33 57.99, 4.36 50.02, 0 41.25 M0 41.25 C-2.25 32.83, -3.35 29.48, 0 13.75 M0 41.25 C1.19 32.55, 1.1 22.66, 0 13.75 M0 13.75 C-1.01 5.99, 3.07 -3.88, 13.75 0 M0 13.75 C-0.86 3.45, 6.88 -2.46, 13.75 0" stroke="#1e1e1e" stroke-width="2" fill="none"></path></g><g transform="translate(579.7565718835828 66.39399065115987) rotate(0 34.52398681640625 22.5)"><text x="34.52398681640625" y="0" font-family="Virgil, Segoe UI Emoji" font-size="36px" fill="#1e1e1e" text-anchor="middle" style="white-space: pre;" direction="ltr" dominant-baseline="text-before-edge">0011</text></g><g transform="translate(388.4467107851498 10) rotate(0 48.22198486328125 22.5)"><text x="0" y="0" font-family="Virgil, Segoe UI Emoji" font-size="36px" fill="#1e1e1e" text-anchor="start" style="white-space: pre;" direction="ltr" dominant-baseline="text-before-edge">Data</text></g><g transform="translate(198.6083020639835 15.956966108047595) rotate(0 43.80451202392578 16.543033891952405)"><text x="0" y="0" font-family="Virgil, Segoe UI Emoji" font-size="26.468854227123852px" fill="#1e1e1e" text-anchor="start" style="white-space: pre;" direction="ltr" dominant-baseline="text-before-edge">Header</text></g><g transform="translate(569.4096142137399 15.917047417859465) rotate(0 44.57495652285242 16.582952582140535)"><text x="0" y="0" font-family="Virgil, Segoe UI Emoji" font-size="26.532724131424857px" fill="#1e1e1e" text-anchor="start" style="white-space: pre;" direction="ltr" dominant-baseline="text-before-edge">Trailer</text></g><g stroke-linecap="round" transform="translate(424.9351918066876 61.03456924736645) rotate(0 34.516087992775795 34.02299914047293)"><path d="M17.01 0 M17.01 0 C22.92 1.15, 39.39 2.16, 52.02 0 M17.01 0 C23.71 -1.92, 32.96 -2.14, 52.02 0 M52.02 0 C66.47 -2.02, 66.57 2.13, 69.03 17.01 M52.02 0 C65.47 3.01, 68.53 6.07, 69.03 17.01 M69.03 17.01 C72.67 29.59, 68.84 34.05, 69.03 51.03 M69.03 17.01 C69.65 27.8, 68.23 37.27, 69.03 51.03 M69.03 51.03 C66.73 59.46, 59.55 64.69, 52.02 68.05 M69.03 51.03 C67.96 59.3, 63.67 64.68, 52.02 68.05 M52.02 68.05 C39.45 70.17, 34.25 65.16, 17.01 68.05 M52.02 68.05 C42.6 69.51, 36.66 67.22, 17.01 68.05 M17.01 68.05 C4.02 67.86, -0.48 60.7, 0 51.03 M17.01 68.05 C8.06 64.69, -4.59 65.05, 0 51.03 M0 51.03 C-2.06 40.88, 3.32 34.37, 0 17.01 M0 51.03 C-0.46 42.75, -0.08 36.89, 0 17.01 M0 17.01 C-2.79 8.05, 8.51 -0.08, 17.01 0 M0 17.01 C-3.99 9.45, 3.5 -3.19, 17.01 0" stroke="#1e1e1e" stroke-width="2" fill="none"></path></g></svg>