<svg version="1.1" xmlns="http://www.w3.org/2000/svg" viewBox="0 0 976.0285813661923 160.82189083668362" width="976.0285813661923" height="160.82189083668362" filter="invert(93%) hue-rotate(180deg)">
  <!-- svg-source:excalidraw -->
  
  <defs>
    <style class="style-fonts">
      @font-face {
        font-family: "Virgil";
        src: url("https://excalidraw.com/Virgil.woff2");
      }
      @font-face {
        font-family: "Cascadia";
        src: url("https://excalidraw.com/Cascadia.woff2");
      }
    </style>
    
  </defs>
  <g stroke-linecap="round" transform="translate(10 10) rotate(0 156.74600235050468 40.25384994417152)"><path d="M20.13 0 M20.13 0 C120.41 2.92, 222.85 3.47, 293.37 0 M20.13 0 C119.09 -1.69, 219.06 -1.91, 293.37 0 M293.37 0 C304.8 0.93, 311.66 9.48, 313.49 20.13 M293.37 0 C309.48 -1.72, 308.97 8.35, 313.49 20.13 M313.49 20.13 C312.48 28.7, 310.95 35.56, 313.49 60.38 M313.49 20.13 C314.3 33.33, 313.58 51.02, 313.49 60.38 M313.49 60.38 C314.93 74.53, 309.07 80.1, 293.37 80.51 M313.49 60.38 C315.22 77.19, 304.17 77.01, 293.37 80.51 M293.37 80.51 C203.73 75.01, 116.03 76.72, 20.13 80.51 M293.37 80.51 C191.52 79.21, 92.51 79.91, 20.13 80.51 M20.13 80.51 C9.58 83.51, -3.96 77.38, 0 60.38 M20.13 80.51 C9.33 76.92, -3.02 76.02, 0 60.38 M0 60.38 C1.3 51.92, 2.12 47.09, 0 20.13 M0 60.38 C0.68 50.04, -2.28 42.11, 0 20.13 M0 20.13 C2.69 7.52, 6.62 -2.31, 20.13 0 M0 20.13 C1.5 3.4, 11.02 -1.11, 20.13 0" stroke="#1e1e1e" stroke-width="2" fill="none"></path></g><g transform="translate(97.69802108829765 27.75384994417152) rotate(0 69.04798126220703 22.5)"><text x="69.04798126220703" y="0" font-family="Virgil, Segoe UI Emoji" font-size="36px" fill="#1e1e1e" text-anchor="middle" style="white-space: pre;" direction="ltr" dominant-baseline="text-before-edge">Network</text></g><g stroke-linecap="round" transform="translate(327.76130906282845 10) rotate(0 156.74600235050468 40.25384994417152)"><path d="M20.13 0 M20.13 0 C116.63 1.32, 216.78 3.5, 293.37 0 M20.13 0 C121.32 3.52, 222.85 3.7, 293.37 0 M293.37 0 C309.78 -3.96, 317.08 8.99, 313.49 20.13 M293.37 0 C303.2 -3.02, 315.71 2.63, 313.49 20.13 M313.49 20.13 C313.96 29.97, 317.63 33.41, 313.49 60.38 M313.49 20.13 C311.12 32, 311.63 49.09, 313.49 60.38 M313.49 60.38 C314.3 73.71, 304.47 81.81, 293.37 80.51 M313.49 60.38 C310.18 78.11, 305.67 79.97, 293.37 80.51 M293.37 80.51 C222.98 85.48, 154.24 81.97, 20.13 80.51 M293.37 80.51 C213.66 77.32, 137.37 77.38, 20.13 80.51 M20.13 80.51 C6.55 80.3, -2.53 70.36, 0 60.38 M20.13 80.51 C8 79.33, 4.13 69.71, 0 60.38 M0 60.38 C3.42 51.28, 0.14 41.11, 0 20.13 M0 60.38 C0.08 47.81, -1.46 39.63, 0 20.13 M0 20.13 C-1.57 5.63, 5.82 -0.57, 20.13 0 M0 20.13 C-1.23 5.04, 10.79 3.24, 20.13 0" stroke="#1e1e1e" stroke-width="2" fill="none"></path></g><g transform="translate(425.7733255124542 27.75384994417152) rotate(0 58.733985900878906 22.5)"><text x="58.733985900878906" y="0" font-family="Virgil, Segoe UI Emoji" font-size="36px" fill="#1e1e1e" text-anchor="middle" style="white-space: pre;" direction="ltr" dominant-baseline="text-before-edge">Subnet</text></g><g stroke-linecap="round" transform="translate(652.5365766651829 11.219794598779572) rotate(0 156.74600235050468 40.25384994417152)"><path d="M20.13 0 M20.13 0 C87.26 2.46, 148.87 -1.59, 293.37 0 M20.13 0 C109.44 -1.71, 194.98 -1.48, 293.37 0 M293.37 0 C309.06 -3.12, 310.86 8.64, 313.49 20.13 M293.37 0 C302.71 -4.14, 315.85 7.37, 313.49 20.13 M313.49 20.13 C310.15 33.98, 311.48 46.44, 313.49 60.38 M313.49 20.13 C314.06 28.76, 312.67 35.42, 313.49 60.38 M313.49 60.38 C314.79 70.92, 310.53 79.54, 293.37 80.51 M313.49 60.38 C312.95 71.46, 302.51 84.05, 293.37 80.51 M293.37 80.51 C229.83 76.04, 171.95 73.4, 20.13 80.51 M293.37 80.51 C235.36 82.66, 175.21 81.74, 20.13 80.51 M20.13 80.51 C3.27 81.63, -1.02 77.39, 0 60.38 M20.13 80.51 C2.62 76.26, -2.62 70.71, 0 60.38 M0 60.38 C-2.39 44.1, 1.97 28.78, 0 20.13 M0 60.38 C1.63 46.63, 0.15 34.01, 0 20.13 M0 20.13 C-0.57 5.64, 5.26 3.54, 20.13 0 M0 20.13 C3.24 3.54, 9.13 3.4, 20.13 0" stroke="#1e1e1e" stroke-width="2" fill="none"></path></g><g transform="translate(743.3846221675431 28.973644542951092) rotate(0 65.89795684814453 22.5)"><text x="65.89795684814453" y="0" font-family="Virgil, Segoe UI Emoji" font-size="36px" fill="#1e1e1e" text-anchor="middle" style="white-space: pre;" direction="ltr" dominant-baseline="text-before-edge">Devices</text></g><g transform="translate(105.90785099188611 102.09593470547355) rotate(0 65.71797180175781 22.5)"><text x="0" y="0" font-family="Virgil, Segoe UI Emoji" font-size="36px" fill="#1e1e1e" text-anchor="start" style="white-space: pre;" direction="ltr" dominant-baseline="text-before-edge">48-bits</text></g><g transform="translate(412.232862211818 105.82189083668362) rotate(0 56.82597351074219 22.5)"><text x="0" y="0" font-family="Virgil, Segoe UI Emoji" font-size="36px" fill="#1e1e1e" text-anchor="start" style="white-space: pre;" direction="ltr" dominant-baseline="text-before-edge">16-bits</text></g><g transform="translate(743.7171397040036 104.60209623790405) rotate(0 63.46797180175781 22.5)"><text x="0" y="0" font-family="Virgil, Segoe UI Emoji" font-size="36px" fill="#1e1e1e" text-anchor="start" style="white-space: pre;" direction="ltr" dominant-baseline="text-before-edge">64-bits</text></g></svg>