<svg version="1.1" xmlns="http://www.w3.org/2000/svg" viewBox="0 0 511.21598921956956 207.943355159522" width="511.21598921956956" height="207.943355159522" filter="invert(93%) hue-rotate(180deg)">
  <!-- svg-source:excalidraw -->
  
  <defs>
    <style class="style-fonts">
      @font-face {
        font-family: "Virgil";
        src: url("https://excalidraw.com/Virgil.woff2");
      }
      @font-face {
        font-family: "Cascadia";
        src: url("https://excalidraw.com/Cascadia.woff2");
      }
    </style>
    
  </defs>
  <g stroke-linecap="round" transform="translate(101.71409390350755 10) rotate(0 135 27.5)"><path d="M13.75 0 M13.75 0 C98.5 1.4, 174.56 0.49, 256.25 0 M13.75 0 C83.53 -3.66, 156.82 -2.62, 256.25 0 M256.25 0 C267.95 2.61, 271.55 3.34, 270 13.75 M256.25 0 C266.51 2.69, 266.17 1.03, 270 13.75 M270 13.75 C269.86 23.11, 266.8 37.6, 270 41.25 M270 13.75 C270.91 20.14, 271.91 28.96, 270 41.25 M270 41.25 C270.83 52.21, 269.32 53.46, 256.25 55 M270 41.25 C271.12 47.68, 262.8 54.92, 256.25 55 M256.25 55 C168.3 54.36, 79.38 55.31, 13.75 55 M256.25 55 C198.84 52.56, 141.29 52.99, 13.75 55 M13.75 55 C3.22 53.54, 0.63 48.68, 0 41.25 M13.75 55 C3.6 52.96, -4.17 52.12, 0 41.25 M0 41.25 C-1.33 34.39, 1.33 27.7, 0 13.75 M0 41.25 C0.3 32.43, -1.33 25.13, 0 13.75 M0 13.75 C3.46 4.56, 5.12 -0.15, 13.75 0 M0 13.75 C4.41 2.48, 3.17 1.88, 13.75 0" stroke="#1e1e1e" stroke-width="2" fill="none"></path></g><g transform="translate(107.25813076874192 15) rotate(0 129.45596313476562 22.5)"><text x="129.45596313476562" y="0" font-family="Virgil, Segoe UI Emoji" font-size="36px" fill="#1e1e1e" text-anchor="middle" style="white-space: pre;" direction="ltr" dominant-baseline="text-before-edge">Network Types</text></g><g stroke-linecap="round" transform="translate(10 141.95715864514102) rotate(0 43 27.5)"><path d="M13.75 0 M13.75 0 C41.07 3.49, 62.29 -2.64, 72.25 0 M13.75 0 C36.15 0.16, 60.96 -3.01, 72.25 0 M72.25 0 C80.37 2.97, 87.71 7.03, 86 13.75 M72.25 0 C85.29 3.29, 84.43 0.4, 86 13.75 M86 13.75 C84.43 21.83, 89.71 27.61, 86 41.25 M86 13.75 C84.53 24.46, 87.17 33.69, 86 41.25 M86 41.25 C89.19 54.34, 83.96 52.23, 72.25 55 M86 41.25 C90.22 48.56, 84.61 51.45, 72.25 55 M72.25 55 C55.8 50.71, 46.44 57.66, 13.75 55 M72.25 55 C53.05 55.35, 33.56 53.16, 13.75 55 M13.75 55 C5.39 57.7, -0.31 47.07, 0 41.25 M13.75 55 C6.19 53.65, -1.88 47.39, 0 41.25 M0 41.25 C0.8 31.86, 0.11 24.26, 0 13.75 M0 41.25 C1.37 33.6, -0.09 26.54, 0 13.75 M0 13.75 C0.97 5.44, 1.99 -0.92, 13.75 0 M0 13.75 C2.42 1.26, 2.88 -1.18, 13.75 0" stroke="#1e1e1e" stroke-width="2" fill="none"></path></g><g transform="translate(18.818008422851562 146.95715864514102) rotate(0 34.18199157714844 22.5)"><text x="34.18199157714844" y="0" font-family="Virgil, Segoe UI Emoji" font-size="36px" fill="#1e1e1e" text-anchor="middle" style="white-space: pre;" direction="ltr" dominant-baseline="text-before-edge">LAN</text></g><g stroke-linecap="round" transform="translate(154.61957001757253 141.95715864514102) rotate(0 43 27.5)"><path d="M13.75 0 M13.75 0 C30.72 -1.06, 46.56 2.05, 72.25 0 M13.75 0 C31.72 -0.68, 53.45 0.36, 72.25 0 M72.25 0 C77.92 3.79, 87.05 1.69, 86 13.75 M72.25 0 C82.37 -0.44, 84.07 5.54, 86 13.75 M86 13.75 C83.28 20.85, 83.84 28.1, 86 41.25 M86 13.75 C87.24 19.89, 87.43 27.29, 86 41.25 M86 41.25 C86.45 49.45, 84.13 56.42, 72.25 55 M86 41.25 C89.08 51.22, 83.2 53.28, 72.25 55 M72.25 55 C50.98 53.81, 33.41 53.32, 13.75 55 M72.25 55 C51.88 53.51, 29.06 55.16, 13.75 55 M13.75 55 C2.18 55.9, -3.29 53.51, 0 41.25 M13.75 55 C9.08 56.84, -2.44 54.35, 0 41.25 M0 41.25 C3.07 31.65, -1.79 22.04, 0 13.75 M0 41.25 C-2.42 36.32, -1.96 26.71, 0 13.75 M0 13.75 C3.52 2.49, 1.53 -3.77, 13.75 0 M0 13.75 C-1.17 4.28, 5.26 -2.23, 13.75 0" stroke="#1e1e1e" stroke-width="2" fill="none"></path></g><g transform="translate(160.7915823466741 146.95715864514102) rotate(0 36.82798767089844 22.5)"><text x="36.82798767089844" y="0" font-family="Virgil, Segoe UI Emoji" font-size="36px" fill="#1e1e1e" text-anchor="middle" style="white-space: pre;" direction="ltr" dominant-baseline="text-before-edge">WAN</text></g><g stroke-linecap="round" transform="translate(285.2876174187953 141.95715864514102) rotate(0 43 27.5)"><path d="M13.75 0 M13.75 0 C36.99 -2.04, 55.03 2.31, 72.25 0 M13.75 0 C35.21 -2.56, 56.05 -1.3, 72.25 0 M72.25 0 C79.74 0.83, 83.24 2.22, 86 13.75 M72.25 0 C85.15 -2.76, 86.87 2.47, 86 13.75 M86 13.75 C85.58 26.15, 84.36 35.91, 86 41.25 M86 13.75 C87.42 22.58, 87.4 30.33, 86 41.25 M86 41.25 C87.55 48.92, 83.45 54.63, 72.25 55 M86 41.25 C87.21 49.56, 79.7 57.54, 72.25 55 M72.25 55 C58.77 55.76, 39.28 51.72, 13.75 55 M72.25 55 C53.59 56.81, 40.18 56.06, 13.75 55 M13.75 55 C2.46 58.42, -0.92 48.91, 0 41.25 M13.75 55 C2.75 58.29, -2.28 48.12, 0 41.25 M0 41.25 C-2.78 31.8, 4.19 27.2, 0 13.75 M0 41.25 C-2.01 32.14, -0.99 26.67, 0 13.75 M0 13.75 C0.59 2.64, 7.26 -0.49, 13.75 0 M0 13.75 C1.07 7.22, 7.41 -2.59, 13.75 0" stroke="#1e1e1e" stroke-width="2" fill="none"></path></g><g transform="translate(292.98962852719376 146.95715864514102) rotate(0 35.29798889160156 22.5)"><text x="35.29798889160156" y="0" font-family="Virgil, Segoe UI Emoji" font-size="36px" fill="#1e1e1e" text-anchor="middle" style="white-space: pre;" direction="ltr" dominant-baseline="text-before-edge">PAN</text></g><g stroke-linecap="round" transform="translate(415.21598921956956 142.943355159522) rotate(0 43 27.5)"><path d="M13.75 0 M13.75 0 C36.83 2.07, 49.42 1.85, 72.25 0 M13.75 0 C29.36 -1.42, 49.36 -1.44, 72.25 0 M72.25 0 C82.17 -1.84, 87.65 2.5, 86 13.75 M72.25 0 C79.17 -0.16, 89.47 3.03, 86 13.75 M86 13.75 C85.01 27.05, 87.39 37.59, 86 41.25 M86 13.75 C87.23 22.3, 86.74 30.84, 86 41.25 M86 41.25 C84.51 52.63, 79.43 57.22, 72.25 55 M86 41.25 C85.64 51.76, 82.4 50.78, 72.25 55 M72.25 55 C60.26 51.01, 49.58 58.2, 13.75 55 M72.25 55 C51.9 55.25, 31.68 57.43, 13.75 55 M13.75 55 C2.6 53, -3.98 48.45, 0 41.25 M13.75 55 C8.33 51.49, -4.53 54.93, 0 41.25 M0 41.25 C-1.88 32.03, -3.56 27.89, 0 13.75 M0 41.25 C1.26 32.94, 0.38 26.26, 0 13.75 M0 13.75 C2.46 2.33, 7.22 -2.38, 13.75 0 M0 13.75 C2.07 1.48, 2.29 3.55, 13.75 0" stroke="#1e1e1e" stroke-width="2" fill="none"></path></g><g transform="translate(421.02800093831956 147.943355159522) rotate(0 37.18798828125 22.5)"><text x="37.18798828125" y="0" font-family="Virgil, Segoe UI Emoji" font-size="36px" fill="#1e1e1e" text-anchor="middle" style="white-space: pre;" direction="ltr" dominant-baseline="text-before-edge">MAN</text></g><g stroke-linecap="round"><g transform="translate(238.79228697978033 64.23954803601538) rotate(0 -93.5144305836436 39.552127941249296)"><path d="M-2.69 -1.37 C-33.23 11.3, -155.65 63.99, -185.68 77.22 M1.05 4.06 C-29.67 17.04, -157.35 67.62, -188.07 80.48" stroke="#1e1e1e" stroke-width="2" fill="none"></path></g></g><mask></mask><g stroke-linecap="round"><g transform="translate(235.83373505618783 66.21188463545172) rotate(0 -23.544409594739214 38.50705674094823)"><path d="M1.69 -0.48 C-6.56 12.77, -41.04 63.85, -48.78 77.05 M-0.84 -3.2 C-8.31 10.67, -36.23 67.41, -43.69 80.22" stroke="#1e1e1e" stroke-width="2" fill="none"></path></g></g><mask></mask><g stroke-linecap="round"><g transform="translate(328.5341007131774 140.17494914403227) rotate(0 -44.06066463264411 -37.5391829236234)"><path d="M-1.24 1.65 C-15.78 -11.31, -74.46 -63.6, -89.71 -76.73 M3.28 0.09 C-11.31 -12.65, -76.35 -61.52, -91.4 -74.07" stroke="#1e1e1e" stroke-width="2" fill="none"></path></g></g><mask></mask><g stroke-linecap="round"><g transform="translate(453.7781613341808 141.16110803886284) rotate(0 -106.07040174631526 -38.92704260409408)"><path d="M0.44 -0.92 C-35.32 -12.69, -176.94 -60.59, -212.58 -73.33 M-2.77 -3.89 C-37.77 -16.13, -172.83 -65.08, -207.01 -76.93" stroke="#1e1e1e" stroke-width="2" fill="none"></path></g></g><mask></mask></svg>