<svg version="1.1" xmlns="http://www.w3.org/2000/svg" viewBox="0 0 412.0041422036685 233.52746880501599" width="412.0041422036685" height="233.52746880501599" filter="invert(93%) hue-rotate(180deg)">
  <!-- svg-source:excalidraw -->
  
  <defs>
    <style class="style-fonts">
      @font-face {
        font-family: "Virgil";
        src: url("https://excalidraw.com/Virgil.woff2");
      }
      @font-face {
        font-family: "Cascadia";
        src: url("https://excalidraw.com/Cascadia.woff2");
      }
    </style>
    
  </defs>
  <g stroke-linecap="round" transform="translate(143.87308261919748 10) rotate(0 45.85706576152904 27.5)"><path d="M13.75 0 M13.75 0 C34.89 -1.12, 55.26 2.77, 77.96 0 M13.75 0 C37.56 0.86, 58.36 -0.35, 77.96 0 M77.96 0 C83.36 -3.12, 94.03 5.24, 91.71 13.75 M77.96 0 C86.63 -1.26, 91.82 1.81, 91.71 13.75 M91.71 13.75 C88.69 25.3, 89.45 36.65, 91.71 41.25 M91.71 13.75 C89.97 20.34, 93.39 28.69, 91.71 41.25 M91.71 41.25 C94.06 52.64, 83.45 52.44, 77.96 55 M91.71 41.25 C95.94 49.75, 86.49 57.71, 77.96 55 M77.96 55 C60.46 52.8, 46.95 52.93, 13.75 55 M77.96 55 C57.67 56.91, 36.02 54.87, 13.75 55 M13.75 55 C7.99 58.77, -0.82 50.59, 0 41.25 M13.75 55 C0.61 50.46, -1.55 51.08, 0 41.25 M0 41.25 C-3.88 33.85, 3.82 19.12, 0 13.75 M0 41.25 C-1.8 35.57, 0.7 26.17, 0 13.75 M0 13.75 C-1.33 1.89, 5.07 -3.53, 13.75 0 M0 13.75 C4.39 2.81, 5.92 -2.05, 13.75 0" stroke="#1e1e1e" stroke-width="2" fill="none"></path></g><g transform="translate(166.24015814635152 15) rotate(0 23.489990234375 22.5)"><text x="23.489990234375" y="0" font-family="Virgil, Segoe UI Emoji" font-size="36px" fill="#1e1e1e" text-anchor="middle" style="white-space: pre;" direction="ltr" dominant-baseline="text-before-edge">PC</text></g><g stroke-linecap="round" transform="translate(310.2900106806104 168.52746880501599) rotate(0 45.85706576152904 27.5)"><path d="M13.75 0 M13.75 0 C36.38 4.38, 62.25 2.16, 77.96 0 M13.75 0 C31.9 1.33, 47.51 0.46, 77.96 0 M77.96 0 C87.22 -2.41, 95.38 0.97, 91.71 13.75 M77.96 0 C88.23 -2.91, 92.62 2.55, 91.71 13.75 M91.71 13.75 C92.7 19.03, 88.35 35.05, 91.71 41.25 M91.71 13.75 C90.19 18.51, 93.88 25.54, 91.71 41.25 M91.71 41.25 C91.16 52.78, 85.15 57.44, 77.96 55 M91.71 41.25 C92.22 48.78, 84.44 56.32, 77.96 55 M77.96 55 C63.25 54.5, 49.72 52.14, 13.75 55 M77.96 55 C59.74 56.3, 40.61 54.23, 13.75 55 M13.75 55 C3.23 55.58, 3.77 51.61, 0 41.25 M13.75 55 C5.26 50.72, 3.96 54.99, 0 41.25 M0 41.25 C0.98 29.79, 3.76 26.86, 0 13.75 M0 41.25 C0.43 31.39, 2.09 24.3, 0 13.75 M0 13.75 C1.16 2.8, 4.54 1.15, 13.75 0 M0 13.75 C2.03 4.49, 1.75 -1.01, 13.75 0" stroke="#1e1e1e" stroke-width="2" fill="none"></path></g><g transform="translate(332.65708620776445 173.52746880501593) rotate(0 23.489990234375 22.50000000000003)"><text x="23.489990234375" y="0" font-family="Virgil, Segoe UI Emoji" font-size="36px" fill="#1e1e1e" text-anchor="middle" style="white-space: pre;" direction="ltr" dominant-baseline="text-before-edge">PC</text></g><g stroke-linecap="round" transform="translate(10 163.10351964434693) rotate(0 45.85706576152904 27.5)"><path d="M13.75 0 M13.75 0 C32.44 3.53, 58.03 0.77, 77.96 0 M13.75 0 C33.09 -1.03, 49.25 -0.49, 77.96 0 M77.96 0 C87.92 -1.77, 93.07 4.62, 91.71 13.75 M77.96 0 C88.9 1.12, 87.22 0.71, 91.71 13.75 M91.71 13.75 C93.49 20.33, 88.71 37.95, 91.71 41.25 M91.71 13.75 C90.65 22.82, 91.86 28.74, 91.71 41.25 M91.71 41.25 C89.38 51.56, 84.92 55.75, 77.96 55 M91.71 41.25 C88.62 51.56, 87.55 58.66, 77.96 55 M77.96 55 C65.67 55.28, 46.03 52.64, 13.75 55 M77.96 55 C66.93 55.78, 52.42 53.33, 13.75 55 M13.75 55 C8.02 58.98, -0.45 49.3, 0 41.25 M13.75 55 C4.94 55.95, -4.05 54.57, 0 41.25 M0 41.25 C-2.66 32.46, -3.5 26.51, 0 13.75 M0 41.25 C-0.18 34.64, 0.72 26.83, 0 13.75 M0 13.75 C-2.46 3.71, 7.49 0.11, 13.75 0 M0 13.75 C-3.03 6.55, 4.1 1.11, 13.75 0" stroke="#1e1e1e" stroke-width="2" fill="none"></path></g><g transform="translate(32.36707552715404 168.10351964434693) rotate(0 23.489990234375 22.5)"><text x="23.489990234375" y="0" font-family="Virgil, Segoe UI Emoji" font-size="36px" fill="#1e1e1e" text-anchor="middle" style="white-space: pre;" direction="ltr" dominant-baseline="text-before-edge">PC</text></g><g stroke-linecap="round"><g transform="translate(190.71638251465788 65.3594214037933) rotate(0 78.50274397304698 50.03868521083638)"><path d="M-0.24 1.66 C26.73 18.07, 134.15 81.17, 160.83 97.85 M-3.82 0.09 C22.88 16.79, 131.75 83.87, 158.63 99.99" stroke="#1e1e1e" stroke-width="2" fill="none"></path></g></g><mask></mask><g stroke-linecap="round"><g transform="translate(185.78551280140414 66.3456179181743) rotate(0 -67.5219391317635 47.98179569117141)"><path d="M2.61 -1.1 C-20.09 15.96, -112.17 83.58, -135.31 100.13 M0.58 -4.17 C-22.59 12.27, -114.46 78.4, -137.65 95.95" stroke="#1e1e1e" stroke-width="2" fill="none"></path></g></g><mask></mask><g stroke-linecap="round"><g transform="translate(103.93312070485342 191.5897161587281) rotate(0 102.73234892020832 1.8255869427889024)"><path d="M2.73 -0.58 C36.87 -0.02, 171.16 2.91, 204.69 3.59 M0.77 -3.37 C34.51 -2.38, 168.77 5.4, 202.22 7.02" stroke="#1e1e1e" stroke-width="2" fill="none"></path></g></g><mask></mask></svg>