<svg version="1.1" xmlns="http://www.w3.org/2000/svg" viewBox="0 0 1402.0738029925592 131.25112367072398" width="1402.0738029925592" height="131.25112367072398" filter="invert(93%) hue-rotate(180deg)">
  <!-- svg-source:excalidraw -->
  
  <defs>
    <style class="style-fonts">
      @font-face {
        font-family: "Virgil";
        src: url("https://excalidraw.com/Virgil.woff2");
      }
      @font-face {
        font-family: "Cascadia";
        src: url("https://excalidraw.com/Cascadia.woff2");
      }
    </style>
    
  </defs>
  <g stroke-linecap="round"><g transform="translate(11.399750239104037 68.33003191957079) rotate(0 151.99143169394767 -1.816824701986178)"><path d="M1.33 -0.05 C52.58 -0.33, 254.87 -3.43, 305.38 -3.58 M-1.4 -2.54 C49.83 -2.27, 253.31 -0.05, 304.04 -0.58" stroke="#1e1e1e" stroke-width="2" fill="none"></path></g></g><mask></mask><g stroke-linecap="round"><g transform="translate(359.53173532249093 61.674499404513426) rotate(0 311.70511012089474 1.1792774845513918)"><path d="M-0.76 2.72 C103.52 3, 519.75 -0.49, 624.17 -0.38 M4.02 1.73 C108.03 2.53, 518.29 2.83, 621.73 2.39" stroke="#1e1e1e" stroke-width="2" fill="none"></path></g></g><mask></mask><g stroke-linecap="round"><g transform="translate(1034.3933574432344 60.482577682989245) rotate(0 176.86982863216872 0.7078788159631415)"><path d="M-0.32 2.31 C58.16 1.74, 293.05 -0.83, 352.15 -1.22 M-3.94 1.09 C55.35 0.8, 298.24 3.41, 357.68 2.41" stroke="#1e1e1e" stroke-width="2" fill="none"></path></g></g><mask></mask><g transform="translate(21.920583350985567 75.03132907194441) rotate(0 12.383995056152344 22.5)"><text x="0" y="0" font-family="Virgil, Segoe UI Emoji" font-size="36px" fill="#e03131" text-anchor="start" style="white-space: pre;" direction="ltr" dominant-baseline="text-before-edge">0</text></g><g transform="translate(226.23938936706384 76.25112367072398) rotate(0 42.33598327636719 22.5)"><text x="0" y="0" font-family="Virgil, Segoe UI Emoji" font-size="36px" fill="#e03131" text-anchor="start" style="white-space: pre;" direction="ltr" dominant-baseline="text-before-edge">1023</text></g><g transform="translate(361.33366533178184 72.59173987438527) rotate(0 41.597984313964844 22.5)"><text x="0" y="0" font-family="Virgil, Segoe UI Emoji" font-size="36px" fill="#2f9e44" text-anchor="start" style="white-space: pre;" direction="ltr" dominant-baseline="text-before-edge">1024</text></g><g transform="translate(877.9245418535464 71.37189874342454) rotate(0 47.98798370361328 22.5)"><text x="0" y="0" font-family="Virgil, Segoe UI Emoji" font-size="36px" fill="#2f9e44" text-anchor="start" style="white-space: pre;" direction="ltr" dominant-baseline="text-before-edge">49,151</text></g><g transform="translate(1041.6844096792147 71.3719452756057) rotate(0 55.92597961425781 22.5)"><text x="0" y="0" font-family="Virgil, Segoe UI Emoji" font-size="36px" fill="#1971c2" text-anchor="start" style="white-space: pre;" direction="ltr" dominant-baseline="text-before-edge">49,152</text></g><g transform="translate(1266.1301523004245 73.20163717377505) rotate(0 61.775970458984375 22.5)"><text x="0" y="0" font-family="Virgil, Segoe UI Emoji" font-size="36px" fill="#1971c2" text-anchor="start" style="white-space: pre;" direction="ltr" dominant-baseline="text-before-edge">65,535</text></g><g transform="translate(78.56569659282184 14.879364523843037) rotate(0 86.65196228027344 22.5)"><text x="0" y="0" font-family="Virgil, Segoe UI Emoji" font-size="36px" fill="#e03131" text-anchor="start" style="white-space: pre;" direction="ltr" dominant-baseline="text-before-edge">Well-known</text></g><g transform="translate(576.5544030240204 11.21984113096073) rotate(0 92.6279525756836 22.5)"><text x="0" y="0" font-family="Virgil, Segoe UI Emoji" font-size="36px" fill="#2f9e44" text-anchor="start" style="white-space: pre;" direction="ltr" dominant-baseline="text-before-edge">Registered</text></g><g transform="translate(1151.3914720794046 10) rotate(0 67.2659683227539 22.5)"><text x="0" y="0" font-family="Virgil, Segoe UI Emoji" font-size="36px" fill="#1971c2" text-anchor="start" style="white-space: pre;" direction="ltr" dominant-baseline="text-before-edge">Dynamic</text></g></svg>