<svg version="1.1" xmlns="http://www.w3.org/2000/svg" viewBox="0 0 781.7080727489233 725.4085424052626" width="781.7080727489233" height="725.4085424052626" filter="invert(93%) hue-rotate(180deg)">
  <!-- svg-source:excalidraw -->
  
  <defs>
    <style class="style-fonts">
      @font-face {
        font-family: "Virgil";
        src: url("https://excalidraw.com/Virgil.woff2");
      }
      @font-face {
        font-family: "Cascadia";
        src: url("https://excalidraw.com/Cascadia.woff2");
      }
    </style>
    
  </defs>
  <g stroke-linecap="round" transform="translate(225.953904106141 499.4050014099218) rotate(0 33.49478025456827 35.46506144601352)"><path d="M0.75 -1.52 C17.95 -1.59, 35.3 -1.16, 65.59 1.21 M-0.71 0.51 C18.08 -1.6, 35.46 0.37, 67.27 0.12 M65.43 1.95 C68.23 22.45, 66.74 40.89, 65.64 71.66 M66.75 0.82 C66.86 17.8, 66.46 35.85, 67.81 71.37 M67.98 70.22 C50.64 72.25, 37.28 70.85, 1.4 69.74 M67.58 71.11 C51.01 71.19, 35.22 71.13, 0.14 70.61 M0.68 68.98 C1.33 46.09, 1.23 19.8, 0.53 -1.5 M0.27 71.43 C-0.74 50.96, -0.7 30.58, -0.18 -0.84" stroke="#000000" stroke-width="4" fill="none"></path></g><g transform="translate(254.57068600865853 512.3700628559352) rotate(0 4.877998352050781 22.5)"><text x="4.877998352050781" y="0" font-family="Virgil, Segoe UI Emoji" font-size="36px" fill="#1e1e1e" text-anchor="middle" style="white-space: pre;" direction="ltr" dominant-baseline="text-before-edge">1</text></g><g stroke-linecap="round" transform="translate(292.9434646152939 499.4050014099218) rotate(0 33.49478025456827 35.46506144601352)"><path d="M0.1 -1.45 C21.12 -0.51, 41.62 1.72, 66.43 -0.53 M-0.15 -0.99 C25.25 0.64, 52.76 -0.22, 66.96 0.41 M67.94 1.38 C65.9 20.28, 65.08 43.82, 65.99 69.06 M67.53 0.08 C66.95 18.3, 67.64 36.22, 66.29 70.38 M66.06 72.56 C51.15 70.92, 34.49 69.51, -1.23 71.36 M67 71.57 C50.91 71.63, 34.53 70.73, 0.7 71.58 M1.78 72.37 C1.45 52.59, 0.29 29.91, -0.27 -0.26 M-0.83 71.29 C-0.98 48.92, -0.37 25.48, 0.08 -0.79" stroke="#000000" stroke-width="4" fill="none"></path></g><g transform="translate(321.5602465178114 512.3700628559352) rotate(0 4.877998352050781 22.5)"><text x="4.877998352050781" y="0" font-family="Virgil, Segoe UI Emoji" font-size="36px" fill="#1e1e1e" text-anchor="middle" style="white-space: pre;" direction="ltr" dominant-baseline="text-before-edge">1</text></g><g stroke-linecap="round" transform="translate(225.953904106141 570.7422553773306) rotate(0 33.49478025456827 35.46506144601352)"><path d="M1.83 -1.41 C25.15 -0.12, 46.31 -1.81, 68.95 0.56 M0.04 -0.78 C21.88 0.2, 42.49 -0.54, 66.36 -0.68 M66.03 -0.48 C68.27 24.93, 66.79 47.99, 67.81 72.58 M66.52 0.49 C66.14 23.95, 67.31 49.39, 67.11 71.63 M65.85 72.11 C51.23 71.09, 36.02 71.51, 1.16 71.2 M66.78 71.27 C48.06 72.26, 31.8 72.21, 0.71 71.19 M0.29 71.46 C1.1 53.3, 0.81 37.41, 0.58 -0.36 M-0.38 70.17 C-0.6 55.32, 0.86 40.08, 0.48 0.56" stroke="#000000" stroke-width="4" fill="none"></path></g><g transform="translate(254.57068600865853 583.707316823344) rotate(0 4.877998352050781 22.5)"><text x="4.877998352050781" y="0" font-family="Virgil, Segoe UI Emoji" font-size="36px" fill="#1e1e1e" text-anchor="middle" style="white-space: pre;" direction="ltr" dominant-baseline="text-before-edge">1</text></g><g stroke-linecap="round" transform="translate(292.9434646152939 570.7422553773306) rotate(0 33.49478025456827 35.46506144601352)"><path d="M1.01 -0.3 C16.34 -1.51, 38.6 1.04, 67.23 -0.06 M0.98 0.48 C23.5 0.25, 45 -0.15, 67.35 -0.5 M68.62 1.07 C66.81 14.9, 67.47 30.91, 67.87 69.53 M66.64 -0.47 C67.47 17.93, 66.77 35.46, 66.4 70.32 M67.36 70.95 C46.75 71.77, 25.1 71.6, -0.64 72.34 M66.01 71.82 C43.28 72, 18.84 71.42, -0.75 70.8 M1 69.26 C0.61 48.98, 0.48 29.84, -1.69 0.17 M-0.54 70.61 C1.19 54.98, 0.75 40.09, 0.64 0.25" stroke="#000000" stroke-width="4" fill="none"></path></g><g transform="translate(314.0542498137098 583.707316823344) rotate(0 12.383995056152344 22.5)"><text x="12.383995056152344" y="0" font-family="Virgil, Segoe UI Emoji" font-size="36px" fill="#1e1e1e" text-anchor="middle" style="white-space: pre;" direction="ltr" dominant-baseline="text-before-edge">0</text></g><g stroke-linecap="round" transform="translate(360.02332967906364 570.7422553773306) rotate(0 33.49478025456827 35.46506144601352)"><path d="M-1.98 -1.99 C17.32 0.66, 30.96 0.04, 67.8 0.08 M0.69 -0.27 C14.25 -0.99, 30.12 -0.82, 66.05 -0.48 M67.15 0.26 C68.39 21.23, 68.45 37.75, 65.89 69.99 M67.81 0.56 C66.85 25.48, 66.15 48.95, 67.2 70.36 M68.27 71.37 C44.09 71.21, 18.23 72.35, 1.29 70.5 M67.71 71.78 C45.33 71.79, 21.51 71.39, -0.13 71.07 M0.71 69.35 C0.23 47.4, -2.04 24.76, -1.57 -0.75 M0.92 70.68 C0.86 55.57, 1.02 39.35, 0.82 -0.88" stroke="#000000" stroke-width="4" fill="none"></path></g><g transform="translate(381.13411487747953 583.707316823344) rotate(0 12.383995056152344 22.5)"><text x="12.383995056152344" y="0" font-family="Virgil, Segoe UI Emoji" font-size="36px" fill="#1e1e1e" text-anchor="middle" style="white-space: pre;" direction="ltr" dominant-baseline="text-before-edge">0</text></g><g stroke-linecap="round" transform="translate(427.01289018817437 570.7422553773306) rotate(0 33.49478025456827 35.46506144601352)"><path d="M1.96 0.56 C19.32 0.61, 38.98 0.74, 65.43 1.95 M-0.63 -0.68 C23.64 -0.32, 45.62 -0.3, 66.75 0.82 M67.81 1.65 C67.93 23.68, 65.95 49.22, 67.98 70.22 M67.11 0.7 C66.98 17.36, 67.78 35.37, 67.58 71.11 M68.15 71.2 C46.19 72.49, 27.97 70.65, 0.68 68.98 M67.7 71.19 C40.17 71.36, 14.71 71.64, 0.27 71.43 M0.58 70.57 C-1.94 55.74, -1.83 39.45, -1.51 -1.07 M0.48 71.49 C-0.02 52.14, 0.17 31.97, 0.24 0.74" stroke="#000000" stroke-width="4" fill="none"></path></g><g transform="translate(448.1236753865903 583.707316823344) rotate(0 12.383995056152344 22.5)"><text x="12.383995056152344" y="0" font-family="Virgil, Segoe UI Emoji" font-size="36px" fill="#1e1e1e" text-anchor="middle" style="white-space: pre;" direction="ltr" dominant-baseline="text-before-edge">0</text></g><g stroke-linecap="round" transform="translate(494.6592110944683 570.7422553773306) rotate(0 33.49478025456827 35.46506144601352)"><path d="M0.24 -0.06 C14.26 -0.11, 25.33 1.76, 67.94 1.38 M0.36 -0.5 C17.35 -0.02, 36.33 1.27, 67.53 0.08 M67.87 -1.4 C66.18 21.28, 68.27 43.73, 66.06 72.56 M66.4 -0.61 C67.28 24.66, 67.66 50.63, 67 71.57 M66.35 72.34 C46.72 70.59, 24.53 69.07, 1.78 72.37 M66.24 70.8 C41.1 71.25, 15.73 71.61, -0.83 71.29 M-1.69 71.1 C-1.78 54.51, -1.72 38.52, -0.63 1.85 M0.64 71.18 C0.48 50.54, -0.1 32.67, 0.75 -0.9" stroke="#000000" stroke-width="4" fill="none"></path></g><g transform="translate(515.7699962928842 583.707316823344) rotate(0 12.383995056152344 22.5)"><text x="12.383995056152344" y="0" font-family="Virgil, Segoe UI Emoji" font-size="36px" fill="#1e1e1e" text-anchor="middle" style="white-space: pre;" direction="ltr" dominant-baseline="text-before-edge">0</text></g><g transform="translate(237.58830643077158 14.461575748370734) rotate(0 25.957786560058594 18.975709555331292)"><text x="0" y="0" font-family="Virgil, Segoe UI Emoji" font-size="29.70443870922135px" fill="#000000" text-anchor="start" style="white-space: pre;" direction="ltr" dominant-baseline="text-before-edge">128</text></g><g transform="translate(311.4150092979487 15.176933217867116) rotate(0 19.00799560546875 18.975709555331292)"><text x="0" y="0" font-family="Virgil, Segoe UI Emoji" font-size="29.70443870922135px" fill="#000000" text-anchor="start" style="white-space: pre;" direction="ltr" dominant-baseline="text-before-edge">64</text></g><g transform="translate(374.72556392569555 16.071524547707412) rotate(0 20.68604278564453 18.975709555331292)"><text x="0" y="0" font-family="Virgil, Segoe UI Emoji" font-size="29.704438709221403px" fill="#000000" text-anchor="start" style="white-space: pre;" direction="ltr" dominant-baseline="text-before-edge">32</text></g><g transform="translate(451.8629334229478 16.96613294045821) rotate(0 13.528343200683594 18.975709555331292)"><text x="0" y="0" font-family="Virgil, Segoe UI Emoji" font-size="29.70443870922134px" fill="#000000" text-anchor="start" style="white-space: pre;" direction="ltr" dominant-baseline="text-before-edge">16</text></g><g transform="translate(522.8075517240211 13.387750558186411) rotate(0 11.360244750976562 18.975709555331306)"><text x="0" y="0" font-family="Virgil, Segoe UI Emoji" font-size="29.704438709221318px" fill="#000000" text-anchor="start" style="white-space: pre;" direction="ltr" dominant-baseline="text-before-edge">8</text></g><g stroke-linecap="round" transform="translate(566.6749867363125 571.8437939836876) rotate(0 33.49478025456827 35.465061446013465)"><path d="M-0.01 -1.86 C24.41 -1.9, 50.55 -0.74, 66.23 0.48 M0.88 -0.65 C22.85 -0.06, 44.85 0.85, 66.91 -0.24 M67.66 -1.25 C66.65 23.14, 64.99 42.74, 65.64 70.35 M67.4 -0.53 C68.25 20.54, 68.24 42.4, 66.23 70.84 M66.6 71.29 C44.46 68.94, 23.27 68.93, 1.44 69.57 M67.38 71.67 C51.43 70.18, 36.1 69.72, 0.77 71.14 M-0.1 72.43 C-1.71 52.34, 0.96 28.87, 1.68 -1.2 M0.06 70.26 C-0.34 49.42, -0.74 27, -0.55 -0.42" stroke="#000000" stroke-width="4" fill="none"></path></g><g transform="translate(587.7857719347284 584.8088554297012) rotate(0 12.383995056152344 22.5)"><text x="12.383995056152344" y="0" font-family="Virgil, Segoe UI Emoji" font-size="36px" fill="#1e1e1e" text-anchor="middle" style="white-space: pre;" direction="ltr" dominant-baseline="text-before-edge">0</text></g><g transform="translate(594.8233273658653 14.489289164543578) rotate(0 9.503997802734375 18.975709555331306)"><text x="0" y="0" font-family="Virgil, Segoe UI Emoji" font-size="29.704438709221318px" fill="#000000" text-anchor="start" style="white-space: pre;" direction="ltr" dominant-baseline="text-before-edge">4</text></g><g stroke-linecap="round" transform="translate(633.3217592713958 569.8308995056329) rotate(0 33.49478025456827 35.465061446013465)"><path d="M-0.1 -0.73 C17.99 0.69, 38.25 -1.69, 66.94 1.64 M0.43 -0.85 C15.63 -0.08, 33.32 -0.36, 67.12 -0.58 M68.25 1.56 C67.84 22.4, 68.45 43.3, 65.78 70.44 M67.19 0.58 C67.32 18.04, 67.51 36.4, 66.1 70.3 M66.93 70.05 C44.52 70.92, 26.84 71.43, -1.69 71.88 M67.25 71.36 C40.54 71.24, 13.5 70.02, -0.78 70.53 M-0.58 71.35 C-2.32 52.01, 1.19 36.37, 0.62 0.69 M-0.82 70.37 C-1.16 55.24, -0.29 41.15, -0.47 0.91" stroke="#000000" stroke-width="4" fill="none"></path></g><g transform="translate(654.4325444698117 582.7959609516465) rotate(0 12.383995056152344 22.5)"><text x="12.383995056152344" y="0" font-family="Virgil, Segoe UI Emoji" font-size="36px" fill="#1e1e1e" text-anchor="middle" style="white-space: pre;" direction="ltr" dominant-baseline="text-before-edge">0</text></g><g transform="translate(661.4700999009486 12.476394686488987) rotate(0 10.573196411132812 18.9757095553313)"><text x="0" y="0" font-family="Virgil, Segoe UI Emoji" font-size="29.704438709221318px" fill="#000000" text-anchor="start" style="white-space: pre;" direction="ltr" dominant-baseline="text-before-edge">2</text></g><g stroke-linecap="round" transform="translate(703.7705577554837 570.9491685280266) rotate(0 33.49478025456827 35.465061446013465)"><path d="M-0.38 1.57 C16.32 2.16, 35.64 1.55, 68.18 1.73 M-0.81 -0.55 C18.44 -1.32, 36.61 -0.26, 66.58 -0.22 M65.02 1.08 C66.19 21.61, 66.77 45.89, 68.61 72.28 M67.91 0.04 C66.28 17.28, 67.1 34.19, 66.8 71.59 M66.58 70.19 C44.49 69.62, 19.51 69.82, 1.94 72.23 M66.24 70.77 C54.08 71.17, 39.81 72.32, -0.41 70.5 M2 68.98 C-2.5 44.1, -2.44 17.12, -1.17 1.63 M-0.88 71.28 C-0.31 54.61, -0.89 36.89, -0.45 0.75" stroke="#000000" stroke-width="4" fill="none"></path></g><g transform="translate(724.8813429538995 583.9142299740402) rotate(0 12.383995056152344 22.5)"><text x="12.383995056152344" y="0" font-family="Virgil, Segoe UI Emoji" font-size="36px" fill="#1e1e1e" text-anchor="middle" style="white-space: pre;" direction="ltr" dominant-baseline="text-before-edge">0</text></g><g transform="translate(731.9188983850364 13.59466370888245) rotate(0 4.024345397949219 18.975709555331306)"><text x="0" y="0" font-family="Virgil, Segoe UI Emoji" font-size="29.704438709221318px" fill="#000000" text-anchor="start" style="white-space: pre;" direction="ltr" dominant-baseline="text-before-edge">1</text></g><g stroke-linecap="round" transform="translate(358.79426362977085 498.60301054654207) rotate(0 33.49478025456827 35.465061446013465)"><path d="M-0.16 1.67 C24.88 -0.98, 47.03 -0.22, 65.98 1.22 M0.24 0.4 C20.73 -1.16, 42.91 -0.15, 66.23 0.28 M64.99 -0.27 C67.29 26.56, 65.94 48.75, 65.65 70.69 M66 -0.47 C68.45 28.01, 67.97 56.26, 66.76 71.17 M66.14 72.07 C44.29 69.7, 21.99 71.64, 1.35 68.95 M67.74 71.27 C40.29 70.57, 14.04 70.63, -0.12 70.51 M0.57 70.23 C-1.03 45.95, 0.71 19.34, -1.52 0.18 M0.25 70.9 C0.73 50.36, 1.32 30.13, -0.86 -0.75" stroke="#000000" stroke-width="4" fill="none"></path></g><g transform="translate(379.90504882818675 511.56807199255553) rotate(0 12.383995056152344 22.5)"><text x="12.383995056152344" y="0" font-family="Virgil, Segoe UI Emoji" font-size="36px" fill="#1e1e1e" text-anchor="middle" style="white-space: pre;" direction="ltr" dominant-baseline="text-before-edge">0</text></g><g stroke-linecap="round" transform="translate(425.78382413888164 498.60301054654207) rotate(0 33.49478025456827 35.465061446013465)"><path d="M-1.25 0.34 C24.68 1.36, 51.75 1.69, 68.88 0.48 M0.19 0.48 C22.02 0.63, 46.06 -0.29, 67.24 -1 M66.39 -1.14 C65.92 20.09, 69.05 42.59, 67.87 68.95 M67.29 0.98 C67.31 18.18, 67.95 34.95, 66.36 70.5 M67.69 72.06 C44.42 68.68, 21.13 72.15, 0.01 72.43 M67.49 70.63 C44.49 70.27, 22.76 71.47, 0.35 71.22 M1.26 69.42 C-1.35 52.3, 0.05 31.84, 0.51 0.5 M0.8 71.85 C-1.01 49.1, 0.45 28.19, -0.3 -0.5" stroke="#000000" stroke-width="4" fill="none"></path></g><g transform="translate(446.89460933729754 511.56807199255553) rotate(0 12.383995056152344 22.5)"><text x="12.383995056152344" y="0" font-family="Virgil, Segoe UI Emoji" font-size="36px" fill="#1e1e1e" text-anchor="middle" style="white-space: pre;" direction="ltr" dominant-baseline="text-before-edge">0</text></g><g stroke-linecap="round" transform="translate(493.43014504517555 498.60301054654207) rotate(0 33.49478025456827 35.465061446013465)"><path d="M0.38 1.55 C23.12 0.07, 43.27 -1.67, 65.94 0.37 M0.52 -0.64 C23.6 -1.19, 46.56 0.19, 67.8 -0.3 M68.78 1.92 C67.4 15.25, 65.57 36.01, 67.74 71.53 M67.4 -0.92 C66.2 27.82, 67.4 56.57, 66.59 71.28 M68.97 72.42 C43.11 71.76, 19.9 70.32, -0.72 71.94 M67.52 71.71 C49.29 70.94, 30.54 70.41, 0.03 71.56 M-0.12 69.45 C1.05 55.49, 0.49 39.45, 0.58 1.6 M0.59 70.35 C0.31 42.61, -0.35 15.84, 0.09 -0.18" stroke="#000000" stroke-width="4" fill="none"></path></g><g transform="translate(514.5409302435914 511.56807199255553) rotate(0 12.383995056152344 22.5)"><text x="12.383995056152344" y="0" font-family="Virgil, Segoe UI Emoji" font-size="36px" fill="#1e1e1e" text-anchor="middle" style="white-space: pre;" direction="ltr" dominant-baseline="text-before-edge">0</text></g><g stroke-linecap="round" transform="translate(565.4459206870197 499.70454915289935) rotate(0 33.49478025456827 35.465061446013465)"><path d="M0.8 -1.26 C24.22 0.21, 51.52 -1.67, 67.55 1.03 M-0.13 0.38 C16.62 0.37, 31.05 0, 66.87 0.9 M66.05 1.56 C68.06 28.68, 69.27 55.71, 67.47 71.75 M67.56 0.08 C66.14 15.1, 67.11 30.18, 66 71.92 M67.67 70.98 C41.17 72.44, 16.18 71.2, -0.83 71.99 M66.64 70.69 C41.7 71.75, 15.6 70.36, 0.09 70.87 M-0.06 71.34 C0.39 56.49, 1.66 37.12, -1.5 1.19 M-0.96 71.48 C0.3 53.55, 0.32 36.35, -0.95 -0.56" stroke="#000000" stroke-width="4" fill="none"></path></g><g transform="translate(586.5567058854356 512.6696105989129) rotate(0 12.383995056152344 22.5)"><text x="12.383995056152344" y="0" font-family="Virgil, Segoe UI Emoji" font-size="36px" fill="#1e1e1e" text-anchor="middle" style="white-space: pre;" direction="ltr" dominant-baseline="text-before-edge">0</text></g><g stroke-linecap="round" transform="translate(632.092693222103 497.69165467484464) rotate(0 33.49478025456827 35.465061446013465)"><path d="M0.97 -1.51 C16.43 0.91, 30.46 0.38, 64.99 -0.27 M-0.57 -0.67 C22.51 1.1, 46.23 0.64, 66 -0.47 M68.95 -0.46 C67.74 27.62, 65.42 52.34, 66.14 72.07 M67.56 0.68 C65.71 22.83, 67.45 43.68, 67.74 71.27 M66.38 70.69 C45.88 72.33, 27.99 71.97, 0.57 70.23 M66.24 70.17 C48.59 71.29, 29.27 71.61, 0.25 70.9 M1.84 69.21 C-1.7 49.4, -1.36 24.9, -1.01 -1.92 M0.11 70.74 C-1.01 45.19, 0.29 19.71, -0.09 0.02" stroke="#000000" stroke-width="4" fill="none"></path></g><g transform="translate(653.2034784205189 510.6567161208581) rotate(0 12.383995056152344 22.5)"><text x="12.383995056152344" y="0" font-family="Virgil, Segoe UI Emoji" font-size="36px" fill="#1e1e1e" text-anchor="middle" style="white-space: pre;" direction="ltr" dominant-baseline="text-before-edge">0</text></g><g stroke-linecap="round" transform="translate(702.5414917061909 498.8099236972383) rotate(0 33.49478025456827 35.465061446013465)"><path d="M-1.28 0.51 C13.04 -0.61, 30.84 1.27, 66.39 -1.14 M0.96 0.44 C14.62 -1.07, 31.99 -0.22, 67.29 0.98 M65.15 -1.26 C66.31 20.77, 67.32 38.45, 67.69 72.06 M67.74 0.01 C67.04 26.42, 66.31 51.79, 67.49 70.63 M68.55 71.63 C48.26 70.59, 27.89 71.35, 1.26 69.42 M66.25 71.19 C52.24 70.86, 37.2 71.18, 0.8 71.85 M-1.15 70.33 C-0.47 53.84, 1.63 40.77, -0.37 0.23 M0.36 70.08 C0.58 51.03, 1.54 32.03, 0.55 -0.32" stroke="#000000" stroke-width="4" fill="none"></path></g><g transform="translate(723.6522769046068 511.77498514325174) rotate(0 12.383995056152344 22.5)"><text x="12.383995056152344" y="0" font-family="Virgil, Segoe UI Emoji" font-size="36px" fill="#1e1e1e" text-anchor="middle" style="white-space: pre;" direction="ltr" dominant-baseline="text-before-edge">0</text></g><g stroke-linecap="round" transform="translate(225.05626119230197 431.63995985244463) rotate(0 33.49478025456827 35.46506144601352)"><path d="M-0.25 0.63 C23.83 0.67, 48.81 1.39, 67.62 0.25 M-0.33 0.47 C23.17 -0.55, 44.32 0.84, 66.72 -0.56 M65.38 1.03 C65.36 15.62, 66.07 30.99, 65.88 70.22 M66.03 -0.19 C65.43 23.97, 67.1 49.79, 67.32 71.72 M65.14 70.38 C48.67 71.26, 29.87 72.03, -1.65 71.47 M67.01 70.26 C42.17 71.26, 19.92 70.65, -0.54 71.71 M0.17 69.23 C0.8 54.3, 0.81 34.35, -0.97 0.43 M-0.71 71.78 C-0.24 45.81, 1.07 21.5, 0.16 -0.57" stroke="#000000" stroke-width="4" fill="none"></path></g><g transform="translate(253.6730430948195 444.6050212984581) rotate(0 4.877998352050781 22.5)"><text x="4.877998352050781" y="0" font-family="Virgil, Segoe UI Emoji" font-size="36px" fill="#1e1e1e" text-anchor="middle" style="white-space: pre;" direction="ltr" dominant-baseline="text-before-edge">1</text></g><g stroke-linecap="round" transform="translate(292.0458217014549 431.63995985244463) rotate(0 33.49478025456827 35.46506144601352)"><path d="M-0.91 0.86 C22.82 0.21, 45.07 -0.92, 66.13 -0.66 M-0.46 0.55 C22.94 0, 45.59 0.22, 67.58 -0.8 M66.31 0.25 C65.39 24.22, 67.5 48.04, 67.89 69.01 M67.74 0.14 C66.68 20.73, 66.13 40.36, 66.61 70 M67.27 72.29 C47.1 71.67, 31.62 69.84, -0.58 70.98 M67.58 70.85 C50.82 72.06, 35.3 71.47, -0.91 71.01 M0.94 70.97 C-1.3 56.13, 0.51 39.43, 1.06 -1.41 M0.7 70.04 C0.59 43.06, 0.06 17.32, 0.76 -0.1" stroke="#000000" stroke-width="4" fill="none"></path></g><g transform="translate(320.66260360397234 444.6050212984581) rotate(0 4.877998352050781 22.5)"><text x="4.877998352050781" y="0" font-family="Virgil, Segoe UI Emoji" font-size="36px" fill="#1e1e1e" text-anchor="middle" style="white-space: pre;" direction="ltr" dominant-baseline="text-before-edge">1</text></g><g stroke-linecap="round" transform="translate(357.8966207159318 430.837968989065) rotate(0 33.49478025456827 35.46506144601352)"><path d="M0.68 -0.88 C22.1 -0.75, 46.86 1.49, 65.3 -0.91 M-0.83 -0.34 C24.35 -0.43, 48.03 -0.31, 67.11 -0.34 M67.99 -1.81 C67.49 20.23, 66.22 42.48, 65.27 72.44 M66.78 0.46 C66.85 21.35, 66.95 44.73, 67.28 71.07 M68.1 69.64 C41.76 71.16, 16.35 69.13, 1.05 72.12 M66.57 71.12 C46.55 71.54, 27.08 71.92, 0.84 71.4 M0.84 69.9 C1.41 48.1, 2.04 26.88, -1.71 1.4 M-0.37 71.91 C0.65 55.89, -0.27 41.76, 0.73 -0.51" stroke="#000000" stroke-width="4" fill="none"></path></g><g transform="translate(386.5134026184493 443.8030304350785) rotate(0 4.877998352050781 22.5)"><text x="4.877998352050781" y="0" font-family="Virgil, Segoe UI Emoji" font-size="36px" fill="#1e1e1e" text-anchor="middle" style="white-space: pre;" direction="ltr" dominant-baseline="text-before-edge">1</text></g><g stroke-linecap="round" transform="translate(424.88618122504255 430.837968989065) rotate(0 33.49478025456827 35.46506144601352)"><path d="M0.93 1.57 C15.48 -0.69, 35.42 -0.32, 65.86 -1.67 M0.51 -0.69 C17.93 0.2, 35.74 -0.02, 66.63 0.5 M66.61 -1.82 C65.59 16.35, 67.59 30.36, 68.56 70.51 M66.71 0.19 C67.01 24.68, 67.4 48.26, 67.26 71.49 M65.66 68.95 C52.25 72.13, 35.24 69.87, 1.57 70.09 M66.14 71.4 C46.49 71.46, 24.33 70.5, 0.22 71.35 M1.7 69.72 C-2.08 54.7, -2.17 36, -1.14 -0.73 M-0.15 71.64 C0.19 42.16, -0.88 15.36, 0.17 -0.41" stroke="#000000" stroke-width="4" fill="none"></path></g><g transform="translate(445.9969664234585 443.8030304350785) rotate(0 12.383995056152344 22.5)"><text x="12.383995056152344" y="0" font-family="Virgil, Segoe UI Emoji" font-size="36px" fill="#1e1e1e" text-anchor="middle" style="white-space: pre;" direction="ltr" dominant-baseline="text-before-edge">0</text></g><g stroke-linecap="round" transform="translate(492.53250213133646 430.837968989065) rotate(0 33.49478025456827 35.46506144601352)"><path d="M1.09 -0.54 C24.23 -1.36, 50.04 1.48, 65.38 1.03 M0.12 -0.56 C15.11 0.73, 30.03 0.67, 66.03 -0.19 M67.27 0.67 C67.95 14.4, 67.3 28.86, 65.14 70.38 M67.67 -0.83 C67.47 23.16, 66.55 44.92, 67.01 70.26 M66.82 69.85 C55.09 70.49, 40.42 69.5, 0.17 69.23 M67.01 70.45 C43.98 71.67, 20.03 71.78, -0.71 71.78 M-1.79 71.25 C-0.53 53.21, 2.57 38.48, -0.21 -0.31 M-0.34 71.88 C-0.35 44.21, -0.56 19.11, -0.25 0.02" stroke="#000000" stroke-width="4" fill="none"></path></g><g transform="translate(513.6432873297524 443.8030304350785) rotate(0 12.383995056152344 22.5)"><text x="12.383995056152344" y="0" font-family="Virgil, Segoe UI Emoji" font-size="36px" fill="#1e1e1e" text-anchor="middle" style="white-space: pre;" direction="ltr" dominant-baseline="text-before-edge">0</text></g><g stroke-linecap="round" transform="translate(564.5482777731806 431.9395075954223) rotate(0 33.49478025456827 35.46506144601352)"><path d="M-0.68 1.18 C16.68 1.59, 35.19 0.8, 66.31 0.25 M-0.91 0.45 C15.41 -0.52, 31.83 -1.19, 67.74 0.14 M67.91 -0.76 C65.69 23.1, 67.92 47.89, 67.27 72.29 M66.35 -0.29 C67.2 14.76, 66.19 31.37, 67.58 70.85 M67.36 69.11 C50.68 68.95, 34.96 72.32, 0.94 70.97 M66.47 71.46 C49.42 72.06, 32.67 70.36, 0.7 70.04 M1.97 72.45 C0.2 48.2, 1.82 27.54, -1.03 -0.68 M-0.04 71.73 C-0.37 42.95, 0.06 14.74, 0.68 -0.96" stroke="#000000" stroke-width="4" fill="none"></path></g><g transform="translate(585.6590629715965 444.90456904143576) rotate(0 12.383995056152344 22.5)"><text x="12.383995056152344" y="0" font-family="Virgil, Segoe UI Emoji" font-size="36px" fill="#1e1e1e" text-anchor="middle" style="white-space: pre;" direction="ltr" dominant-baseline="text-before-edge">0</text></g><g stroke-linecap="round" transform="translate(631.195050308264 429.92661311736737) rotate(0 33.49478025456827 35.46506144601352)"><path d="M-1.38 0.24 C23.37 -0.1, 46.98 -1.06, 67.99 -1.81 M-0.91 -0.86 C23.85 0.27, 46.53 0.91, 66.78 0.46 M67.36 0.59 C66.61 19.94, 64.68 37.69, 68.1 69.64 M66 0.53 C67.6 19.15, 66.47 39.24, 66.57 71.12 M67.92 72.61 C53.95 70.4, 38.05 70.79, 0.84 69.9 M66.38 70.08 C44.03 70.6, 19.83 70.93, -0.37 71.91 M1.42 72.39 C-0.95 43.58, 1.97 17.93, -0.83 -0.09 M0.18 70.74 C0.86 43, 0.52 16.96, 0.77 -0.66" stroke="#000000" stroke-width="4" fill="none"></path></g><g transform="translate(652.3058355066798 442.89167456338083) rotate(0 12.383995056152344 22.5)"><text x="12.383995056152344" y="0" font-family="Virgil, Segoe UI Emoji" font-size="36px" fill="#1e1e1e" text-anchor="middle" style="white-space: pre;" direction="ltr" dominant-baseline="text-before-edge">0</text></g><g stroke-linecap="round" transform="translate(701.6438487923518 431.044882139761) rotate(0 33.49478025456827 35.46506144601352)"><path d="M-1.11 -0.71 C21.91 -1.9, 42.71 -2, 66.61 -1.82 M0.33 0.79 C14.14 0.37, 28.32 -1.02, 66.71 0.19 M65.34 0.54 C68.2 22.07, 66.51 46.76, 65.66 68.95 M66.45 0.78 C66.99 25.19, 66.5 50.1, 66.14 71.4 M66.02 71.36 C42.12 69.91, 16.64 69.53, 1.7 69.72 M67.15 70.36 C52.24 71.32, 38.99 70.23, -0.15 71.64 M1.9 71.27 C-0.46 44.39, 1.97 17.51, 0.03 0.36 M0.34 70.88 C0.28 50.34, 0.51 30.71, 0.35 0.07" stroke="#000000" stroke-width="4" fill="none"></path></g><g transform="translate(722.7546339907677 444.00994358577447) rotate(0 12.383995056152344 22.5)"><text x="12.383995056152344" y="0" font-family="Virgil, Segoe UI Emoji" font-size="36px" fill="#1e1e1e" text-anchor="middle" style="white-space: pre;" direction="ltr" dominant-baseline="text-before-edge">0</text></g><g stroke-linecap="round" transform="translate(226.1745643405165 356.4945952782435) rotate(0 33.49478025456827 35.46506144601349)"><path d="M-0.11 0.1 C21.52 -1.99, 42.24 1.78, 65.11 -0.56 M-0.37 -0.65 C19.97 1.07, 39.15 1.46, 67.89 -0.83 M66.24 -0.51 C67.87 20.31, 68.7 40.07, 66.3 71.27 M67.59 0.82 C66.9 25.94, 66.4 52.8, 67.64 70.53 M65.8 72.39 C45.34 72.86, 22.74 70.61, -0.48 69.96 M67.88 70.43 C49.53 70.53, 29.23 69.69, 0.9 71.52 M1.08 69.73 C-1.37 42.71, -0.86 19.35, 1.64 0.83 M-0.89 70.3 C1.03 47.57, -0.62 22.06, -0.12 -0.95" stroke="#000000" stroke-width="4" fill="none"></path></g><g transform="translate(254.79134624303398 369.45965672425694) rotate(0 4.877998352050781 22.5)"><text x="4.877998352050781" y="0" font-family="Virgil, Segoe UI Emoji" font-size="36px" fill="#1e1e1e" text-anchor="middle" style="white-space: pre;" direction="ltr" dominant-baseline="text-before-edge">1</text></g><g stroke-linecap="round" transform="translate(293.1641248496694 356.4945952782435) rotate(0 33.49478025456827 35.46506144601349)"><path d="M0.13 1.8 C18.55 0.1, 40.57 1.45, 65.53 -0.74 M0.78 0.97 C16.64 -1.22, 31.24 -0.78, 67.1 -0.38 M68.98 0.92 C66.71 19.82, 68.91 39.33, 65.03 72.13 M66.27 -0.45 C67.49 26.71, 67.24 53.92, 67.77 70.33 M68.3 70.09 C41.53 70.43, 16.52 73.07, -1.22 72.7 M66.03 70.09 C51.17 71.52, 34.31 71.38, 0.28 71.47 M-0.55 72.69 C2.01 54.72, 1.23 36.18, -1.01 -1.77 M-0.86 70.66 C-0.69 53.14, 0.31 36.36, -0.93 0.14" stroke="#000000" stroke-width="4" fill="none"></path></g><g transform="translate(321.78090675218687 369.45965672425694) rotate(0 4.877998352050781 22.5)"><text x="4.877998352050781" y="0" font-family="Virgil, Segoe UI Emoji" font-size="36px" fill="#1e1e1e" text-anchor="middle" style="white-space: pre;" direction="ltr" dominant-baseline="text-before-edge">1</text></g><g stroke-linecap="round" transform="translate(359.01492386414634 355.69260441486387) rotate(0 33.49478025456827 35.46506144601349)"><path d="M-0.27 0.79 C24.67 -0.55, 50.97 1.76, 68.15 1.55 M-0.24 -0.39 C26.7 0.18, 52.92 1.14, 67.36 0.99 M68.5 0.37 C64.78 25.73, 68.39 48.63, 65.61 69.48 M67.39 -0.28 C68.24 17.46, 68.18 36.68, 67.69 71.59 M66.48 72.6 C48.5 72.38, 31.42 72.48, 0.02 69.01 M67.75 71.37 C52.78 71.87, 37.42 70.8, -0.78 70.65 M0.85 70.26 C-1.59 41.65, -1.83 17.51, 1.89 -1.72 M0.88 70.04 C-0.84 51.68, -0.64 31.69, -0.91 0.96" stroke="#000000" stroke-width="4" fill="none"></path></g><g transform="translate(387.6317057666638 368.65766586087733) rotate(0 4.877998352050781 22.5)"><text x="4.877998352050781" y="0" font-family="Virgil, Segoe UI Emoji" font-size="36px" fill="#1e1e1e" text-anchor="middle" style="white-space: pre;" direction="ltr" dominant-baseline="text-before-edge">1</text></g><g stroke-linecap="round" transform="translate(426.00448437325707 355.69260441486387) rotate(0 33.49478025456826 35.46506144601349)"><path d="M-1.3 1.58 C23.91 1.8, 47.44 2.05, 65.32 -0.48 M-0.25 0.58 C17.82 1.25, 35.37 -0.09, 67.16 0.75 M68.63 -0.44 C64.92 21.16, 65.39 46.53, 66.2 71.73 M67.72 0.57 C68.25 19.94, 67.12 38.33, 66.51 70.68 M65.98 72.81 C41.32 69.6, 13.95 73.32, 1.18 72.45 M66.39 70.4 C43.14 71.02, 21.73 72.11, 0.41 71.36 M-1.25 72.52 C2.25 50.33, -0.18 32.9, -1.9 1.76 M-0.73 70.46 C-0.24 56.95, 0.48 40.55, -0.75 0.72" stroke="#000000" stroke-width="4" fill="none"></path></g><g transform="translate(454.6212662757746 368.65766586087733) rotate(0 4.877998352050781 22.5)"><text x="4.877998352050781" y="0" font-family="Virgil, Segoe UI Emoji" font-size="36px" fill="#1e1e1e" text-anchor="middle" style="white-space: pre;" direction="ltr" dominant-baseline="text-before-edge">1</text></g><g stroke-linecap="round" transform="translate(493.650805279551 355.69260441486387) rotate(0 33.49478025456827 35.46506144601349)"><path d="M1.94 1.8 C23.72 -1, 49.98 -0.3, 66.24 -0.51 M0.46 -0.35 C24.16 0.09, 48.16 -1.65, 67.59 0.82 M66.08 1.31 C65.71 20.53, 65.94 41.03, 65.8 72.39 M66.57 -0.24 C67 25.06, 68.32 50.01, 67.88 70.43 M65.31 72.72 C41.79 71.81, 15.12 70.85, 1.08 69.73 M67.87 71.75 C50.84 71.17, 33.53 70.24, -0.89 70.3 M-0.53 70.68 C-2.57 45.77, -2.46 15.22, 0.27 -1.46 M-0.18 70.42 C-0.11 53.69, 1.24 34.9, -0.63 -0.96" stroke="#000000" stroke-width="4" fill="none"></path></g><g transform="translate(514.7615904779669 368.65766586087733) rotate(0 12.383995056152344 22.5)"><text x="12.383995056152344" y="0" font-family="Virgil, Segoe UI Emoji" font-size="36px" fill="#1e1e1e" text-anchor="middle" style="white-space: pre;" direction="ltr" dominant-baseline="text-before-edge">0</text></g><g stroke-linecap="round" transform="translate(565.6665809213952 356.79414302122115) rotate(0 33.49478025456827 35.46506144601349)"><path d="M-0.79 0.22 C25.37 -0.35, 53.42 0.89, 68.98 0.92 M0.19 -0.98 C18.37 0.32, 35.33 -1.19, 66.27 -0.45 M66.43 1.57 C65.51 27.38, 67.85 53.25, 68.3 70.09 M67.82 -0.61 C67.53 19.06, 67.58 39.14, 66.03 70.09 M67.88 71.49 C41.97 70.24, 13.72 69.88, -0.55 72.69 M66.65 70.42 C40.52 70.59, 16.61 72.16, -0.86 70.66 M-1.79 69.06 C0.95 49.07, -0.26 28.33, 1.92 -0.36 M0.6 70.82 C-0.09 52.31, 0.77 35.7, -0.11 0.01" stroke="#000000" stroke-width="4" fill="none"></path></g><g transform="translate(586.7773661198111 369.7592044672346) rotate(0 12.383995056152344 22.5)"><text x="12.383995056152344" y="0" font-family="Virgil, Segoe UI Emoji" font-size="36px" fill="#1e1e1e" text-anchor="middle" style="white-space: pre;" direction="ltr" dominant-baseline="text-before-edge">0</text></g><g stroke-linecap="round" transform="translate(632.3133534564785 354.78124854316644) rotate(0 33.49478025456827 35.46506144601349)"><path d="M1.16 0.73 C22.83 1.09, 40.99 0.51, 68.5 0.37 M-0.22 -0.69 C12.8 -1, 27.7 -0.95, 67.39 -0.28 M68.13 1.41 C67.88 25.99, 66.08 52.69, 66.48 72.6 M67.93 0.01 C66.66 16.13, 68.52 34.52, 67.75 71.37 M65.93 69.37 C44.46 72.29, 24.66 71.36, 0.85 70.26 M67.78 71.87 C49.42 70.24, 33.45 69.56, 0.88 70.04 M-0.94 69.12 C1.82 55.91, -1.12 40.1, 1.44 1.2 M0.24 71.03 C0.33 50.41, 0.38 29.76, -0.23 0.12" stroke="#000000" stroke-width="4" fill="none"></path></g><g transform="translate(653.4241386548944 367.7463099891799) rotate(0 12.383995056152344 22.5)"><text x="12.383995056152344" y="0" font-family="Virgil, Segoe UI Emoji" font-size="36px" fill="#1e1e1e" text-anchor="middle" style="white-space: pre;" direction="ltr" dominant-baseline="text-before-edge">0</text></g><g stroke-linecap="round" transform="translate(702.7621519405664 355.8995175655601) rotate(0 33.49478025456827 35.46506144601349)"><path d="M-0.69 0.34 C24.06 0.07, 43.14 0.89, 68.63 -0.44 M0.65 -0.4 C15.89 0.02, 31.76 -0.29, 67.72 0.57 M66.51 -0.97 C66.95 27.93, 66.24 54.3, 65.98 72.81 M67.89 0.59 C67.07 21.79, 66.59 43.23, 66.39 70.4 M68.63 71.76 C52.95 70.84, 36.2 69.75, -1.25 72.52 M66.87 69.98 C41.45 69.86, 13.22 70.89, -0.73 70.46 M-1.02 69.42 C0.76 57.27, -0.89 39.96, -1.91 0.48 M-0.06 70.82 C-0.15 49.08, -0.48 26.48, 0.55 0.33" stroke="#000000" stroke-width="4" fill="none"></path></g><g transform="translate(723.8729371389823 368.86457901157354) rotate(0 12.383995056152344 22.5)"><text x="12.383995056152344" y="0" font-family="Virgil, Segoe UI Emoji" font-size="36px" fill="#1e1e1e" text-anchor="middle" style="white-space: pre;" direction="ltr" dominant-baseline="text-before-edge">0</text></g><g stroke-linecap="round" transform="translate(225.95083545923188 283.8093270010101) rotate(0 33.49478025456827 35.46506144601349)"><path d="M0.71 0.84 C17.04 -0.87, 30.45 -1.54, 67.36 -0.54 M-0.59 0.55 C23.38 0.12, 46.21 -0.22, 67.39 -0.11 M65.47 -0.19 C66.6 26.43, 68.33 50.82, 66.74 69.62 M67.98 0.11 C67.81 23.42, 66.91 45.42, 67.03 71.28 M66.2 70.1 C51.15 70.85, 36.41 72.13, -0.95 69.52 M67.67 70.35 C51.08 70.33, 35.58 70.68, -0.57 71.16 M1.14 71.08 C-2.51 55.72, -1.91 39.81, -1.7 -0.23 M-0.56 71.9 C-0.4 51.62, 0 33.94, -0.15 0.17" stroke="#000000" stroke-width="4" fill="none"></path></g><g transform="translate(254.5676173617494 296.77438844702357) rotate(0 4.877998352050781 22.5)"><text x="4.877998352050781" y="0" font-family="Virgil, Segoe UI Emoji" font-size="36px" fill="#1e1e1e" text-anchor="middle" style="white-space: pre;" direction="ltr" dominant-baseline="text-before-edge">1</text></g><g stroke-linecap="round" transform="translate(292.9403959683848 283.8093270010101) rotate(0 33.49478025456827 35.46506144601349)"><path d="M-1.96 -1.99 C23.29 -0.1, 46.78 1.18, 66.67 -1.18 M-0.26 -0.33 C24.16 -0.12, 48.02 0.81, 66.64 -0.76 M67.75 1.3 C66.39 19.3, 67.03 40.87, 68.1 72.92 M67.04 0.16 C67.7 22.44, 66.87 45.07, 66.47 70.53 M65.9 72.47 C48.73 69.61, 31.12 72.56, -1.25 72.3 M67.46 71.1 C50.22 71.04, 33.85 71.61, 0.29 71.5 M-1.34 71.75 C-1.01 48.9, -0.14 27.7, 0.02 -1.12 M0.12 70.6 C0.05 42.96, -0.37 15.1, -0.22 -0.01" stroke="#000000" stroke-width="4" fill="none"></path></g><g transform="translate(321.55717787090225 296.77438844702357) rotate(0 4.877998352050781 22.5)"><text x="4.877998352050781" y="0" font-family="Virgil, Segoe UI Emoji" font-size="36px" fill="#1e1e1e" text-anchor="middle" style="white-space: pre;" direction="ltr" dominant-baseline="text-before-edge">1</text></g><g stroke-linecap="round" transform="translate(358.7911949828617 283.0073361376304) rotate(0 33.49478025456827 35.46506144601349)"><path d="M0.94 0.74 C13.11 -1, 27.97 0.46, 67.01 -0.53 M0.49 0.81 C17.53 -0.69, 35.68 -0.41, 67.82 0.38 M67.37 -0.37 C68.01 27.86, 67.13 53.66, 68.56 71.03 M66.19 0.89 C66.49 22.01, 66.6 44.27, 67.12 70.38 M65.75 72.47 C40.47 71.82, 15.28 70.52, -0.37 71.87 M66.24 71.73 C46.05 71.65, 24.6 70.11, 0.38 70.26 M-0.83 71.29 C0.63 45.63, 2.54 22.02, -1.95 0.24 M-0.57 71.39 C-0.12 51.96, -0.57 33.65, -0.83 -0.43" stroke="#000000" stroke-width="4" fill="none"></path></g><g transform="translate(387.4079768853792 295.97239758364384) rotate(0 4.877998352050781 22.5)"><text x="4.877998352050781" y="0" font-family="Virgil, Segoe UI Emoji" font-size="36px" fill="#1e1e1e" text-anchor="middle" style="white-space: pre;" direction="ltr" dominant-baseline="text-before-edge">1</text></g><g stroke-linecap="round" transform="translate(425.78075549197246 283.0073361376304) rotate(0 33.49478025456827 35.46506144601349)"><path d="M1.09 0.28 C22.58 -0.14, 44.46 1.19, 66.77 0.98 M-0.09 -0.49 C26.38 0.89, 51.74 0.38, 66.33 0.19 M67.22 1.91 C68.96 20.08, 67.7 40.03, 67.69 69.33 M66.57 -0.55 C66.75 27.08, 67.39 54.78, 66.28 70.31 M65.82 70.99 C41.35 72.32, 16.79 70.25, 0.47 69.43 M67.06 69.96 C41.93 70.64, 16.52 70.46, -0.12 70.51 M1.94 70.39 C-1.95 48.63, -0.66 25.56, 0.35 -1.13 M-0.67 71.57 C-0.67 45.99, 0.34 22.01, 0.13 0.58" stroke="#000000" stroke-width="4" fill="none"></path></g><g transform="translate(454.39753739449 295.97239758364384) rotate(0 4.877998352050781 22.5)"><text x="4.877998352050781" y="0" font-family="Virgil, Segoe UI Emoji" font-size="36px" fill="#1e1e1e" text-anchor="middle" style="white-space: pre;" direction="ltr" dominant-baseline="text-before-edge">1</text></g><g stroke-linecap="round" transform="translate(493.42707639826637 283.0073361376304) rotate(0 33.49478025456827 35.46506144601349)"><path d="M-0.66 0.8 C20.83 1.16, 43.72 -0.53, 65.47 -0.19 M0.65 -0.13 C16.19 -0.06, 33.51 0.3, 67.98 0.11 M67.31 0.07 C68.25 26.45, 69.34 55.05, 66.2 70.1 M67.76 -0.47 C66.38 16.77, 67.86 34.17, 67.67 70.35 M67.33 69.79 C47.16 69.75, 27.99 71.83, 1.14 71.08 M67.4 70.08 C53.28 70.06, 39.99 70.49, -0.56 71.9 M-0.65 70.64 C1.04 50.44, 1.6 31.78, -0.03 -1.35 M0.18 71.03 C0.72 45.72, 1.41 18.63, -0.8 -0.75" stroke="#000000" stroke-width="4" fill="none"></path></g><g transform="translate(522.0438583007839 295.97239758364384) rotate(0 4.877998352050781 22.5)"><text x="4.877998352050781" y="0" font-family="Virgil, Segoe UI Emoji" font-size="36px" fill="#1e1e1e" text-anchor="middle" style="white-space: pre;" direction="ltr" dominant-baseline="text-before-edge">1</text></g><g stroke-linecap="round" transform="translate(565.4428520401106 284.10887474398766) rotate(0 33.49478025456827 35.46506144601349)"><path d="M1.63 -0.71 C21.25 -0.52, 44.56 1.34, 67.75 1.3 M-0.18 0.56 C20.25 -0.01, 39.47 0.66, 67.04 0.16 M68.78 -1.04 C66.45 20.71, 66.14 43.34, 65.9 72.47 M67.76 -0.62 C67.17 17.34, 66.52 35.67, 67.46 71.1 M68.59 71.52 C51.85 70.57, 32.49 71.19, -1.34 71.75 M67.17 70.94 C52.03 71.62, 37.92 69.68, 0.12 70.6 M0.91 70.49 C-0.15 49.34, 1.15 28.79, -0.87 0.36 M0.82 70.21 C-0.89 48.22, 0.41 26.2, -0.65 0.36" stroke="#000000" stroke-width="4" fill="none"></path></g><g transform="translate(586.5536372385264 297.0739361900011) rotate(0 12.383995056152344 22.5)"><text x="12.383995056152344" y="0" font-family="Virgil, Segoe UI Emoji" font-size="36px" fill="#1e1e1e" text-anchor="middle" style="white-space: pre;" direction="ltr" dominant-baseline="text-before-edge">0</text></g><g stroke-linecap="round" transform="translate(632.0896245751939 282.09598026593295) rotate(0 33.49478025456827 35.46506144601349)"><path d="M-0.97 1.67 C18.5 1.36, 35.22 -1.25, 67.37 -0.37 M0.95 0.79 C23.88 0.08, 47.69 0.28, 66.19 0.89 M65.89 0.27 C65.62 19.13, 65.76 33.75, 65.75 72.47 M67.02 -0.18 C67.94 17.02, 66.9 33.93, 66.24 71.73 M65.05 71.69 C43.58 71.8, 21.16 70.75, -0.83 71.29 M66.72 69.96 C46.94 71.25, 26.5 71.75, -0.57 71.39 M1.27 69.27 C-0.86 51.58, 0.2 31.77, 1.16 1.64 M0.5 70.12 C-0.08 55.12, 1.49 38, 0.01 -0.73" stroke="#000000" stroke-width="4" fill="none"></path></g><g transform="translate(653.2004097736097 295.0610417119464) rotate(0 12.383995056152344 22.5)"><text x="12.383995056152344" y="0" font-family="Virgil, Segoe UI Emoji" font-size="36px" fill="#1e1e1e" text-anchor="middle" style="white-space: pre;" direction="ltr" dominant-baseline="text-before-edge">0</text></g><g stroke-linecap="round" transform="translate(702.5384230592817 283.2142492883266) rotate(0 33.49478025456827 35.46506144601349)"><path d="M-0.25 -1.31 C26.07 -0.8, 52.48 1.56, 67.22 1.91 M0.04 0.35 C24.57 0.79, 50.21 -0.5, 66.57 -0.55 M66.04 -1.41 C65.36 23.78, 65.35 45.84, 65.82 70.99 M66.42 0.23 C66.57 20.78, 67.62 40.52, 67.06 69.96 M65.29 70.7 C43.52 71.56, 21.73 70.09, 1.94 70.39 M66.84 71.1 C52.84 71.17, 39.61 70.7, -0.67 71.57 M0.19 71.19 C1.47 57.17, -1.13 38.54, -1.5 1 M0.92 70.34 C0.47 54.64, 0.67 39.86, -0.98 -0.11" stroke="#000000" stroke-width="4" fill="none"></path></g><g transform="translate(723.6492082576976 296.17931073434005) rotate(0 12.383995056152344 22.5)"><text x="12.383995056152344" y="0" font-family="Virgil, Segoe UI Emoji" font-size="36px" fill="#1e1e1e" text-anchor="middle" style="white-space: pre;" direction="ltr" dominant-baseline="text-before-edge">0</text></g><g stroke-linecap="round" transform="translate(225.50358245158765 211.0122284089553) rotate(0 33.49478025456827 35.46506144601349)"><path d="M-0.48 0.14 C23.99 2.11, 50.08 0.48, 66.8 0.53 M0.11 -0.61 C20.56 0.19, 38.5 -0.38, 66.17 -0.29 M67.44 -1.85 C67.35 20.3, 66.71 38.24, 65.84 72.32 M66.87 0.07 C68.17 26.71, 68.65 51.74, 66.51 70.67 M67.3 71.57 C52.46 72.31, 38.5 72.81, 1.9 70.61 M67.03 70.48 C44.71 71.08, 20.85 70.58, 0.3 69.99 M1.87 71.08 C-2.58 50.17, -2.44 25.27, 0.09 0.48 M-0.91 70.91 C0.15 42.59, -0.45 16.39, -0.35 0.72" stroke="#000000" stroke-width="4" fill="none"></path></g><g transform="translate(254.12036435410513 223.97728985496877) rotate(0 4.877998352050781 22.5)"><text x="4.877998352050781" y="0" font-family="Virgil, Segoe UI Emoji" font-size="36px" fill="#1e1e1e" text-anchor="middle" style="white-space: pre;" direction="ltr" dominant-baseline="text-before-edge">1</text></g><g stroke-linecap="round" transform="translate(292.49314296074056 211.0122284089553) rotate(0 33.49478025456827 35.46506144601349)"><path d="M-0.57 -0.04 C20.37 0, 40.98 -2.13, 66.86 0.23 M-0.63 -0.42 C15.21 -0.39, 31.71 0.26, 67.12 0.23 M66.45 0.83 C65.88 16.12, 68.44 31.35, 66.33 70.69 M67.98 -0.84 C66.87 21.49, 66.57 43.26, 67.95 71.09 M68.19 72.16 C46.66 70.86, 23.45 73.16, -1.47 71.01 M67.18 71.08 C50.19 70.42, 32.86 72.29, -0.18 71.86 M-1.78 69.06 C0.77 49.6, 2.45 28.4, -0.09 -1.82 M-0.06 71.5 C-0.73 50.49, -0.21 27.85, -0.96 -0.22" stroke="#000000" stroke-width="4" fill="none"></path></g><g transform="translate(321.109924863258 223.97728985496877) rotate(0 4.877998352050781 22.5)"><text x="4.877998352050781" y="0" font-family="Virgil, Segoe UI Emoji" font-size="36px" fill="#1e1e1e" text-anchor="middle" style="white-space: pre;" direction="ltr" dominant-baseline="text-before-edge">1</text></g><g stroke-linecap="round" transform="translate(358.3439419752175 210.21023754557558) rotate(0 33.49478025456827 35.46506144601349)"><path d="M-0.16 -1.6 C19.83 0.05, 38.7 1.81, 67.29 -1.26 M-0.36 0.36 C17.4 0.42, 33.62 0.25, 67.79 -0.27 M68.4 1.89 C65.92 23.99, 66.71 49.48, 67.83 72.91 M66.21 -0.22 C67.61 15.48, 66.97 30.8, 67.36 71.53 M67.91 72.91 C41.3 70.9, 17.66 72.59, 1.29 71.32 M67.08 71.86 C45.74 71.23, 24.93 69.34, 0.57 70.04 M1.77 72.01 C-0.12 54.44, -0.06 42.67, -1.56 -0.12 M0.17 70.18 C-0.71 45.37, -0.03 19.32, 0.45 0.15" stroke="#000000" stroke-width="4" fill="none"></path></g><g transform="translate(386.96072387773495 223.17529899158905) rotate(0 4.877998352050781 22.5)"><text x="4.877998352050781" y="0" font-family="Virgil, Segoe UI Emoji" font-size="36px" fill="#1e1e1e" text-anchor="middle" style="white-space: pre;" direction="ltr" dominant-baseline="text-before-edge">1</text></g><g stroke-linecap="round" transform="translate(425.3335024843282 210.21023754557558) rotate(0 33.49478025456827 35.46506144601349)"><path d="M-1.21 1.99 C15.04 -1.34, 28.65 -1.72, 66.41 -0.73 M-0.92 0.05 C23.3 -0.42, 45.41 -0.73, 67.68 0.71 M67.12 1.01 C67.59 29.94, 65.08 54.98, 66.48 69.36 M67.31 0.16 C68.04 20.33, 68.29 40.41, 66.83 71.39 M66.1 72.7 C41.56 71.34, 13.84 71.56, -1.88 71.1 M67.06 69.97 C41.24 70.67, 13.42 71.6, 0.24 71.82 M-0.03 72 C-1.53 45.69, 1.18 19.99, 1.44 0.34 M-0.28 69.99 C1.13 55.11, -0.21 38.47, 0.15 0.04" stroke="#000000" stroke-width="4" fill="none"></path></g><g transform="translate(453.95028438684574 223.17529899158905) rotate(0 4.877998352050781 22.5)"><text x="4.877998352050781" y="0" font-family="Virgil, Segoe UI Emoji" font-size="36px" fill="#1e1e1e" text-anchor="middle" style="white-space: pre;" direction="ltr" dominant-baseline="text-before-edge">1</text></g><g stroke-linecap="round" transform="translate(492.97982339062213 210.21023754557558) rotate(0 33.49478025456827 35.46506144601349)"><path d="M-0.84 -1.65 C26.18 -0.3, 54.23 0.68, 67.44 -1.85 M0.42 -0.57 C21.16 0.89, 41.87 -0.15, 66.87 0.07 M65.31 -0.96 C66.78 23.31, 66.85 51.68, 67.3 71.57 M67.6 0.95 C67.09 22.85, 68.24 44.05, 67.03 70.48 M67.28 71.54 C39.1 71.23, 16.83 70.7, 1.87 71.08 M66.06 70.97 C53.58 71.22, 40.23 70.29, -0.91 70.91 M1.14 70.22 C1.99 46.2, -0.94 18.88, -0.44 -0.55 M-0.89 70.42 C-0.17 56.33, -0.92 42.08, 0.99 0.07" stroke="#000000" stroke-width="4" fill="none"></path></g><g transform="translate(521.5966052931396 223.17529899158905) rotate(0 4.877998352050781 22.5)"><text x="4.877998352050781" y="0" font-family="Virgil, Segoe UI Emoji" font-size="36px" fill="#1e1e1e" text-anchor="middle" style="white-space: pre;" direction="ltr" dominant-baseline="text-before-edge">1</text></g><g stroke-linecap="round" transform="translate(564.9955990324663 211.31177615193286) rotate(0 33.49478025456827 35.46506144601349)"><path d="M0.72 0.26 C15.04 -1.6, 29.27 1.85, 66.45 0.83 M0.94 -0.33 C16.13 -0.41, 33.02 -0.05, 67.98 -0.84 M66.55 1.93 C67.12 18.53, 67.12 36.52, 68.19 72.16 M67.98 -0.73 C66.92 27.58, 67.76 56.7, 67.18 71.08 M68.85 70.57 C46.72 71.14, 20.8 72.13, -1.78 69.06 M67.53 70.89 C45.69 71.51, 26.74 70.74, -0.06 71.5 M-1.5 69.01 C-0.95 51.6, -2.38 34.28, 0.3 -1.78 M-0.6 71.36 C0.89 53.37, 0.12 35.92, 0.4 -0.68" stroke="#000000" stroke-width="4" fill="none"></path></g><g transform="translate(593.6123809349838 224.27683759794633) rotate(0 4.877998352050781 22.5)"><text x="4.877998352050781" y="0" font-family="Virgil, Segoe UI Emoji" font-size="36px" fill="#1e1e1e" text-anchor="middle" style="white-space: pre;" direction="ltr" dominant-baseline="text-before-edge">1</text></g><g stroke-linecap="round" transform="translate(631.6423715675496 209.29888167387816) rotate(0 33.49478025456827 35.46506144601349)"><path d="M0.11 1.6 C20.44 1.45, 40.8 2.01, 68.4 1.89 M0.51 0.42 C18.87 -0.88, 35.29 -0.3, 66.21 -0.22 M67.3 0.74 C68.3 29.34, 69 55.91, 67.91 72.91 M67.87 0.64 C67.21 16.23, 67.32 31.22, 67.08 71.86 M65.07 72.07 C46.3 69.11, 29.26 71.46, 1.77 72.01 M67.52 70.15 C47.12 71.49, 27.03 71.64, 0.17 70.18 M-1.87 71.82 C0.46 54.66, -0.87 42.25, 0.08 -1.2 M0.22 71.19 C-0.3 45.91, -0.93 21.99, 0.35 -0.71" stroke="#000000" stroke-width="4" fill="none"></path></g><g transform="translate(652.7531567659655 222.26394311989162) rotate(0 12.383995056152344 22.5)"><text x="12.383995056152344" y="0" font-family="Virgil, Segoe UI Emoji" font-size="36px" fill="#1e1e1e" text-anchor="middle" style="white-space: pre;" direction="ltr" dominant-baseline="text-before-edge">0</text></g><g stroke-linecap="round" transform="translate(702.0911700516375 210.4171506962718) rotate(0 33.49478025456827 35.46506144601349)"><path d="M-1.15 1.39 C26.88 1.61, 50.27 -0.52, 67.12 1.01 M-0.48 -0.26 C22.12 0.34, 46.77 0.72, 67.31 0.16 M68.89 -0.32 C68.33 25.88, 65.95 47.88, 66.1 72.7 M67.29 -0.94 C67.21 26.78, 66.95 52.64, 67.06 69.97 M67.08 71.41 C44.85 71.39, 19.08 68.48, -0.03 72 M66.64 71.65 C52.28 70.57, 36.28 71.09, -0.28 69.99 M-1.03 71.22 C-0.03 45.28, 0.76 24.03, 0.14 0.44 M-0.23 70.68 C0.06 47.14, 0.52 24.88, -0.64 -0.06" stroke="#000000" stroke-width="4" fill="none"></path></g><g transform="translate(723.2019552500534 223.38221214228525) rotate(0 12.383995056152344 22.5)"><text x="12.383995056152344" y="0" font-family="Virgil, Segoe UI Emoji" font-size="36px" fill="#1e1e1e" text-anchor="middle" style="white-space: pre;" direction="ltr" dominant-baseline="text-before-edge">0</text></g><g stroke-linecap="round" transform="translate(226.17449608887483 135.75499939411196) rotate(0 33.49478025456827 35.46506144601349)"><path d="M-1.53 -0.97 C13.82 -1.56, 29.86 -0.62, 67.21 1.29 M0.44 0.49 C16.61 1.2, 34.46 1.01, 67.04 0.36 M68.4 -0.59 C65.7 25.22, 68.25 53.28, 66.31 72.45 M67.39 -0.52 C66.72 23.94, 66.17 48.5, 66.89 70.01 M65.08 72.22 C54.15 70.26, 37.27 68.52, -0.8 69.41 M66.8 71.59 C51.95 70.17, 34.92 69.57, -0.68 71.64 M-1.68 70.27 C-1.65 42.67, 0.21 14.87, 1.44 0.21 M-0.66 71.26 C1.14 50.52, 0.58 30.83, 0.28 0.68" stroke="#000000" stroke-width="4" fill="none"></path></g><g transform="translate(254.79127799139232 148.72006084012546) rotate(0 4.877998352050781 22.499999999999986)"><text x="4.877998352050781" y="0" font-family="Virgil, Segoe UI Emoji" font-size="36px" fill="#1e1e1e" text-anchor="middle" style="white-space: pre;" direction="ltr" dominant-baseline="text-before-edge">1</text></g><g stroke-linecap="round" transform="translate(293.16405659802774 135.75499939411196) rotate(0 33.49478025456827 35.46506144601349)"><path d="M1.46 -0.12 C17.07 1.65, 32.92 2.04, 65.57 0.87 M-0.56 0.53 C23.46 -0.12, 47.51 -1.03, 66.43 0.7 M68.64 0.7 C65.99 20.7, 67.37 36.36, 65.41 71.73 M66.88 0.97 C67.21 16.68, 66.48 35.33, 66.04 69.97 M66.42 69.16 C41.79 69.4, 16.83 70.61, -1.31 70.54 M66.08 70.01 C41.77 71.43, 18.88 71.19, 0.76 70.09 M0.55 70.89 C1.9 52.22, 0.2 31.16, 0.39 -1.32 M-0.1 71.53 C-0.05 47.99, 0.21 23.88, 0.98 -0.31" stroke="#000000" stroke-width="4" fill="none"></path></g><g transform="translate(321.7808385005452 148.72006084012546) rotate(0 4.877998352050781 22.499999999999986)"><text x="4.877998352050781" y="0" font-family="Virgil, Segoe UI Emoji" font-size="36px" fill="#1e1e1e" text-anchor="middle" style="white-space: pre;" direction="ltr" dominant-baseline="text-before-edge">1</text></g><g stroke-linecap="round" transform="translate(359.0148556125047 134.95300853073212) rotate(0 33.49478025456827 35.46506144601349)"><path d="M-0.77 1.69 C18.28 0.44, 40.39 -2.22, 68.44 -1.11 M0.71 -0.55 C23.1 0.46, 47.02 -0.7, 66.46 0.82 M67.69 -2 C65.17 24.57, 65.71 48.42, 67.34 70.71 M66.16 0.14 C65.97 27.2, 67.56 57.19, 66.97 70.65 M65.64 70.62 C51.52 70.04, 39.99 71.49, -0.65 69.11 M67.94 71.41 C53.85 70.57, 38.86 70.76, -0.13 71.2 M-0.26 69.02 C-0.12 48.49, 0.15 29.61, -0.12 -0.2 M0.54 71.12 C0.78 45.09, 0.25 19.02, -0.54 0.84" stroke="#000000" stroke-width="4" fill="none"></path></g><g transform="translate(387.63163751502213 147.9180699767456) rotate(0 4.877998352050781 22.499999999999986)"><text x="4.877998352050781" y="0" font-family="Virgil, Segoe UI Emoji" font-size="36px" fill="#1e1e1e" text-anchor="middle" style="white-space: pre;" direction="ltr" dominant-baseline="text-before-edge">1</text></g><g stroke-linecap="round" transform="translate(426.0044161216154 134.95300853073212) rotate(0 33.49478025456827 35.46506144601349)"><path d="M0.99 -1.78 C27.2 -1.41, 52.56 -0.18, 67.71 1.41 M-0.3 -0.45 C15.9 0.35, 33.22 -0.81, 67.75 0.35 M65.95 0.88 C66.78 13.97, 68.37 28.19, 65.16 69.28 M67.63 0.87 C66.3 21.98, 65.43 44.12, 66.23 70.26 M68.31 72 C47.28 68.98, 27.01 69.43, 1.43 72.83 M66.66 70.28 C43.56 70.64, 20.37 71.09, 0.11 70.8 M0.66 71.86 C-0.26 56.24, 1.06 42.52, 1.35 1.08 M0.45 70.09 C-1.23 49.17, -1.41 25.87, -0.91 0.53" stroke="#000000" stroke-width="4" fill="none"></path></g><g transform="translate(454.6211980241329 147.9180699767456) rotate(0 4.877998352050781 22.499999999999986)"><text x="4.877998352050781" y="0" font-family="Virgil, Segoe UI Emoji" font-size="36px" fill="#1e1e1e" text-anchor="middle" style="white-space: pre;" direction="ltr" dominant-baseline="text-before-edge">1</text></g><g stroke-linecap="round" transform="translate(493.6507370279093 134.95300853073212) rotate(0 33.49478025456827 35.46506144601349)"><path d="M1.06 0.11 C14.84 1.79, 27.15 -0.74, 68.4 -0.59 M0.35 -0.34 C17.82 -0.2, 33.12 -1.34, 67.39 -0.52 M68.93 -0.19 C65.28 22.76, 67.39 46.93, 65.08 72.22 M66.1 -0.4 C66.22 26.76, 66.82 54.21, 66.8 71.59 M65.14 69.56 C44.74 72.22, 20.58 71.84, -1.68 70.27 M66.97 71.65 C51.38 70.98, 34.59 71.31, -0.66 71.26 M1.2 71.5 C1.39 47.43, 0.42 23.74, -0.62 0.91 M-0.72 71.08 C-0.53 56.15, -0.52 40.65, -0.35 -0.25" stroke="#000000" stroke-width="4" fill="none"></path></g><g transform="translate(522.2675189304268 147.9180699767456) rotate(0 4.877998352050781 22.499999999999986)"><text x="4.877998352050781" y="0" font-family="Virgil, Segoe UI Emoji" font-size="36px" fill="#1e1e1e" text-anchor="middle" style="white-space: pre;" direction="ltr" dominant-baseline="text-before-edge">1</text></g><g stroke-linecap="round" transform="translate(565.6665126697535 136.0545471370894) rotate(0 33.49478025456827 35.46506144601349)"><path d="M-1.09 -1.12 C21.87 -1.07, 40.01 -1.54, 68.64 0.7 M-1 -0.79 C18.23 -0.75, 36.11 -0.06, 66.88 0.97 M67.27 -1.9 C64.43 21.88, 68.07 41.15, 66.42 69.16 M66.84 -0.65 C66.26 19.11, 66.99 36.58, 66.08 70.01 M67.95 72.45 C49.8 70.9, 34.65 71.32, 0.55 70.89 M66.03 71.13 C41.42 71.17, 17.63 70.78, -0.1 71.53 M0.37 72.89 C-1.09 48.54, -2.16 23.26, 1.68 -1.43 M-0.9 71.28 C0.3 48.34, 1.04 25.77, -0.63 0.02" stroke="#000000" stroke-width="4" fill="none"></path></g><g transform="translate(594.283294572271 149.0196085831029) rotate(0 4.877998352050781 22.499999999999986)"><text x="4.877998352050781" y="0" font-family="Virgil, Segoe UI Emoji" font-size="36px" fill="#1e1e1e" text-anchor="middle" style="white-space: pre;" direction="ltr" dominant-baseline="text-before-edge">1</text></g><g stroke-linecap="round" transform="translate(632.3132852048368 134.0416526590347) rotate(0 33.49478025456827 35.46506144601349)"><path d="M-0.91 -1.07 C18 0.9, 32.03 1.72, 67.69 -2 M0.44 0.17 C14.71 1.32, 29.54 -0.57, 66.16 0.14 M68.72 -0.04 C65.74 12.76, 65.51 27.55, 65.64 70.62 M67.52 -0.33 C65.94 15.72, 66.17 34.01, 67.94 71.41 M65.68 70.68 C42.35 70.66, 18.06 70.92, -0.26 69.02 M67.45 70.87 C45.48 71.75, 24.46 71.83, 0.54 71.12 M-1.68 69.86 C1.9 41.27, 0.52 12.66, 1.07 -1.81 M0.4 70.45 C-0.38 47.17, 0.39 23.36, 0.92 -0.55" stroke="#000000" stroke-width="4" fill="none"></path></g><g transform="translate(660.9300671073543 147.0067141050482) rotate(0 4.877998352050781 22.499999999999986)"><text x="4.877998352050781" y="0" font-family="Virgil, Segoe UI Emoji" font-size="36px" fill="#1e1e1e" text-anchor="middle" style="white-space: pre;" direction="ltr" dominant-baseline="text-before-edge">1</text></g><g stroke-linecap="round" transform="translate(702.7620836889247 135.15992168142833) rotate(0 33.49478025456827 35.46506144601349)"><path d="M-0.68 1.52 C17.22 -2.23, 31.46 0.56, 65.95 0.88 M-0.1 -0.92 C20.43 -0.51, 41.57 -1.61, 67.63 0.87 M66.19 -1.52 C65.44 20.84, 65.48 41.91, 68.31 72 M66.31 0.71 C67.29 19.45, 67.1 37.1, 66.66 70.28 M68.43 71.14 C47.47 69, 28.87 69.6, 0.66 71.86 M67.27 71.61 C47.84 71.52, 28.6 71.02, 0.45 70.09 M0.3 69.11 C0.47 51.64, 0.11 35.28, -0.5 0.8 M0.14 70.91 C1.36 52.48, 0.15 35.74, -0.61 0.7" stroke="#000000" stroke-width="4" fill="none"></path></g><g transform="translate(723.8728688873406 148.12498312744182) rotate(0 12.383995056152344 22.499999999999986)"><text x="12.383995056152344" y="0" font-family="Virgil, Segoe UI Emoji" font-size="36px" fill="#1e1e1e" text-anchor="middle" style="white-space: pre;" direction="ltr" dominant-baseline="text-before-edge">0</text></g><g stroke-linecap="round" transform="translate(226.84547797780334 61.95153034612645) rotate(0 33.49478025456827 35.46506144601349)"><path d="M1.26 1.49 C14.06 -1.51, 27.89 1.27, 68.89 -1.36 M0.37 0.23 C17.23 0.42, 32.55 -0.49, 67.21 -0.94 M65.65 1.4 C66.38 28.9, 68.01 55.7, 65.83 72.18 M66.88 -0.79 C67.18 28.4, 65.55 56.79, 67.84 70.04 M68.61 70.54 C52.98 69.85, 36.66 72.2, -1.79 70.85 M67.33 70.94 C46.28 69.91, 23.53 71.29, 0.66 71.29 M-1.64 72.7 C-0.14 49.36, -0.7 31.19, 1.75 -0.07 M-0.25 70.79 C-0.03 48.47, 0.07 24.01, 0.13 0.06" stroke="#000000" stroke-width="4" fill="none"></path></g><g transform="translate(255.46225988032083 74.91659179213994) rotate(0 4.877998352050781 22.5)"><text x="4.877998352050781" y="0" font-family="Virgil, Segoe UI Emoji" font-size="36px" fill="#1e1e1e" text-anchor="middle" style="white-space: pre;" direction="ltr" dominant-baseline="text-before-edge">1</text></g><g stroke-linecap="round" transform="translate(293.83503848695625 61.95153034612645) rotate(0 33.49478025456827 35.46506144601349)"><path d="M0.66 1.77 C26.98 -1.02, 49.13 2.08, 66.26 0.73 M-0.8 -0.74 C21.89 -1.05, 44.16 -0.29, 67.6 -0.67 M68.14 1.4 C65.65 27.49, 68.73 50.77, 66.53 70.72 M66.16 0.62 C68.41 14.81, 66.91 30.44, 67.93 71.74 M68.18 71.56 C46.41 70.28, 29.83 68.59, -1.46 71.61 M66.66 71.77 C47.49 70.94, 26.44 70.74, 0.05 70.11 M-0.58 70.39 C1.76 43.3, 0.61 14.67, -0.09 -0.5 M-0.33 70.81 C0.44 50.69, -0.25 30.71, -0.42 0.15" stroke="#000000" stroke-width="4" fill="none"></path></g><g transform="translate(322.4518203894737 74.91659179213994) rotate(0 4.877998352050781 22.5)"><text x="4.877998352050781" y="0" font-family="Virgil, Segoe UI Emoji" font-size="36px" fill="#1e1e1e" text-anchor="middle" style="white-space: pre;" direction="ltr" dominant-baseline="text-before-edge">1</text></g><g stroke-linecap="round" transform="translate(359.6858375014332 61.14953948274672) rotate(0 33.49478025456827 35.46506144601349)"><path d="M-1.02 1.74 C25.29 1.19, 52.51 1.56, 67.35 -1.6 M0.83 -0.17 C15.76 -0.04, 31 0.38, 67.87 0.57 M68.91 -1.71 C66.12 26.02, 65 54.05, 67.61 69.26 M66.34 -0.96 C68.54 26.51, 67.4 52.27, 66.13 71.52 M67.43 69.16 C43.31 71.59, 22.56 72.63, -1.06 70.27 M66.75 71.1 C41.29 70.35, 16.38 71.16, -0.98 70.64 M0.6 69.8 C-0.71 51.06, -0.9 31.31, 1.87 -0.67 M-0.56 71.31 C-0.51 50.68, -0.87 30.11, 0.8 0.59" stroke="#000000" stroke-width="4" fill="none"></path></g><g transform="translate(388.30261940395064 74.11460092876021) rotate(0 4.877998352050781 22.5)"><text x="4.877998352050781" y="0" font-family="Virgil, Segoe UI Emoji" font-size="36px" fill="#1e1e1e" text-anchor="middle" style="white-space: pre;" direction="ltr" dominant-baseline="text-before-edge">1</text></g><g stroke-linecap="round" transform="translate(426.6753980105439 61.14953948274672) rotate(0 33.49478025456827 35.46506144601349)"><path d="M0.47 1.11 C26.28 -1.85, 50.38 0.2, 65.12 1.66 M0.7 -0.25 C19.83 1.02, 38.6 -0.13, 67.61 0.96 M65.42 1.59 C67.45 13.54, 68.07 32.11, 65.22 69.63 M66.8 0.88 C66.8 15.06, 67.98 28.04, 66.95 71.15 M67.01 72.65 C51.76 70.5, 40.35 72.48, 0.73 70.46 M67.88 70.92 C44.79 70.09, 24.28 71.26, -0.03 71.23 M-0.28 70.06 C1.9 53, -0.22 36.67, 0.11 -1.13 M-0.77 70.9 C1.1 47.57, -0.06 22.84, -0.89 -0.68" stroke="#000000" stroke-width="4" fill="none"></path></g><g transform="translate(455.29217991306143 74.11460092876021) rotate(0 4.877998352050781 22.5)"><text x="4.877998352050781" y="0" font-family="Virgil, Segoe UI Emoji" font-size="36px" fill="#1e1e1e" text-anchor="middle" style="white-space: pre;" direction="ltr" dominant-baseline="text-before-edge">1</text></g><g stroke-linecap="round" transform="translate(494.3217189168378 61.14953948274672) rotate(0 33.49478025456827 35.46506144601349)"><path d="M-1.48 0.45 C21.94 2.19, 47.27 1.76, 65.65 1.4 M0.7 -0.58 C19.07 0.58, 36.04 -0.61, 66.88 -0.79 M68.24 1.7 C65.44 25.63, 65.29 55.74, 68.61 70.54 M67.31 -0.89 C66.34 27.71, 65.5 54.25, 67.33 70.94 M68.68 72.25 C41.85 70.24, 15.59 70.82, -1.64 72.7 M66.72 71.8 C46.94 71.03, 26.39 70.69, -0.25 70.79 M-0.25 71.2 C-0.55 51.61, 0.09 33.71, 0.3 -1.54 M-0.36 70.74 C-1.46 49.21, -0.85 28.48, 0.26 0.86" stroke="#000000" stroke-width="4" fill="none"></path></g><g transform="translate(522.9385008193553 74.11460092876021) rotate(0 4.877998352050781 22.5)"><text x="4.877998352050781" y="0" font-family="Virgil, Segoe UI Emoji" font-size="36px" fill="#1e1e1e" text-anchor="middle" style="white-space: pre;" direction="ltr" dominant-baseline="text-before-edge">1</text></g><g stroke-linecap="round" transform="translate(566.337494558682 62.251078089104) rotate(0 33.49478025456827 35.46506144601349)"><path d="M-0.34 1.22 C20.26 0.84, 42.71 1.2, 68.14 1.4 M-0.86 -0.23 C16.1 -1.43, 33.21 -0.33, 66.16 0.62 M65.07 1.89 C67.98 26.93, 68.11 52.93, 68.18 71.56 M66.1 -0.73 C67.3 14.95, 67.82 29.35, 66.66 71.77 M67.33 71.04 C40.83 72.54, 17.91 68.81, -0.58 70.39 M66.42 70.89 C40.79 70.99, 14.65 72.06, -0.33 70.81 M0.75 70.1 C0.26 47.17, -0.11 28.09, 1.18 -0.72 M-0.28 70.56 C0.9 51.88, 1.57 30.81, 0.46 0.27" stroke="#000000" stroke-width="4" fill="none"></path></g><g transform="translate(594.9542764611995 75.21613953511749) rotate(0 4.877998352050781 22.5)"><text x="4.877998352050781" y="0" font-family="Virgil, Segoe UI Emoji" font-size="36px" fill="#1e1e1e" text-anchor="middle" style="white-space: pre;" direction="ltr" dominant-baseline="text-before-edge">1</text></g><g stroke-linecap="round" transform="translate(632.9842670937653 60.238183611049294) rotate(0 33.49478025456827 35.46506144601349)"><path d="M-0.49 1.75 C25.33 0.93, 47.21 0.78, 68.91 -1.71 M0.8 0.31 C17.72 1.15, 37.96 -0.36, 66.34 -0.96 M68.74 -1.71 C68.75 28.61, 65.78 55.87, 67.43 69.16 M67.85 -0.53 C66.9 16.95, 67.89 32.57, 66.75 71.1 M66.97 68.96 C45.95 70.99, 27.82 71.46, 0.6 69.8 M66.55 71.86 C46.84 70.71, 27.5 70.89, -0.56 71.31 M-0.07 72.54 C1.07 51.89, -0.49 32.49, -1.35 -0.56 M0.94 70.64 C0.27 52.57, -0.98 34.58, 0.34 -0.82" stroke="#000000" stroke-width="4" fill="none"></path></g><g transform="translate(661.6010489962828 73.20324505706279) rotate(0 4.877998352050781 22.5)"><text x="4.877998352050781" y="0" font-family="Virgil, Segoe UI Emoji" font-size="36px" fill="#1e1e1e" text-anchor="middle" style="white-space: pre;" direction="ltr" dominant-baseline="text-before-edge">1</text></g><g stroke-linecap="round" transform="translate(703.4330655778532 61.35645263344293) rotate(0 33.49478025456827 35.46506144601349)"><path d="M-1.16 1.25 C27.88 -2.18, 51.47 -0.68, 65.42 1.59 M0.85 -0.89 C21.54 -1.38, 45.32 0.39, 66.8 0.88 M65.2 -0.08 C67.85 13.44, 65.95 31.1, 67.01 72.65 M67.65 0.36 C66.52 17.68, 66.81 34.2, 67.88 70.92 M68.74 70.86 C54.07 69.62, 39.88 70.26, -0.28 70.06 M67.12 70.99 C40.08 71.22, 13.89 70.99, -0.77 70.9 M-0.38 69.15 C-1.77 43.4, -1.17 17.51, 1.72 1.87 M-0.79 71.84 C0.01 50.88, 0.57 33.12, 0.96 -0.22" stroke="#000000" stroke-width="4" fill="none"></path></g><g transform="translate(732.0498474803707 74.32151407945642) rotate(0 4.877998352050781 22.5)"><text x="4.877998352050781" y="0" font-family="Virgil, Segoe UI Emoji" font-size="36px" fill="#1e1e1e" text-anchor="middle" style="white-space: pre;" direction="ltr" dominant-baseline="text-before-edge">1</text></g><g stroke-linecap="round" transform="translate(226.9018585904442 642.6875496692937) rotate(0 33.49478025456827 35.46506144601352)"><path d="M-0.3 -0.44 C17.41 -0.79, 34.48 0.6, 67.44 -0.19 M-0.9 0.71 C16.14 -0.92, 31.36 -1.3, 67.57 0.5 M66.36 0.75 C66.26 20.47, 67.77 39.41, 65.8 71.38 M66.91 0.06 C67.96 28.83, 68.34 56.06, 67.66 71.76 M65.44 69.7 C51.22 70.84, 36.9 71.04, -1.32 72.17 M66.23 71.29 C48.81 71.25, 33.01 71.69, 0.35 71.77 M1.78 71.4 C1.91 54.95, 0.7 39.9, 1.01 1.79 M-0.44 71.46 C0.81 47.35, 0.08 21.33, -0.11 0.27" stroke="#000000" stroke-width="4" fill="none"></path></g><g transform="translate(248.01264378886012 655.6526111153071) rotate(0 12.383995056152344 22.5)"><text x="12.383995056152344" y="0" font-family="Virgil, Segoe UI Emoji" font-size="36px" fill="#1e1e1e" text-anchor="middle" style="white-space: pre;" direction="ltr" dominant-baseline="text-before-edge">0</text></g><g stroke-linecap="round" transform="translate(293.8914190995971 642.6875496692937) rotate(0 33.49478025456827 35.46506144601352)"><path d="M-0.02 0.58 C19.08 0.08, 35.95 1.3, 68.85 -1.79 M-0.06 -0.68 C25.45 0.69, 49.48 1.03, 67.05 -0.31 M67.19 0.6 C65.33 24.39, 68.51 48.91, 66.97 70.78 M67.97 -0.56 C68.09 22.54, 66.72 43.11, 66.43 70.15 M67.85 71.42 C49.69 72.27, 34.25 70.01, 0.09 69.41 M67.94 71.66 C44.82 71.97, 21.21 70.32, -0.02 71.82 M0.13 71.95 C0.54 49.77, 0.41 23.59, 0.99 -0.87 M-0.43 70.21 C-0.33 46.13, -1.19 20.86, 0.93 -0.18" stroke="#000000" stroke-width="4" fill="none"></path></g><g transform="translate(315.002204298013 655.6526111153071) rotate(0 12.383995056152344 22.5)"><text x="12.383995056152344" y="0" font-family="Virgil, Segoe UI Emoji" font-size="36px" fill="#1e1e1e" text-anchor="middle" style="white-space: pre;" direction="ltr" dominant-baseline="text-before-edge">0</text></g><g stroke-linecap="round" transform="translate(360.9712841633668 642.6875496692937) rotate(0 33.49478025456827 35.46506144601352)"><path d="M-1.31 1.03 C23.9 -1.73, 45.51 0.93, 66.4 -0.12 M-0.26 0.83 C15.59 -0.65, 31.44 -0.99, 67.52 0.1 M68.97 1.04 C66.55 23.25, 66.69 48.01, 68.02 72.89 M66.3 -0.3 C66.9 16.53, 66.85 34.45, 67.13 71.36 M66.2 69.91 C45.34 69.82, 24.24 69.91, 0.59 72.83 M66.25 70.13 C41.97 72.39, 17.21 72.17, 0.02 71 M0.89 69.49 C0.63 45.15, 0.71 21.72, 1.72 -0.86 M-0.98 71 C1.01 54.58, 0.66 39.29, 0.86 -0.93" stroke="#000000" stroke-width="4" fill="none"></path></g><g transform="translate(382.0820693617827 655.6526111153071) rotate(0 12.383995056152344 22.5)"><text x="12.383995056152344" y="0" font-family="Virgil, Segoe UI Emoji" font-size="36px" fill="#1e1e1e" text-anchor="middle" style="white-space: pre;" direction="ltr" dominant-baseline="text-before-edge">0</text></g><g stroke-linecap="round" transform="translate(427.96084467247755 642.6875496692937) rotate(0 33.49478025456827 35.46506144601352)"><path d="M1.43 0.87 C22.96 0.48, 45.75 1.77, 67.98 -0.53 M0.37 -0.66 C26.18 0.31, 51.59 -0.38, 67.21 0.99 M67.11 1.2 C68.01 26.91, 65.86 51.25, 68.65 69.55 M66.37 -0.15 C66.74 19.58, 66.83 37.64, 67.61 70.54 M67.71 69.5 C50.9 72.32, 35.09 71.12, 1.69 69.45 M67.23 71.6 C52.29 71.59, 38.06 72.03, 0.89 71.38 M1.07 71.53 C1.37 53.91, -1.79 38.37, 0.54 -1.96 M0.57 71.65 C0.2 48.24, -1.2 26.91, -0.3 -0.03" stroke="#000000" stroke-width="4" fill="none"></path></g><g transform="translate(449.0716298708935 655.6526111153071) rotate(0 12.383995056152344 22.5)"><text x="12.383995056152344" y="0" font-family="Virgil, Segoe UI Emoji" font-size="36px" fill="#1e1e1e" text-anchor="middle" style="white-space: pre;" direction="ltr" dominant-baseline="text-before-edge">0</text></g><g stroke-linecap="round" transform="translate(495.60716557877146 642.6875496692937) rotate(0 33.49478025456827 35.46506144601352)"><path d="M-1.36 1.16 C24 -0.49, 47.67 0.16, 66.36 0.75 M0.3 -0.59 C15.92 0.93, 31.92 -0.08, 66.91 0.06 M65.87 1.35 C69.01 24.14, 66.75 49.92, 65.44 69.7 M67.23 -0.66 C67.71 19.83, 66.58 40.48, 66.23 71.29 M68.46 71.63 C53.38 70.09, 34.79 71.53, 1.78 71.4 M67.5 71.44 C43.29 71.42, 17.08 71.47, -0.44 71.46 M-1.44 70.7 C-0.07 45.58, -0.47 26, -0.35 1.15 M-0.54 70.41 C-0.91 44.55, -1.16 17.29, 0.01 0.96" stroke="#000000" stroke-width="4" fill="none"></path></g><g transform="translate(516.7179507771874 655.6526111153071) rotate(0 12.383995056152344 22.5)"><text x="12.383995056152344" y="0" font-family="Virgil, Segoe UI Emoji" font-size="36px" fill="#1e1e1e" text-anchor="middle" style="white-space: pre;" direction="ltr" dominant-baseline="text-before-edge">0</text></g><g stroke-linecap="round" transform="translate(567.6229412206156 643.789088275651) rotate(0 33.49478025456827 35.46506144601352)"><path d="M1.66 0.12 C23.37 0.93, 46.68 1.24, 67.19 0.6 M0.52 -0.01 C16.04 -0.6, 32.82 -0.15, 67.97 -0.56 M66.39 -1.13 C66.03 24.82, 67.28 52.4, 67.85 71.42 M66.48 0.05 C66.67 16.94, 66.71 33.46, 67.94 71.66 M65.38 70.89 C46.32 70.91, 23.43 70.48, 0.13 71.95 M66.27 71.42 C43.06 71.76, 20.31 72.09, -0.43 70.21 M0.13 72.78 C-0.54 51.61, 1.24 31.71, -1.87 -1.09 M-0.55 70 C0.22 54.27, 1.13 36.29, 0.92 0.88" stroke="#000000" stroke-width="4" fill="none"></path></g><g transform="translate(588.7337264190315 656.7541497216644) rotate(0 12.383995056152344 22.5)"><text x="12.383995056152344" y="0" font-family="Virgil, Segoe UI Emoji" font-size="36px" fill="#1e1e1e" text-anchor="middle" style="white-space: pre;" direction="ltr" dominant-baseline="text-before-edge">0</text></g><g stroke-linecap="round" transform="translate(634.269713755699 641.7761937975961) rotate(0 33.49478025456827 35.46506144601352)"><path d="M-1.31 1.07 C20.7 0.35, 39.82 0.2, 68.97 1.04 M0.6 0.51 C21.01 -0.6, 40.73 0.79, 66.3 -0.3 M66.69 0.29 C67.3 17.77, 65.11 35.8, 66.2 69.91 M66.27 0.29 C67.4 22.33, 66.8 44.04, 66.25 70.13 M68.33 70.98 C47.15 72.11, 28.05 72.87, 0.89 69.49 M67.29 71.79 C43.16 70.57, 20.08 71.56, -0.98 71 M1.43 72.65 C-1.74 42, -0.91 14.64, -0.05 -1.09 M0.92 71.54 C0.91 57.12, 0.76 41.22, 0.13 -0.98" stroke="#000000" stroke-width="4" fill="none"></path></g><g transform="translate(655.3804989541148 654.7412552436094) rotate(0 12.383995056152344 22.5)"><text x="12.383995056152344" y="0" font-family="Virgil, Segoe UI Emoji" font-size="36px" fill="#1e1e1e" text-anchor="middle" style="white-space: pre;" direction="ltr" dominant-baseline="text-before-edge">0</text></g><g stroke-linecap="round" transform="translate(704.7185122397868 642.8944628199897) rotate(0 33.49478025456827 35.46506144601352)"><path d="M-1.19 0.45 C25.65 0.83, 47.31 -0.35, 67.11 1.2 M0.67 0.83 C22.85 0.08, 46.51 -0.4, 66.37 -0.15 M65.66 1.24 C66.51 21.29, 67.38 43.1, 67.71 69.5 M67.34 0.84 C66.92 22.57, 67.65 47.63, 67.23 71.6 M68 72.72 C47.62 69.83, 27.45 70.4, 1.07 71.53 M66.88 71.2 C40.16 70.52, 16.22 70.27, 0.57 71.65 M-1.03 70.33 C0.61 42.46, -1.2 16.18, 1.92 1.84 M0.77 70.6 C-0.52 44.36, -0.18 20.01, -0.1 -0.89" stroke="#000000" stroke-width="4" fill="none"></path></g><g transform="translate(725.8292974382027 655.8595242660031) rotate(0 12.383995056152344 22.5)"><text x="12.383995056152344" y="0" font-family="Virgil, Segoe UI Emoji" font-size="36px" fill="#1e1e1e" text-anchor="middle" style="white-space: pre;" direction="ltr" dominant-baseline="text-before-edge">0</text></g><g stroke-linecap="round" transform="translate(30.297273631558255 501.1259941458904) rotate(0.8745190105821663 38.5 35.5)"><path d="M0.63 -0.15 C26.41 -0.9, 55.22 -1.65, 78.17 0.88 M0.71 -0.4 C28.29 0.09, 56.94 -0.02, 77.01 0.86 M77.67 0.11 C74.59 15.5, 78.24 35.2, 78.92 69.04 M77.81 -0.89 C77.02 26.93, 78.38 56.24, 76.98 70.61 M75.98 69.97 C53.9 71.13, 30.81 72.46, -1.87 71.72 M77.77 71.62 C55.65 71.67, 34.07 71.35, 0.15 71.92 M-1.64 71.96 C-1.92 51.02, 0.98 31.57, 1.15 -1.92 M-0.41 70.68 C-0.01 51.89, -1.15 31.07, 0.46 -0.17" stroke="#000000" stroke-width="4" fill="none"></path></g><g transform="translate(40.14128303097232 514.1259941458904) rotate(0.8745190105821663 28.655990600585938 22.5)"><text x="28.655990600585938" y="0" font-family="Virgil, Segoe UI Emoji" font-size="36px" fill="#1e1e1e" text-anchor="middle" style="white-space: pre;" direction="ltr" dominant-baseline="text-before-edge">192</text></g><g stroke-linecap="round" transform="translate(30.797273631558255 572.4632481132994) rotate(0 38 35.5)"><path d="M1.94 -1.79 C23.41 1.28, 45.77 -1.03, 77.73 1.43 M0.75 0.64 C19.76 0.28, 38.92 -1.41, 75.32 0.34 M77.84 0.83 C77.27 19.75, 77.14 44.8, 75.63 72.62 M76.89 0.97 C75.64 14.56, 75.7 30.37, 75.57 70.49 M76.55 72.8 C55.26 71.89, 37.92 71.94, 1.86 72.54 M76.72 70.64 C48.64 71.88, 20.89 71.42, 0.83 70.18 M1.3 72.98 C1.71 44.36, 0.17 22.47, -0.34 -0.83 M-0.83 70.88 C0.24 51.81, -0.83 33.51, -0.79 -0.1" stroke="#000000" stroke-width="4" fill="none"></path></g><g transform="translate(37.333284373745755 585.4632481132994) rotate(0 31.4639892578125 22.5)"><text x="31.4639892578125" y="0" font-family="Virgil, Segoe UI Emoji" font-size="36px" fill="#1e1e1e" text-anchor="middle" style="white-space: pre;" direction="ltr" dominant-baseline="text-before-edge">128</text></g><g stroke-linecap="round" transform="translate(25.37242565150507 432.2858005684665) rotate(0 44.5 31)"><path d="M1.3 -1.43 C20.46 1.04, 36.67 0.01, 90.51 1.49 M-0.58 -0.84 C31.72 -0.43, 64.87 -1.67, 88.16 0.92 M90.78 1.39 C89.22 22.81, 87.8 41.41, 87.6 63.77 M89.03 0.47 C88.55 24.12, 88.47 49.4, 89.23 62.27 M88.67 62.76 C56.17 63.86, 20.85 63.26, -0.1 63.45 M88.92 62.45 C66.37 62, 42.56 62.02, 0.36 62.65 M-0.39 62.91 C-0.7 36.43, -1 13.14, 1.58 -1.66 M-0.61 62.56 C-1.08 44.05, 0.01 26.76, -0.68 0.51" stroke="#000000" stroke-width="4" fill="none"></path></g><g transform="translate(32.72044048304804 440.7858005684664) rotate(0 37.15198516845703 22.5)"><text x="37.15198516845703" y="0" font-family="Virgil, Segoe UI Emoji" font-size="36px" fill="#1e1e1e" text-anchor="middle" style="white-space: pre;" direction="ltr" dominant-baseline="text-before-edge">224</text></g><g stroke-linecap="round" transform="translate(26.5720636394675 357.1404359942654) rotate(0 44.5 35)"><path d="M-0.8 0.4 C21.87 0.86, 42 -0.62, 90.71 -1.16 M0.06 -0.9 C18.37 0.62, 38.84 0.66, 88.02 0.89 M87.21 -0.95 C87.47 27.63, 90.82 51.68, 88.21 70.07 M88.48 0.13 C88.93 24.56, 89.59 47.64, 89.36 69.83 M90.24 70.95 C58.81 72.13, 28.08 70.99, 1.84 69.83 M89.48 69.2 C58.64 69.92, 28.55 69.84, -0.96 69.8 M-0.64 70.63 C1.7 44.17, -0.12 22.57, -0.34 -1.22 M0.29 70.46 C-0.13 45.56, 0.91 20.95, -0.01 -0.28" stroke="#000000" stroke-width="4" fill="none"></path></g><g transform="translate(34.35207767755344 369.6404359942654) rotate(0 36.71998596191406 22.5)"><text x="36.71998596191406" y="0" font-family="Virgil, Segoe UI Emoji" font-size="36px" fill="#1e1e1e" text-anchor="middle" style="white-space: pre;" direction="ltr" dominant-baseline="text-before-edge">240</text></g><g stroke-linecap="round" transform="translate(26.5720636394675 284.455167717032) rotate(0 45 34.5)"><path d="M1.28 0.02 C30.52 -1.83, 55.92 -2.04, 90.67 0.11 M0.42 0.96 C17.88 0.06, 38.41 -1.01, 90.81 -0.89 M91.95 -0.04 C88.73 17.49, 90.46 33.97, 88.98 67.97 M90.9 -0.93 C90.52 21.46, 90.54 44.18, 90.77 69.62 M89.27 69.3 C60.58 69.48, 28.39 71.31, -1.64 69.96 M90.99 69.57 C69.24 69.39, 50.86 69.41, -0.41 68.68 M-0.24 69.92 C-0.88 44.91, 0.58 21.67, -0.19 0.59 M0.35 69.86 C0.46 44.84, 0.95 20.84, 0.85 0.17" stroke="#000000" stroke-width="4" fill="none"></path></g><g transform="translate(33.466076090639376 296.455167717032) rotate(0 38.105987548828125 22.5)"><text x="38.105987548828125" y="0" font-family="Virgil, Segoe UI Emoji" font-size="36px" fill="#1e1e1e" text-anchor="middle" style="white-space: pre;" direction="ltr" dominant-baseline="text-before-edge">248</text></g><g stroke-linecap="round" transform="translate(25.0720636394675 211.6580691249772) rotate(0 45 33)"><path d="M-1.68 -1.37 C27.75 0.64, 52.35 -1.16, 91.84 0.83 M0.69 -0.18 C36.43 -1.7, 70.76 -1.5, 90.89 0.97 M90.94 -0.87 C88.72 18.63, 90.01 39.78, 90.55 67.8 M90.38 0.93 C91.01 14.26, 90.71 27.24, 90.72 65.64 M90.9 67.66 C60 66.89, 31.68 66.65, 1.3 67.98 M90.45 65.83 C57.43 65.5, 26 66.61, -0.83 65.88 M1.13 64.41 C-0.08 43.76, 1.03 18.98, 1.02 0.7 M0.48 65.6 C0.86 40.71, 0.04 14.19, -0.02 -0.95" stroke="#000000" stroke-width="4" fill="none"></path></g><g transform="translate(33.316082194155 222.1580691249772) rotate(0 36.7559814453125 22.5)"><text x="36.7559814453125" y="0" font-family="Virgil, Segoe UI Emoji" font-size="36px" fill="#1e1e1e" text-anchor="middle" style="white-space: pre;" direction="ltr" dominant-baseline="text-before-edge">252</text></g><g stroke-linecap="round" transform="translate(24.0720636394675 136.4008401101338) rotate(0 46.5 35.5)"><path d="M-1.81 -1.68 C23.37 0.78, 44.98 -2.01, 94.78 1.39 M-0.48 -0.7 C27.07 1.8, 52.35 0.44, 93.03 0.47 M93.27 0.46 C93.19 20.01, 90.77 37.14, 92.67 71.76 M93.47 -0.05 C94.27 27.55, 93.7 56.74, 92.92 71.45 M91.4 71.72 C58.68 73.43, 22.91 69.52, -0.39 71.91 M93.31 71.79 C65.85 70.58, 40.82 70.53, -0.61 71.56 M0.92 69.64 C1.09 56.03, 1.78 39.64, -0.56 0.96 M0.03 70.12 C-0.63 51.55, 0.19 34.37, -0.12 0.12" stroke="#000000" stroke-width="4" fill="none"></path></g><g transform="translate(35.11207981378391 149.4008401101338) rotate(0 35.459983825683594 22.5)"><text x="35.459983825683594" y="0" font-family="Virgil, Segoe UI Emoji" font-size="36px" fill="#1e1e1e" text-anchor="middle" style="white-space: pre;" direction="ltr" dominant-baseline="text-before-edge">254</text></g><g stroke-linecap="round" transform="translate(23.5720636394675 62.597371062148284) rotate(0 45.5 35.5)"><path d="M1.92 -1.96 C21.44 1.01, 38.95 1.24, 89.21 -0.95 M-0.02 -0.39 C20.97 -0.42, 41.43 -1.39, 90.48 0.13 M89.13 0.72 C90.86 23.7, 93.06 47.41, 92.24 71.95 M91.15 0.92 C91.43 21.41, 92.34 41.09, 91.48 70.2 M92.15 69.08 C60.01 72.81, 29.46 71.07, -0.64 71.63 M91.46 70.83 C55.91 71.45, 21.25 70.79, 0.29 71.46 M1.72 70.98 C-0.92 55.5, -1.15 39.79, 0.34 0.07 M0.8 71.36 C-0.11 56.1, -0.98 41.86, -0.5 -0.31" stroke="#000000" stroke-width="4" fill="none"></path></g><g transform="translate(34.00808353692844 75.59737106214828) rotate(0 35.06398010253906 22.5)"><text x="35.06398010253906" y="0" font-family="Virgil, Segoe UI Emoji" font-size="36px" fill="#1e1e1e" text-anchor="middle" style="white-space: pre;" direction="ltr" dominant-baseline="text-before-edge">255</text></g><g stroke-linecap="round" transform="translate(30.297273631558255 644.4085424052626) rotate(0 38.5 35.5)"><path d="M-0.37 1.62 C13.77 -1.49, 29.72 1.24, 78.95 -0.04 M-0.43 -0.51 C19.55 -0.23, 40.37 -0.09, 77.9 -0.93 M78.86 1.54 C78.12 24.79, 76.79 49.13, 76.27 71.3 M77.83 -0.82 C77.42 27.01, 77.3 56.28, 77.99 71.57 M76.66 70.17 C60.66 71.98, 47.18 69.69, -0.24 71.92 M76.21 70.9 C55.49 71.9, 32.7 71.95, 0.35 71.86 M-0.79 72.7 C0.54 49.85, -1.57 28.53, -1.9 1.6 M-0.99 71.89 C-0.41 46.8, -0.59 24.02, 0.22 0.65" stroke="#000000" stroke-width="4" fill="none"></path></g><g transform="translate(56.41327857540591 657.4085424052626) rotate(0 12.383995056152344 22.5)"><text x="12.383995056152344" y="0" font-family="Virgil, Segoe UI Emoji" font-size="36px" fill="#1e1e1e" text-anchor="middle" style="white-space: pre;" direction="ltr" dominant-baseline="text-before-edge">0</text></g><g transform="translate(10 10) rotate(0 58.733985900878906 22.5)"><text x="0" y="0" font-family="Virgil, Segoe UI Emoji" font-size="36px" fill="#1e1e1e" text-anchor="start" style="white-space: pre;" direction="ltr" dominant-baseline="text-before-edge">Subnet</text></g></svg>