<svg version="1.1" xmlns="http://www.w3.org/2000/svg" viewBox="0 0 380.5021387834378 764.7441001513173" width="380.5021387834378" height="764.7441001513173" filter="invert(93%) hue-rotate(180deg)">
  <!-- svg-source:excalidraw -->
  
  <defs>
    <style class="style-fonts">
      @font-face {
        font-family: "Virgil";
        src: url("https://excalidraw.com/Virgil.woff2");
      }
      @font-face {
        font-family: "Cascadia";
        src: url("https://excalidraw.com/Cascadia.woff2");
      }
    </style>
    
  </defs>
  <g stroke-linecap="round" transform="translate(10 81.40073296097103) rotate(0 180.2510693917189 66.40190522468663)"><path d="M-1.01 0.39 C129.77 -0.07, 256.02 -0.01, 361.41 0.86 M-0.33 0.42 C142.3 -1.73, 284.71 -2.46, 359.87 -0.53 M361.95 1.36 C361.11 46.63, 359.74 98.09, 362.34 132.93 M361.42 -0.63 C359.99 34.31, 360.12 67.4, 360.2 133.39 M359.87 133.12 C246.93 133.72, 133.17 132.86, 0.91 132.41 M360.21 132.57 C278.02 132.64, 195.02 132.97, -0.11 132.97 M0.82 133.48 C-1.96 82.12, -0.6 27.69, -1.84 1.23 M0.59 133.41 C1.12 101.03, 0.19 69.22, -0.52 -0.31" stroke="#000000" stroke-width="4" fill="none"></path></g><g stroke-linecap="round" transform="translate(10 214.65022152058793) rotate(0 180.2510693917189 66.40190522468657)"><path d="M1.15 0.76 C120.04 0.12, 243.42 0.16, 361.71 -0.8 M-0.36 0.52 C143.16 -1.72, 286.9 -2.05, 360.9 -0.43 M362.01 -1.61 C361.6 33.7, 363.3 64.3, 359.62 132.45 M360.23 0.35 C361.56 47.15, 361.41 95.93, 360.64 132.5 M360.05 133.47 C247.28 133.18, 137.18 132.99, -0.9 132.49 M360.51 132.22 C245.22 131.7, 130.86 132.12, 0.61 133.11 M-1.32 134.69 C-0.51 98.25, -2.39 64.87, -1.24 -0.28 M0.94 132.63 C-0.77 87.26, -1.29 42.16, -0.77 0.17" stroke="#000000" stroke-width="4" fill="none"></path></g><g stroke-linecap="round" transform="translate(10 349.0078139352024) rotate(0 180.2510693917189 66.40190522468663)"><path d="M-1.22 0.82 C120.08 -0.51, 239.54 -2.16, 361.75 -0.67 M-0.61 -0.2 C131.45 -2.41, 264.57 -2.31, 360.13 0.46 M360.64 1.62 C363.34 49, 360.62 97.4, 361.68 134.63 M360.35 -0.52 C359.83 32, 360.27 62.53, 360.61 132.31 M359.4 132.6 C244.19 133.61, 125.14 133.69, 0.23 132.22 M359.99 132.55 C265.69 130.86, 171.7 131, -0.25 133.06 M0.04 132.84 C-0.97 89.69, -0.36 43.85, 0.8 1.17 M0.01 132.43 C-1.76 84.59, -2.01 37.17, 0.94 0.12" stroke="#000000" stroke-width="4" fill="none"></path></g><g stroke-linecap="round" transform="translate(10 485.3045880960253) rotate(0 180.2510693917189 66.40190522468663)"><path d="M0.91 0.86 C130.94 -2.27, 260.7 -2.14, 361.34 -0.71 M-0.63 -0.53 C138.31 0.31, 275.45 1.19, 360.93 0.48 M362.34 0.12 C359.71 28.81, 361.77 60.15, 359.23 132.25 M360.2 0.58 C360.44 44.14, 360.41 88.37, 360.75 132.44 M361.41 132.41 C232.51 132.13, 106.55 131.86, -0.47 132.81 M360.39 132.97 C286.28 132.2, 210.59 132.15, 0.21 132.39 M-1.84 134.03 C-1.27 80.18, 0.78 29.28, 1.21 1.87 M-0.52 132.49 C-0.78 95.44, 0.93 57.85, -0.23 -0.2" stroke="#000000" stroke-width="4" fill="none"></path></g><g stroke-linecap="round" transform="translate(10 617.445972800695) rotate(0 180.2510693917189 66.40190522468663)"><path d="M1.21 -0.8 C132.7 -2.21, 263.74 -2.26, 361.55 -1.21 M0.4 -0.43 C96.1 2.38, 193.38 2.4, 359.99 0.04 M359.62 -0.35 C362.9 52.4, 360.45 100.59, 361.19 132.5 M360.64 -0.3 C360.21 32.44, 360.35 65.52, 361.03 131.93 M359.6 132.49 C258.25 131.51, 155.06 132.1, -1.17 131.78 M361.11 133.11 C266.5 133.66, 173.21 132.98, 0.6 132.82 M-1.24 132.53 C2.03 93.93, 2.44 54.58, -0.35 0.02 M-0.77 132.98 C1.63 98.05, 0.46 62.85, -0.06 -0.91" stroke="#000000" stroke-width="4" fill="none"></path></g><g transform="translate(41.89595076444448 118.2983680765833) rotate(0 149.57992553710938 45)"><text x="149.57992553710938" y="0" font-family="Virgil, Segoe UI Emoji" font-size="36px" fill="#1e1e1e" text-anchor="middle" style="white-space: pre;" direction="ltr" dominant-baseline="text-before-edge">Application Layer</text><text x="149.57992553710938" y="45" font-family="Virgil, Segoe UI Emoji" font-size="36px" fill="#1e1e1e" text-anchor="middle" style="white-space: pre;" direction="ltr" dominant-baseline="text-before-edge"></text></g><g transform="translate(45.358794237511916 255.38986261008563) rotate(0 146.96995544433594 45)"><text x="146.96995544433594" y="0" font-family="Virgil, Segoe UI Emoji" font-size="36px" fill="#1e1e1e" text-anchor="middle" style="white-space: pre;" direction="ltr" dominant-baseline="text-before-edge">Transport Layer</text><text x="146.96995544433594" y="45" font-family="Virgil, Segoe UI Emoji" font-size="36px" fill="#1e1e1e" text-anchor="middle" style="white-space: pre;" direction="ltr" dominant-baseline="text-before-edge"></text></g><g transform="translate(61.62711946482739 387.683564163043) rotate(0 126.86396026611328 45)"><text x="126.86396026611328" y="0" font-family="Virgil, Segoe UI Emoji" font-size="36px" fill="#1e1e1e" text-anchor="middle" style="white-space: pre;" direction="ltr" dominant-baseline="text-before-edge">Network Layer</text><text x="126.86396026611328" y="45" font-family="Virgil, Segoe UI Emoji" font-size="36px" fill="#1e1e1e" text-anchor="middle" style="white-space: pre;" direction="ltr" dominant-baseline="text-before-edge"></text></g><g transform="translate(48.45799730068779 524.7750586965451) rotate(0 140.88595581054688 45)"><text x="140.88595581054688" y="0" font-family="Virgil, Segoe UI Emoji" font-size="36px" fill="#1e1e1e" text-anchor="middle" style="white-space: pre;" direction="ltr" dominant-baseline="text-before-edge">Data link Layer</text><text x="140.88595581054688" y="45" font-family="Virgil, Segoe UI Emoji" font-size="36px" fill="#1e1e1e" text-anchor="middle" style="white-space: pre;" direction="ltr" dominant-baseline="text-before-edge"></text></g><g transform="translate(62.80401323086346 664.7441001513173) rotate(0 126.5399398803711 45)"><text x="126.5399398803711" y="0" font-family="Virgil, Segoe UI Emoji" font-size="36px" fill="#1e1e1e" text-anchor="middle" style="white-space: pre;" direction="ltr" dominant-baseline="text-before-edge">Physical Layer</text><text x="126.5399398803711" y="45" font-family="Virgil, Segoe UI Emoji" font-size="36px" fill="#1e1e1e" text-anchor="middle" style="white-space: pre;" direction="ltr" dominant-baseline="text-before-edge"></text></g><g transform="translate(63.3746967924335 10) rotate(0 123.85796356201172 22.5)"><text x="123.85796356201172" y="0" font-family="Virgil, Segoe UI Emoji" font-size="36px" fill="#1e1e1e" text-anchor="middle" style="white-space: pre;" direction="ltr" dominant-baseline="text-before-edge">TCP/IP model</text></g></svg>