<svg version="1.1" xmlns="http://www.w3.org/2000/svg" viewBox="0 0 1616.4455960957555 488.0187011776067" width="1616.4455960957555" height="488.0187011776067" filter="invert(93%) hue-rotate(180deg)">
  <!-- svg-source:excalidraw -->
  
  <defs>
    <style class="style-fonts">
      @font-face {
        font-family: "Virgil";
        src: url("https://excalidraw.com/Virgil.woff2");
      }
      @font-face {
        font-family: "Cascadia";
        src: url("https://excalidraw.com/Cascadia.woff2");
      }
    </style>
    
  </defs>
  <g stroke-linecap="round" transform="translate(397.149774631783 194.46732647103585) rotate(0 38.41163688861462 40.671144940886165)"><path d="M-1.3 -1.53 C18.54 0.71, 40.39 1.09, 75.2 1.88 M0.49 -0.46 C19.68 0.21, 39.31 0.54, 76.14 0.75 M77.08 -1.45 C76.78 19.37, 75.14 42.2, 77.81 80.75 M76.79 -0.97 C77.36 31.46, 77.27 65.16, 77.32 82.3 M78.31 82.05 C48.88 79.71, 19.56 82.32, 0.96 82.92 M77.77 80.53 C46.44 80.28, 17.03 80.48, -0.82 82.25 M-1.47 79.99 C-0.54 60.36, 1.21 43.8, 0.01 -0.8 M-0.49 81.45 C0.74 58.9, 1.16 35.88, 0.95 0.35" stroke="#000000" stroke-width="4" fill="none"></path></g><g stroke-linecap="round" transform="translate(175.99227610137208 194.46732647103585) rotate(0 110.40372025733433 40.671144940886165)"><path d="M-0.89 0.4 C60.4 2.2, 117.22 3.09, 220.08 -0.05 M-0.1 -0.11 C56.3 1.06, 112.51 1.53, 220.45 -0.34 M221.07 -1.65 C219.54 29.31, 221.89 57.75, 222.71 80.22 M221.8 -0.68 C221.68 23.25, 221.27 45.7, 221.42 80.5 M220.65 80.01 C155.72 82.94, 94.46 83.38, 1.57 82.59 M220.5 80.7 C164.02 79.33, 106.08 80.58, -0.5 80.92 M-0.94 80.11 C1.42 55.97, 0.61 25.91, -0.47 -0.92 M0.37 81.39 C1.18 58.25, 1.34 36.43, 0.23 -0.49" stroke="#000000" stroke-width="4" fill="none"></path></g><g stroke-linecap="round" transform="translate(913.5931223126968 196.76089046450596) rotate(0 38.95319348978933 41.2445578127182)"><path d="M1.26 0.85 C15.77 1.7, 33.95 -0.23, 77.03 0.97 M-0.3 0.21 C19.11 0.84, 39.17 -0.29, 78.49 0.13 M76.53 0.14 C79 18.16, 79.92 36.38, 77.41 82.42 M78.81 0.87 C79.22 17.68, 79.34 32.62, 77.79 83.23 M76.18 83.56 C52.74 83.47, 27.47 83.33, -0.84 84.38 M78.16 81.94 C60.01 82.82, 43.19 81.43, 0.36 81.75 M0.82 84.43 C0.4 62.51, -0.08 43.2, -0.44 -0.97 M0.79 82.02 C0.64 57.24, -0.07 30.8, 0.92 0.55" stroke="#000000" stroke-width="4" fill="none"></path></g><g stroke-linecap="round" transform="translate(689.3175764161668 196.76089046450596) rotate(0 111.9602762477229 41.2445578127182)"><path d="M-1.4 1.62 C71.65 -0.86, 144.01 0.02, 223.13 -0.2 M-0.59 0.64 C64.08 -0.73, 129.38 -0.29, 223.3 0.11 M224.9 -0.59 C225.26 16.8, 222.86 35.78, 221.98 84.47 M224.41 0.95 C225.28 18.3, 224.55 39.02, 224.27 82.4 M224.75 83.84 C175.52 84.76, 123.27 85.14, -1.39 81.87 M223.21 83.27 C172.83 81.03, 123.03 80.81, -0.58 82.09 M0.01 81.69 C-0.81 61.91, -0.77 42.19, 0.21 0.74 M0.95 82.84 C-0.41 56.82, 0.27 32.69, -0.17 0.84" stroke="#000000" stroke-width="4" fill="none"></path></g><g stroke-linecap="round" transform="translate(1423.1554403371804 186.43967750617475) rotate(0 39.494729432692 41.81794881108567)"><path d="M-0.84 -0.05 C26.18 0.23, 53.2 -0.98, 78.74 -0.59 M-0.42 -0.39 C25.92 -0.46, 49.95 -0.46, 78.16 -0.69 M80.89 -1.12 C78.9 25.62, 77.46 53.35, 77.63 85.44 M79.6 -0.84 C79.28 33.14, 79.76 64.69, 78.22 82.77 M80.81 85.08 C50.24 86.15, 21.55 83.54, -1.48 84.15 M78.42 83.15 C59.95 83.62, 39.52 83.89, -0.62 84.04 M-0.47 82.72 C-0.44 49.45, 0.2 17.95, 0.1 1.57 M0.23 83.15 C0.12 63, -0.96 42.1, 0.08 0.88" stroke="#000000" stroke-width="4" fill="none"></path></g><g stroke-linecap="round" transform="translate(1195.761966015894 186.43967750617475) rotate(0 113.51677286157155 41.81794881108567)"><path d="M-0.75 0.83 C88.67 -0.15, 178.69 -0.45, 227.39 -1.17 M0.5 0.11 C84.46 0.87, 169.46 0.16, 227.09 0.42 M226.53 -0.07 C225.89 24.59, 226.47 47.03, 228.78 84.62 M226.91 0.74 C227.9 32.97, 226.78 65.25, 227.57 84.12 M226.32 85.25 C139.66 84.42, 53.78 85.47, -0.93 82.23 M227.34 83.01 C137.73 82.3, 49.04 83.05, 0.83 83.64 M-0.44 82.66 C0.4 62.63, 0.3 41.71, -0.93 1.89 M0.92 84.19 C-0.36 56.46, -0.11 28.49, 0.71 -0.35" stroke="#000000" stroke-width="4" fill="none"></path></g><g stroke-linecap="round"><g transform="translate(478.2029340493315 220.53005522762766) rotate(0 62.662579538651585 -0.4748540825601708)"><path d="M0 0 C36.13 -0.27, 72.26 -0.55, 125.33 -0.95 M0 0 C39.27 -0.3, 78.55 -0.6, 125.33 -0.95" stroke="#000000" stroke-width="4" fill="none"></path></g><g transform="translate(478.2029340493315 220.53005522762766) rotate(0 62.662579538651585 -0.4748540825601708)"><path d="M97.21 9.52 C105.32 6.5, 113.42 3.49, 125.33 -0.95 M97.21 9.52 C106.02 6.24, 114.83 2.96, 125.33 -0.95" stroke="#000000" stroke-width="4" fill="none"></path></g><g transform="translate(478.2029340493315 220.53005522762766) rotate(0 62.662579538651585 -0.4748540825601708)"><path d="M97.06 -11 C105.21 -8.1, 113.36 -5.2, 125.33 -0.95 M97.06 -11 C105.92 -7.85, 114.77 -4.7, 125.33 -0.95" stroke="#000000" stroke-width="4" fill="none"></path></g></g><mask></mask><g stroke-linecap="round"><g transform="translate(1001.6738527600139 216.0446087049864) rotate(0 51.463771590568285 -0.727030798672331)"><path d="M0 0 C27.84 -0.39, 55.68 -0.79, 102.93 -1.45 M0 0 C23.81 -0.34, 47.62 -0.67, 102.93 -1.45" stroke="#000000" stroke-width="4" fill="none"></path></g><g transform="translate(1001.6738527600139 216.0446087049864) rotate(0 51.463771590568285 -0.727030798672331)"><path d="M74.88 9.2 C82.47 6.32, 90.05 3.44, 102.93 -1.45 M74.88 9.2 C81.37 6.74, 87.86 4.27, 102.93 -1.45" stroke="#000000" stroke-width="4" fill="none"></path></g><g transform="translate(1001.6738527600139 216.0446087049864) rotate(0 51.463771590568285 -0.727030798672331)"><path d="M74.59 -11.32 C82.26 -8.65, 89.92 -5.98, 102.93 -1.45 M74.59 -11.32 C81.15 -9.03, 87.7 -6.75, 102.93 -1.45" stroke="#000000" stroke-width="4" fill="none"></path></g></g><mask></mask><g stroke-linecap="round"><g transform="translate(275.22357171009514 76.77275699558771) rotate(0 -0.13042789305254132 53.588043878877954)"><path d="M2.4 1.87 C2.63 19.27, 0.67 86.71, -0.12 104.01 M0.26 0.42 C0.2 18.19, -3.1 88.69, -2.64 106.76" stroke="#1e1e1e" stroke-width="1" fill="none"></path></g><g transform="translate(275.22357171009514 76.77275699558771) rotate(0 -0.13042789305254132 53.588043878877954)"><path d="M-9.8 77.69 C-12.45 81.35, -7.63 94.9, -1.6 107.23 M-12.25 80.23 C-9.37 83.74, -8.15 89.4, -3.78 108.63" stroke="#1e1e1e" stroke-width="1" fill="none"></path></g><g transform="translate(275.22357171009514 76.77275699558771) rotate(0 -0.13042789305254132 53.588043878877954)"><path d="M10.72 78 C3 81.93, 2.75 95.41, -1.6 107.23 M8.27 80.53 C6.72 84.09, 3.5 89.68, -3.78 108.63" stroke="#1e1e1e" stroke-width="1" fill="none"></path></g></g><mask></mask><g transform="translate(234.6534635301895 28.418715243820373) rotate(0 44.52104187011719 23.8488315812358)"><text x="44.52104187011719" y="0" font-family="Virgil, Segoe UI Emoji" font-size="38.158130529977285px" fill="#1e1e1e" text-anchor="middle" style="white-space: pre;" direction="ltr" dominant-baseline="text-before-edge">Head</text></g><g stroke-linecap="round" transform="translate(94.89409412381926 193.75993587796796) rotate(0 38.41163688861465 40.671144940886165)"><path d="M-1 -0.23 C16.54 0.84, 33.2 -2.18, 78.74 0.37 M-0.06 0.56 C21.13 -0.25, 41.93 0.39, 76.85 -0.43 M77.81 -1.74 C77.6 25.02, 76.04 54.8, 76.27 80.27 M76.92 -0.66 C76.18 29.63, 75.52 59.15, 77.39 82.2 M76.26 83.29 C54.41 81.61, 30.02 79.69, -0.89 81.46 M77.66 80.89 C49.23 81.52, 19.4 81.39, 0.51 80.75 M0.75 79.45 C-2.1 54.53, -1.86 25.69, -0.34 1.6 M-0.58 80.5 C0.35 59.6, -0.26 36.59, -0.76 0.21" stroke="#000000" stroke-width="4" fill="none"></path></g><g stroke-linecap="round" transform="translate(610.9539108487379 196.62684712287654) rotate(0 38.41163688861462 40.671144940886165)"><path d="M1.73 0.16 C18.32 -1.76, 33.8 1.51, 78.08 0.78 M0.06 0.7 C25.17 0.81, 50.99 -0.11, 77.62 -0.18 M75.64 0.91 C77.28 18.01, 77.32 36.66, 75.01 82.64 M77.62 -0.25 C76.47 18.8, 76.47 35.16, 76.69 81.96 M77.24 81.83 C59.45 79.26, 43.79 79.61, 1.03 80.97 M77.8 81.56 C52.62 81.82, 28.44 80.57, 0.22 80.35 M0.56 83.17 C-1.71 57.69, 0.54 31.44, 0.61 0.58 M-0.08 81.71 C-1.3 56.63, -0.49 31.45, -0.94 0.53" stroke="#000000" stroke-width="4" fill="none"></path></g><g stroke-linecap="round" transform="translate(1113.5387547569808 187.62006381387909) rotate(0 38.41163688861468 40.671144940886165)"><path d="M-0.64 -1.95 C20.59 -1.68, 40.99 0.4, 78.31 -1.45 M0.56 -0.85 C28.41 0, 55.19 0.18, 76.7 -0.92 M78.17 -0.52 C76.08 24.64, 77.13 53.59, 78.58 82.51 M76.37 -0.36 C76.99 29.81, 76.9 60.19, 76.91 80.47 M75.4 79.83 C56.45 81.24, 35.59 80.72, 0 81.86 M77.47 81.09 C49.43 81.33, 21.26 81.27, -0.18 81.98 M0.65 81.28 C0.87 63.93, 0.76 45.35, 1.65 0.31 M-0.35 81.88 C0.03 64.18, 1.41 46.13, -0.75 -0.54" stroke="#000000" stroke-width="4" fill="none"></path></g><g stroke-linecap="round"><g transform="translate(601.6113091439724 259.56201031279176) rotate(0 -59.471562358112976 -0.47478846216665715)"><path d="M0 0 C-45.28 -0.36, -90.55 -0.72, -118.94 -0.95 M0 0 C-32.9 -0.26, -65.79 -0.53, -118.94 -0.95" stroke="#000000" stroke-width="4" fill="none"></path></g><g transform="translate(601.6113091439724 259.56201031279176) rotate(0 -59.471562358112976 -0.47478846216665715)"><path d="M-90.67 -10.98 C-101.43 -7.16, -112.19 -3.35, -118.94 -0.95 M-90.67 -10.98 C-98.49 -8.21, -106.31 -5.43, -118.94 -0.95" stroke="#000000" stroke-width="4" fill="none"></path></g><g transform="translate(601.6113091439724 259.56201031279176) rotate(0 -59.471562358112976 -0.47478846216665715)"><path d="M-90.84 9.54 C-101.53 5.54, -112.23 1.55, -118.94 -0.95 M-90.84 9.54 C-98.61 6.64, -106.38 3.74, -118.94 -0.95" stroke="#000000" stroke-width="4" fill="none"></path></g></g><mask></mask><g stroke-linecap="round"><g transform="translate(1112.5387547569806 250.1960828514528) rotate(0 -59.34231041868429 0.21515802291492037)"><path d="M0 0 C-30.93 0.11, -61.85 0.22, -118.68 0.43 M0 0 C-38.34 0.14, -76.69 0.28, -118.68 0.43" stroke="#000000" stroke-width="4" fill="none"></path></g><g transform="translate(1112.5387547569806 250.1960828514528) rotate(0 -59.34231041868429 0.21515802291492037)"><path d="M-90.53 -9.93 C-97.87 -7.23, -105.2 -4.53, -118.68 0.43 M-90.53 -9.93 C-99.63 -6.58, -108.72 -3.24, -118.68 0.43" stroke="#000000" stroke-width="4" fill="none"></path></g><g transform="translate(1112.5387547569806 250.1960828514528) rotate(0 -59.34231041868429 0.21515802291492037)"><path d="M-90.46 10.59 C-97.81 7.94, -105.17 5.29, -118.68 0.43 M-90.46 10.59 C-99.58 7.31, -108.7 4.02, -118.68 0.43" stroke="#000000" stroke-width="4" fill="none"></path></g></g><mask></mask><g stroke-linecap="round"><g transform="translate(1509.3249329738485 231.58623247095176) rotate(0 48.56033156095327 -100.85989791619062)"><path d="M0 0 C16.05 -14.22, 88.5 -51.72, 96.29 -85.34 C104.07 -118.96, 54.97 -182.32, 46.71 -201.72 M0 0 C16.05 -14.22, 88.5 -51.72, 96.29 -85.34 C104.07 -118.96, 54.97 -182.32, 46.71 -201.72" stroke="#1e1e1e" stroke-width="1" fill="none"></path></g></g><mask></mask><g stroke-linecap="round"><g transform="translate(1556.03485248924 28.83379073992006) rotate(0 -740.1005320173218 -9.41689536996003)"><path d="M0 0 C-246.7 -3.14, -1233.5 -15.69, -1480.2 -18.83 M0 0 C-246.7 -3.14, -1233.5 -15.69, -1480.2 -18.83" stroke="#1e1e1e" stroke-width="1" fill="none"></path></g></g><mask></mask><g stroke-linecap="round"><g transform="translate(74.9735832889165 13.157278733318833) rotate(0 -27.29327787083716 113.61030212757169)"><path d="M0 0 C-10.82 23.46, -66.67 102.92, -64.93 140.79 C-63.2 178.66, -2.17 212.82, 10.39 227.22 M0 0 C-10.82 23.46, -66.67 102.92, -64.93 140.79 C-63.2 178.66, -2.17 212.82, 10.39 227.22" stroke="#1e1e1e" stroke-width="1" fill="none"></path></g><g transform="translate(74.9735832889165 13.157278733318833) rotate(0 -27.29327787083716 113.61030212757169)"><path d="M-17.85 217.08 C-11.61 219.32, -5.38 221.56, 10.39 227.22 M-17.85 217.08 C-10 219.9, -2.15 222.72, 10.39 227.22" stroke="#1e1e1e" stroke-width="1" fill="none"></path></g><g transform="translate(74.9735832889165 13.157278733318833) rotate(0 -27.29327787083716 113.61030212757169)"><path d="M-4.73 201.3 C-1.39 207.03, 1.95 212.75, 10.39 227.22 M-4.73 201.3 C-0.52 208.51, 3.68 215.71, 10.39 227.22" stroke="#1e1e1e" stroke-width="1" fill="none"></path></g></g><mask></mask><g stroke-linecap="round"><g transform="translate(95.60546768099047 262.4607334288018) rotate(0 -40.23070650475833 100.18891499527291)"><path d="M0 0 C-13.41 17.71, -79.7 72.86, -80.45 106.26 C-81.21 139.66, -17.2 184.69, -4.55 200.38 M0 0 C-13.41 17.71, -79.7 72.86, -80.45 106.26 C-81.21 139.66, -17.2 184.69, -4.55 200.38" stroke="#1e1e1e" stroke-width="1" fill="none"></path></g></g><mask></mask><g stroke-linecap="round"><g transform="translate(91.05143793503882 462.8386213269776) rotate(0 709.671469152427 7.5900399253145565)"><path d="M0 0 C236.56 2.53, 1182.79 12.65, 1419.34 15.18 M0 0 C236.56 2.53, 1182.79 12.65, 1419.34 15.18" stroke="#1e1e1e" stroke-width="1" fill="none"></path></g></g><mask></mask><g stroke-linecap="round"><g transform="translate(1510.3943762398928 476.5006526572028) rotate(0 44.78267591499343 -117.64606762650789)"><path d="M0 0 C14.93 -19.48, 89.06 -77.67, 89.56 -116.89 C90.07 -156.1, 17.46 -215.56, 3.04 -235.29 M0 0 C14.93 -19.48, 89.06 -77.67, 89.56 -116.89 C90.07 -156.1, 17.46 -215.56, 3.04 -235.29" stroke="#1e1e1e" stroke-width="1" fill="none"></path></g><g transform="translate(1510.3943762398928 476.5006526572028) rotate(0 44.78267591499343 -117.64606762650789)"><path d="M29.79 -221.72 C23.85 -224.73, 17.92 -227.74, 3.04 -235.29 M29.79 -221.72 C21.67 -225.84, 13.54 -229.96, 3.04 -235.29" stroke="#1e1e1e" stroke-width="1" fill="none"></path></g><g transform="translate(1510.3943762398928 476.5006526572028) rotate(0 44.78267591499343 -117.64606762650789)"><path d="M14.81 -207.7 C12.2 -213.82, 9.58 -219.94, 3.04 -235.29 M14.81 -207.7 C11.23 -216.08, 7.66 -224.46, 3.04 -235.29" stroke="#1e1e1e" stroke-width="1" fill="none"></path></g></g><mask></mask></svg>