<svg version="1.1" xmlns="http://www.w3.org/2000/svg" viewBox="0 0 1374.7371427907779 287.5443464997047" width="1374.7371427907779" height="287.5443464997047" filter="invert(93%) hue-rotate(180deg)">
  <!-- svg-source:excalidraw -->
  
  <defs>
    <style class="style-fonts">
      @font-face {
        font-family: "Virgil";
        src: url("https://excalidraw.com/Virgil.woff2");
      }
      @font-face {
        font-family: "Cascadia";
        src: url("https://excalidraw.com/Cascadia.woff2");
      }
    </style>
    
  </defs>
  <g stroke-linecap="round" transform="translate(324.27980631098035 188.2739506969092) rotate(0 38.41163688861462 40.671144940886165)"><path d="M-1.3 -1.53 C18.54 0.71, 40.39 1.09, 75.2 1.88 M0.49 -0.46 C19.68 0.21, 39.31 0.54, 76.14 0.75 M77.08 -1.45 C76.78 19.37, 75.14 42.2, 77.81 80.75 M76.79 -0.97 C77.36 31.46, 77.27 65.16, 77.32 82.3 M78.31 82.05 C48.88 79.71, 19.56 82.32, 0.96 82.92 M77.77 80.53 C46.44 80.28, 17.03 80.48, -0.82 82.25 M-1.47 79.99 C-0.54 60.36, 1.21 43.8, 0.01 -0.8 M-0.49 81.45 C0.74 58.9, 1.16 35.88, 0.95 0.35" stroke="#000000" stroke-width="4" fill="none"></path></g><g stroke-linecap="round" transform="translate(103.12230778056951 188.2739506969092) rotate(0 110.40372025733433 40.671144940886165)"><path d="M-0.89 0.4 C60.4 2.2, 117.22 3.09, 220.08 -0.05 M-0.1 -0.11 C56.3 1.06, 112.51 1.53, 220.45 -0.34 M221.07 -1.65 C219.54 29.31, 221.89 57.75, 222.71 80.22 M221.8 -0.68 C221.68 23.25, 221.27 45.7, 221.42 80.5 M220.65 80.01 C155.72 82.94, 94.46 83.38, 1.57 82.59 M220.5 80.7 C164.02 79.33, 106.08 80.58, -0.5 80.92 M-0.94 80.11 C1.42 55.97, 0.61 25.91, -0.47 -0.92 M0.37 81.39 C1.18 58.25, 1.34 36.43, 0.23 -0.49" stroke="#000000" stroke-width="4" fill="none"></path></g><g stroke-linecap="round" transform="translate(760.268377547017 193.60355382355715) rotate(0 38.95319348978933 41.2445578127182)"><path d="M1.26 0.85 C15.77 1.7, 33.95 -0.23, 77.03 0.97 M-0.3 0.21 C19.11 0.84, 39.17 -0.29, 78.49 0.13 M76.53 0.14 C79 18.16, 79.92 36.38, 77.41 82.42 M78.81 0.87 C79.22 17.68, 79.34 32.62, 77.79 83.23 M76.18 83.56 C52.74 83.47, 27.47 83.33, -0.84 84.38 M78.16 81.94 C60.01 82.82, 43.19 81.43, 0.36 81.75 M0.82 84.43 C0.4 62.51, -0.08 43.2, -0.44 -0.97 M0.79 82.02 C0.64 57.24, -0.07 30.8, 0.92 0.55" stroke="#000000" stroke-width="4" fill="none"></path></g><g stroke-linecap="round" transform="translate(535.9928316504871 193.60355382355715) rotate(0 111.9602762477229 41.2445578127182)"><path d="M-1.4 1.62 C71.65 -0.86, 144.01 0.02, 223.13 -0.2 M-0.59 0.64 C64.08 -0.73, 129.38 -0.29, 223.3 0.11 M224.9 -0.59 C225.26 16.8, 222.86 35.78, 221.98 84.47 M224.41 0.95 C225.28 18.3, 224.55 39.02, 224.27 82.4 M224.75 83.84 C175.52 84.76, 123.27 85.14, -1.39 81.87 M223.21 83.27 C172.83 81.03, 123.03 80.81, -0.58 82.09 M0.01 81.69 C-0.81 61.91, -0.77 42.19, 0.21 0.74 M0.95 82.84 C-0.41 56.82, 0.27 32.69, -0.17 0.84" stroke="#000000" stroke-width="4" fill="none"></path></g><g stroke-linecap="round" transform="translate(1181.7858502474942 193.90844887753337) rotate(0 39.494729432692 41.81794881108567)"><path d="M-0.84 -0.05 C26.18 0.23, 53.2 -0.98, 78.74 -0.59 M-0.42 -0.39 C25.92 -0.46, 49.95 -0.46, 78.16 -0.69 M80.89 -1.12 C78.9 25.62, 77.46 53.35, 77.63 85.44 M79.6 -0.84 C79.28 33.14, 79.76 64.69, 78.22 82.77 M80.81 85.08 C50.24 86.15, 21.55 83.54, -1.48 84.15 M78.42 83.15 C59.95 83.62, 39.52 83.89, -0.62 84.04 M-0.47 82.72 C-0.44 49.45, 0.2 17.95, 0.1 1.57 M0.23 83.15 C0.12 63, -0.96 42.1, 0.08 0.88" stroke="#000000" stroke-width="4" fill="none"></path></g><g stroke-linecap="round" transform="translate(954.3923759262077 193.90844887753337) rotate(0 113.51677286157155 41.81794881108567)"><path d="M-0.75 0.83 C88.67 -0.15, 178.69 -0.45, 227.39 -1.17 M0.5 0.11 C84.46 0.87, 169.46 0.16, 227.09 0.42 M226.53 -0.07 C225.89 24.59, 226.47 47.03, 228.78 84.62 M226.91 0.74 C227.9 32.97, 226.78 65.25, 227.57 84.12 M226.32 85.25 C139.66 84.42, 53.78 85.47, -0.93 82.23 M227.34 83.01 C137.73 82.3, 49.04 83.05, 0.83 83.64 M-0.44 82.66 C0.4 62.63, 0.3 41.71, -0.93 1.89 M0.92 84.19 C-0.36 56.46, -0.11 28.49, 0.71 -0.35" stroke="#000000" stroke-width="4" fill="none"></path></g><g stroke-linecap="round"><g transform="translate(405.33296572852885 235.58883757048568) rotate(0 62.662579538651585 -0.4748540825601708)"><path d="M0 0 C36.13 -0.27, 72.26 -0.55, 125.33 -0.95 M0 0 C39.27 -0.3, 78.55 -0.6, 125.33 -0.95" stroke="#000000" stroke-width="4" fill="none"></path></g><g transform="translate(405.33296572852885 235.58883757048568) rotate(0 62.662579538651585 -0.4748540825601708)"><path d="M97.21 9.52 C105.32 6.5, 113.42 3.49, 125.33 -0.95 M97.21 9.52 C106.02 6.24, 114.83 2.96, 125.33 -0.95" stroke="#000000" stroke-width="4" fill="none"></path></g><g transform="translate(405.33296572852885 235.58883757048568) rotate(0 62.662579538651585 -0.4748540825601708)"><path d="M97.06 -11 C105.21 -8.1, 113.36 -5.2, 125.33 -0.95 M97.06 -11 C105.92 -7.85, 114.77 -4.7, 125.33 -0.95" stroke="#000000" stroke-width="4" fill="none"></path></g></g><mask></mask><g stroke-linecap="round"><g transform="translate(848.3491079943342 237.1754693142001) rotate(0 51.463771590568285 -0.727030798672331)"><path d="M0 0 C27.84 -0.39, 55.68 -0.79, 102.93 -1.45 M0 0 C23.81 -0.34, 47.62 -0.67, 102.93 -1.45" stroke="#000000" stroke-width="4" fill="none"></path></g><g transform="translate(848.3491079943342 237.1754693142001) rotate(0 51.463771590568285 -0.727030798672331)"><path d="M74.88 9.2 C82.47 6.32, 90.05 3.44, 102.93 -1.45 M74.88 9.2 C81.37 6.74, 87.86 4.27, 102.93 -1.45" stroke="#000000" stroke-width="4" fill="none"></path></g><g transform="translate(848.3491079943342 237.1754693142001) rotate(0 51.463771590568285 -0.727030798672331)"><path d="M74.59 -11.32 C82.26 -8.65, 89.92 -5.98, 102.93 -1.45 M74.59 -11.32 C81.15 -9.03, 87.7 -6.75, 102.93 -1.45" stroke="#000000" stroke-width="4" fill="none"></path></g></g><mask></mask><g stroke-linecap="round"><g transform="translate(202.3536033892926 70.57938122146106) rotate(0 -0.13042789305254132 53.588043878877954)"><path d="M2.4 1.87 C2.63 19.27, 0.67 86.71, -0.12 104.01 M0.26 0.42 C0.2 18.19, -3.1 88.69, -2.64 106.76" stroke="#1e1e1e" stroke-width="1" fill="none"></path></g><g transform="translate(202.3536033892926 70.57938122146106) rotate(0 -0.13042789305254132 53.588043878877954)"><path d="M-9.8 77.69 C-12.45 81.35, -7.63 94.9, -1.6 107.23 M-12.25 80.23 C-9.37 83.74, -8.15 89.4, -3.78 108.63" stroke="#1e1e1e" stroke-width="1" fill="none"></path></g><g transform="translate(202.3536033892926 70.57938122146106) rotate(0 -0.13042789305254132 53.588043878877954)"><path d="M10.72 78 C3 81.93, 2.75 95.41, -1.6 107.23 M8.27 80.53 C6.72 84.09, 3.5 89.68, -3.78 108.63" stroke="#1e1e1e" stroke-width="1" fill="none"></path></g></g><mask></mask><g transform="translate(161.78349520938693 22.225339469693722) rotate(0 44.52104187011719 23.8488315812358)"><text x="44.52104187011719" y="0" font-family="Virgil, Segoe UI Emoji" font-size="38.158130529977285px" fill="#1e1e1e" text-anchor="middle" style="white-space: pre;" direction="ltr" dominant-baseline="text-before-edge">Head</text></g><g stroke-linecap="round"><g transform="translate(1267.9553428841623 239.05500384231038) rotate(0 48.39089995330801 -109.96798636190903)"><path d="M0 0 C16.05 -14.22, 90.02 -48.68, 96.29 -85.34 C102.55 -122, 47.38 -197.5, 37.6 -219.94 M0 0 C16.05 -14.22, 90.02 -48.68, 96.29 -85.34 C102.55 -122, 47.38 -197.5, 37.6 -219.94" stroke="#1e1e1e" stroke-width="1" fill="none"></path></g></g><mask></mask><g stroke-linecap="round"><g transform="translate(1305.5572029076502 18.086356266026655) rotate(0 -599.6842287996103 -3.3448315805118796)"><path d="M0 0 C-199.89 -1.11, -999.47 -5.57, -1199.37 -6.69 M0 0 C-199.89 -1.11, -999.47 -5.57, -1199.37 -6.69" stroke="#1e1e1e" stroke-width="1" fill="none"></path></g></g><mask></mask><g stroke-linecap="round"><g transform="translate(103.81054952997582 10) rotate(0 -46.905274764987894 110.57423404057892)"><path d="M0 0 C-15.63 19.16, -91.97 78.12, -93.78 114.98 C-95.59 151.84, -24.68 203.45, -10.87 221.15 M0 0 C-15.63 19.16, -91.97 78.12, -93.78 114.98 C-95.59 151.84, -24.68 203.45, -10.87 221.15" stroke="#1e1e1e" stroke-width="1" fill="none"></path></g><g transform="translate(103.81054952997582 10) rotate(0 -46.905274764987894 110.57423404057892)"><path d="M-38.2 208.8 C-32.17 211.52, -26.13 214.25, -10.87 221.15 M-38.2 208.8 C-30.61 212.23, -23.01 215.66, -10.87 221.15" stroke="#1e1e1e" stroke-width="1" fill="none"></path></g><g transform="translate(103.81054952997582 10) rotate(0 -46.905274764987894 110.57423404057892)"><path d="M-23.87 194.11 C-21 200.08, -18.13 206.05, -10.87 221.15 M-23.87 194.11 C-20.25 201.63, -16.64 209.14, -10.87 221.15" stroke="#1e1e1e" stroke-width="1" fill="none"></path></g></g><mask></mask></svg>