<svg version="1.1" xmlns="http://www.w3.org/2000/svg" viewBox="0 0 702.6799882278216 630.2751726862098" width="702.6799882278216" height="630.2751726862098" filter="invert(93%) hue-rotate(180deg)">
  <!-- svg-source:excalidraw -->
  
  <defs>
    <style class="style-fonts">
      @font-face {
        font-family: "Virgil";
        src: url("https://excalidraw.com/Virgil.woff2");
      }
      @font-face {
        font-family: "Cascadia";
        src: url("https://excalidraw.com/Cascadia.woff2");
      }
    </style>
    
  </defs>
  <g stroke-linecap="round" transform="translate(10 10) rotate(0 341.3399941139108 305.1375863431049)"><path d="M104.2 85.59 C117.28 66.97, 141.22 55.31, 161.83 43.61 C182.44 31.91, 204.69 22.48, 227.85 15.4 C251.01 8.31, 276.49 3.77, 300.79 1.12 C325.1 -1.53, 349.15 -2.81, 373.67 -0.52 C398.18 1.77, 424.62 7.68, 447.88 14.84 C471.14 22, 492.23 31.64, 513.24 42.43 C534.24 53.21, 556.04 64.82, 573.89 79.56 C591.73 94.29, 606.75 112.85, 620.32 130.85 C633.88 148.85, 645.71 167.23, 655.27 187.55 C664.83 207.87, 673.47 231.23, 677.68 252.78 C681.89 274.33, 681.68 295.21, 680.53 316.86 C679.37 338.51, 677 361.33, 670.75 382.67 C664.5 404.02, 654.21 425.46, 643.01 444.95 C631.81 464.43, 618.73 482.58, 603.54 499.61 C588.34 516.64, 571.01 533.43, 551.83 547.11 C532.64 560.8, 510.3 572.44, 488.42 581.73 C466.54 591.02, 444.31 597.77, 420.55 602.85 C396.79 607.94, 370.94 611.84, 345.85 612.24 C320.76 612.65, 293.91 609.96, 270.01 605.28 C246.1 600.6, 224.44 593.53, 202.4 584.16 C180.36 574.79, 157.52 561.88, 137.77 549.08 C118.01 536.27, 99.64 523.44, 83.86 507.35 C68.09 491.26, 55.04 472.17, 43.13 452.54 C31.21 432.91, 19.48 410.7, 12.37 389.57 C5.27 368.43, 1.86 347.36, 0.53 325.74 C-0.81 304.12, 0.73 281.28, 4.35 259.85 C7.97 238.42, 13.3 217.38, 22.26 197.16 C31.22 176.94, 36.79 162.51, 58.11 138.53 C79.43 114.54, 125.14 70.88, 150.16 53.23 C175.19 35.59, 205.23 28.39, 208.25 32.64 M568.42 78.99 C589.41 89.23, 601.55 112.08, 615.57 129.77 C629.59 147.45, 642.75 165.83, 652.55 185.1 C662.34 204.36, 669.25 223.85, 674.36 245.36 C679.47 266.88, 683.55 292.2, 683.21 314.17 C682.87 336.14, 678.07 356.55, 672.32 377.19 C666.57 397.83, 659.93 418.04, 648.71 438.02 C637.5 458, 620.78 479.18, 605.01 497.07 C589.25 514.96, 572.47 531.64, 554.13 545.38 C535.78 559.11, 516.8 570.17, 494.96 579.48 C473.12 588.79, 447.18 596.38, 423.08 601.23 C398.98 606.08, 374.27 607.56, 350.37 608.57 C326.46 609.59, 303.65 611.44, 279.63 607.33 C255.61 603.23, 229.39 592.98, 206.25 583.95 C183.11 574.93, 160.72 566.05, 140.78 553.19 C120.83 540.33, 102.63 523.13, 86.57 506.8 C70.51 490.47, 56.48 473.99, 44.43 455.19 C32.39 436.39, 21.72 415.25, 14.29 394.02 C6.85 372.8, 1.5 349.07, -0.17 327.84 C-1.83 306.61, 0.41 287.7, 4.3 266.63 C8.19 245.56, 15.23 222.06, 23.17 201.43 C31.12 180.8, 39.65 161.3, 51.98 142.85 C64.31 124.4, 79.17 106.43, 97.13 90.73 C115.09 75.03, 138.84 60.84, 159.74 48.65 C180.64 36.46, 200.2 24.95, 222.54 17.59 C244.88 10.24, 269.18 7.78, 293.77 4.54 C318.37 1.29, 345.97 -3.34, 370.1 -1.87 C394.24 -0.4, 415 6.84, 438.58 13.37 C462.16 19.9, 489.89 26.24, 511.58 37.31 C533.27 48.39, 560.33 72.57, 568.71 79.83 C577.09 87.08, 565.3 77.47, 561.88 80.84" stroke="#1e1e1e" stroke-width="2" fill="none"></path></g><g stroke-linecap="round" transform="translate(169.53402899991374 130.57457331133793) rotate(0 237.23831263400962 210.53125143374743)"><path d="M82.85 50.99 C95.14 37.23, 114.98 30.14, 133.02 21.98 C151.05 13.82, 170.7 5.74, 191.06 2.02 C211.41 -1.7, 234.19 -2.13, 255.16 -0.34 C276.13 1.45, 297.54 6.76, 316.88 12.77 C336.23 18.77, 354.58 25.73, 371.23 35.69 C387.88 45.64, 403.7 58.4, 416.78 72.5 C429.86 86.61, 440.53 103.96, 449.72 120.31 C458.91 136.67, 468.05 153.22, 471.89 170.62 C475.74 188.02, 474.53 206.63, 472.77 224.7 C471.01 242.77, 468.15 261.69, 461.35 279.04 C454.54 296.4, 443.51 313.78, 431.96 328.81 C420.42 343.85, 407.42 357.54, 392.08 369.26 C376.75 380.98, 358.59 391, 339.95 399.15 C321.31 407.29, 299.96 414.31, 280.23 418.13 C260.5 421.95, 241.58 423.71, 221.57 422.08 C201.56 420.45, 179.54 414.86, 160.15 408.35 C140.75 401.83, 122.13 392.73, 105.18 382.99 C88.24 373.24, 72.02 363.41, 58.49 349.87 C44.96 336.33, 33.18 318.51, 24 301.76 C14.82 285, 7.11 266.93, 3.4 249.33 C-0.3 231.73, 0.45 214.44, 1.76 196.16 C3.07 177.89, 4.72 156.69, 11.26 139.66 C17.79 122.63, 23.97 112.25, 40.97 93.99 C57.97 75.73, 94.47 42.97, 113.26 30.09 C132.05 17.22, 151.61 13.47, 153.72 16.73 M194.43 5.41 C213.27 -0.64, 237.5 1.93, 258.24 3.08 C278.98 4.23, 299.89 6.55, 318.89 12.31 C337.88 18.06, 355.4 27.36, 372.19 37.6 C388.98 47.84, 405.77 59.4, 419.64 73.74 C433.5 88.09, 447.28 106.4, 455.41 123.66 C463.53 140.91, 465.77 159.63, 468.38 177.25 C470.99 194.87, 472.56 211.78, 471.08 229.37 C469.6 246.96, 466.36 266, 459.51 282.79 C452.66 299.59, 442.09 314.79, 429.97 330.14 C417.85 345.49, 402.63 363.03, 386.78 374.9 C370.94 386.76, 353.45 393.91, 334.91 401.33 C316.38 408.75, 295.27 415.86, 275.58 419.41 C255.89 422.97, 236.58 424.41, 216.78 422.66 C196.99 420.92, 176.15 416.02, 156.81 408.95 C137.46 401.87, 117.54 390.84, 100.73 380.2 C83.91 369.56, 68.61 358.36, 55.9 345.11 C43.19 331.87, 32.97 317.08, 24.49 300.71 C16.02 284.33, 8.62 265.01, 5.06 246.88 C1.5 228.76, 1.48 210.25, 3.14 191.94 C4.8 173.64, 8.13 154.42, 15.01 137.05 C21.88 119.67, 32.5 102.17, 44.38 87.68 C56.27 73.2, 70.7 61.58, 86.32 50.14 C101.93 38.69, 119.94 26.74, 138.08 18.98 C156.22 11.23, 185.64 6.07, 195.16 3.63 C204.68 1.18, 194.21 0.98, 195.21 4.3" stroke="#1e1e1e" stroke-width="2" fill="none"></path></g><g stroke-linecap="round" transform="translate(316.84689347566206 265.34754510721496) rotate(0 148.3227315184358 118.99714877384531)"><path d="M35.43 40.07 C43.84 29.12, 59.57 21.29, 73.72 15 C87.88 8.7, 104.46 4.61, 120.36 2.28 C136.27 -0.04, 153.53 -0.46, 169.14 1.06 C184.74 2.59, 199.94 5.67, 213.99 11.44 C228.03 17.2, 242.28 25.99, 253.42 35.65 C264.55 45.32, 273.59 58.13, 280.82 69.41 C288.04 80.7, 294.38 91.15, 296.77 103.34 C299.17 115.53, 298.78 129.73, 295.2 142.55 C291.62 155.37, 283.93 169.1, 275.29 180.25 C266.65 191.39, 255.84 201.39, 243.35 209.42 C230.86 217.44, 215 223.9, 200.34 228.41 C185.67 232.92, 171.26 236.01, 155.36 236.48 C139.46 236.95, 120.45 234.66, 104.95 231.22 C89.44 227.78, 75.04 223, 62.33 215.84 C49.62 208.68, 38 198.88, 28.67 188.27 C19.34 177.65, 11.4 164.58, 6.37 152.16 C1.34 139.74, -2.17 126.34, -1.53 113.76 C-0.89 101.17, -3.4 93.15, 10.22 76.65 C23.84 60.15, 59.79 26.78, 80.19 14.76 C100.6 2.74, 131.65 2.89, 132.64 4.54 M96.65 8.97 C109.98 3.05, 128.36 0.05, 143.98 -0.5 C159.6 -1.04, 175.48 2.34, 190.36 5.7 C205.25 9.07, 219.98 12.26, 233.3 19.69 C246.62 27.12, 260.48 39.08, 270.26 50.27 C280.05 61.46, 287.6 74.14, 292.02 86.83 C296.44 99.52, 298.25 113.91, 296.8 126.41 C295.34 138.91, 289.67 150.08, 283.3 161.82 C276.93 173.56, 268.35 186.75, 258.59 196.83 C248.82 206.91, 237.78 215.55, 224.72 222.31 C211.66 229.08, 195.94 234.88, 180.23 237.4 C164.52 239.92, 146.7 239.86, 130.48 237.45 C114.27 235.04, 97.13 228.31, 82.92 222.95 C68.71 217.58, 56.62 213.55, 45.24 205.26 C33.87 196.96, 22.18 184.98, 14.69 173.17 C7.2 161.36, 2.68 147.61, 0.3 134.4 C-2.08 121.18, -2.75 106.42, 0.41 93.86 C3.57 81.3, 10.86 69.64, 19.26 59.02 C27.66 48.39, 38.06 39.03, 50.79 30.09 C63.53 21.15, 87.7 8.46, 95.66 5.37 C103.62 2.29, 97.41 9.27, 98.57 11.57" stroke="#1e1e1e" stroke-width="2" fill="none"></path></g><g transform="translate(289.5225055001515 63.687246126639536) rotate(0 93.45596313476562 22.5)"><text x="0" y="0" font-family="Virgil, Segoe UI Emoji" font-size="36px" fill="#1e1e1e" text-anchor="start" style="white-space: pre;" direction="ltr" dominant-baseline="text-before-edge">Super keys</text></g><g transform="translate(271.5147754596244 198.610601865996) rotate(0 134.27993774414062 22.5)"><text x="0" y="0" font-family="Virgil, Segoe UI Emoji" font-size="36px" fill="#1e1e1e" text-anchor="start" style="white-space: pre;" direction="ltr" dominant-baseline="text-before-edge">Candidate keys</text></g><g transform="translate(355.37146559273265 324.39567807694976) rotate(0 108.98995208740234 22.5)"><text x="0" y="0" font-family="Virgil, Segoe UI Emoji" font-size="36px" fill="#1e1e1e" text-anchor="start" style="white-space: pre;" direction="ltr" dominant-baseline="text-before-edge">Primary keys</text></g></svg>