<svg version="1.1" xmlns="http://www.w3.org/2000/svg" viewBox="0 0 1228.6742563041119 405.53045264731736" width="1228.6742563041119" height="405.53045264731736" filter="invert(93%) hue-rotate(180deg)">
  <!-- svg-source:excalidraw -->
  
  <defs>
    <style class="style-fonts">
      @font-face {
        font-family: "Virgil";
        src: url("https://excalidraw.com/Virgil.woff2");
      }
      @font-face {
        font-family: "Cascadia";
        src: url("https://excalidraw.com/Cascadia.woff2");
      }
    </style>
    
  </defs>
  <g stroke-linecap="round" transform="translate(395.91041856745755 175.64707421083858) rotate(0 22.961064223614642 24.3117150602979)"><path d="M-1.3 -1.53 C10.67 0.61, 24.65 1, 44.29 1.88 M0.49 -0.46 C11.72 0.08, 23.38 0.41, 45.24 0.75 M46.18 -1.45 C46 10.91, 44.36 25.28, 46.9 48.03 M45.89 -0.97 C46.64 18.53, 46.55 39.3, 46.42 49.58 M47.41 49.33 C29.15 47.03, 11 49.63, 0.96 50.2 M46.87 47.81 C27.62 47.69, 10.28 47.89, -0.82 49.53 M-1.47 47.27 C-0.7 35.59, 1.05 26.96, 0.01 -0.8 M-0.49 48.73 C0.59 35.23, 1.01 21.26, 0.95 0.35" stroke="#000000" stroke-width="4" fill="none"></path></g><g stroke-linecap="round" transform="translate(263.71059740347414 175.64707421083858) rotate(0 65.9952846765043 24.3117150602979)"><path d="M-1.03 0.46 C36.72 1.86, 69.29 2.89, 131.15 -0.05 M-0.12 -0.12 C33.51 0.81, 66.92 1.35, 131.58 -0.39 M132.26 -1.65 C130.68 17.58, 133.03 34.28, 133.89 47.5 M132.98 -0.68 C132.88 14.25, 132.47 27.7, 132.6 47.78 M131.81 47.09 C92.25 50.16, 56.93 50.67, 1.82 50.07 M131.63 47.88 C98.17 47.01, 63.01 48.46, -0.57 48.14 M-0.94 47.39 C1.18 34.24, 0.37 15.16, -0.47 -0.92 M0.37 48.68 C1.02 34.63, 1.18 21.92, 0.23 -0.49" stroke="#000000" stroke-width="4" fill="none"></path></g><g stroke-linecap="round" transform="translate(660.6360777170682 175.64707421083858) rotate(0 22.961064223614642 24.3117150602979)"><path d="M1.26 0.85 C8.63 1.77, 19.67 -0.16, 45.04 0.97 M-0.3 0.21 C10.98 0.8, 22.92 -0.33, 46.51 0.13 M44.55 0.14 C46.97 10.46, 47.89 20.98, 45.42 48.56 M46.83 0.87 C46.9 10.81, 47.02 18.88, 45.8 49.37 M44.19 49.69 C31.49 49.85, 16.94 49.71, -0.84 50.51 M46.18 48.08 C35.03 49.19, 25.22 47.8, 0.36 47.89 M0.82 50.57 C0.24 36.52, -0.24 25.09, -0.44 -0.97 M0.79 48.16 C0.77 33.88, 0.05 17.95, 0.92 0.55" stroke="#000000" stroke-width="4" fill="none"></path></g><g stroke-linecap="round" transform="translate(528.4362565530782 175.64707421083858) rotate(0 65.9952846765043 24.3117150602979)"><path d="M-1.63 1.88 C41.82 -0.61, 84.45 0.41, 131.07 -0.23 M-0.69 0.75 C37.57 -0.66, 76.55 -0.15, 131.26 0.13 M132.97 -0.59 C133.56 9.44, 131.16 21.06, 130.05 50.6 M132.48 0.95 C133.04 10.44, 132.31 23.31, 132.34 48.53 M132.95 50.2 C104.35 50.77, 72.25 51.22, -1.62 47.91 M131.17 49.53 C101.59 47.42, 72.7 47.17, -0.67 48.16 M0.01 47.82 C-0.67 36.12, -0.64 24.47, 0.21 0.74 M0.95 48.97 C-0.15 33.29, 0.53 19.49, -0.17 0.84" stroke="#000000" stroke-width="4" fill="none"></path></g><g stroke-linecap="round" transform="translate(925.361736866661 175.64707421083858) rotate(0 22.961064223614585 24.3117150602979)"><path d="M-0.84 -0.05 C14.85 0.54, 30.54 -0.67, 45.68 -0.59 M-0.42 -0.39 C15.32 -0.22, 28.73 -0.21, 45.09 -0.69 M47.83 -1.12 C45.66 14.87, 44.22 31.85, 44.56 50.43 M46.54 -0.84 C46.04 19.58, 46.52 37.57, 45.15 47.76 M47.74 50.07 C28.86 50.88, 11.85 48.27, -1.48 49.13 M45.35 48.14 C35 48.31, 22.69 48.57, -0.62 49.03 M-0.47 47.71 C-0.44 28.34, 0.2 10.74, 0.1 1.57 M0.23 48.13 C0.46 36.86, -0.63 24.82, 0.08 0.88" stroke="#000000" stroke-width="4" fill="none"></path></g><g stroke-linecap="round" transform="translate(793.1619157026742 175.64707421083858) rotate(0 65.9952846765043 24.3117150602979)"><path d="M-0.88 0.97 C51.09 -0.2, 103.76 -0.56, 132.41 -1.37 M0.59 0.13 C48.74 0.64, 98.1 -0.18, 132.06 0.49 M131.49 -0.07 C130.51 15.12, 131.09 28.1, 133.74 49.61 M131.87 0.74 C132.64 19.13, 131.52 37.58, 132.52 49.1 M131.15 50.51 C80.38 48.86, 30.52 50.09, -1.09 46.97 M132.35 47.89 C79.73 47.52, 28.2 48.39, 0.97 48.63 M-0.44 47.65 C0.32 36.72, 0.22 24.91, -0.93 1.89 M0.92 49.17 C-0.28 33.17, -0.03 16.93, 0.71 -0.35" stroke="#000000" stroke-width="4" fill="none"></path></g><g stroke-linecap="round"><g transform="translate(441.82850064630816 199.38825983332936) rotate(0 42.21917839885765 0.5705294378224153)"><path d="M0 0 C24.34 0.33, 48.69 0.66, 84.44 1.14 M0 0 C26.46 0.36, 52.92 0.72, 84.44 1.14" stroke="#000000" stroke-width="4" fill="none"></path></g><g transform="translate(441.82850064630816 199.38825983332936) rotate(0 42.21917839885765 0.5705294378224153)"><path d="M56.11 11.02 C64.28 8.17, 72.44 5.32, 84.44 1.14 M56.11 11.02 C64.99 7.92, 73.86 4.83, 84.44 1.14" stroke="#000000" stroke-width="4" fill="none"></path></g><g transform="translate(441.82850064630816 199.38825983332936) rotate(0 42.21917839885765 0.5705294378224153)"><path d="M56.39 -9.5 C64.48 -6.43, 72.56 -3.36, 84.44 1.14 M56.39 -9.5 C65.18 -6.17, 73.97 -2.83, 84.44 1.14" stroke="#000000" stroke-width="4" fill="none"></path></g></g><mask></mask><g stroke-linecap="round"><g transform="translate(706.798672412122 199.38825983332936) rotate(0 42.21917839885765 0.5705294378224153)"><path d="M0 0 C22.84 0.31, 45.67 0.62, 84.44 1.14 M0 0 C19.53 0.26, 39.07 0.53, 84.44 1.14" stroke="#000000" stroke-width="4" fill="none"></path></g><g transform="translate(706.798672412122 199.38825983332936) rotate(0 42.21917839885765 0.5705294378224153)"><path d="M56.11 11.02 C63.77 8.35, 71.43 5.68, 84.44 1.14 M56.11 11.02 C62.66 8.73, 69.22 6.45, 84.44 1.14" stroke="#000000" stroke-width="4" fill="none"></path></g><g transform="translate(706.798672412122 199.38825983332936) rotate(0 42.21917839885765 0.5705294378224153)"><path d="M56.39 -9.5 C63.98 -6.62, 71.56 -3.74, 84.44 1.14 M56.39 -9.5 C62.88 -7.04, 69.37 -4.58, 84.44 1.14" stroke="#000000" stroke-width="4" fill="none"></path></g></g><mask></mask><g stroke-linecap="round"><g transform="translate(972.1763652049303 199.38825983332936) rotate(0 42.21917839885759 0.5705294378224153)"><path d="M0 0 C19.54 0.26, 39.08 0.53, 84.44 1.14 M0 0 C29.48 0.4, 58.96 0.8, 84.44 1.14" stroke="#000000" stroke-width="4" fill="none"></path></g><g transform="translate(972.1763652049303 199.38825983332936) rotate(0 42.21917839885759 0.5705294378224153)"><path d="M56.11 11.02 C62.67 8.73, 69.22 6.45, 84.44 1.14 M56.11 11.02 C66 7.57, 75.89 4.12, 84.44 1.14" stroke="#000000" stroke-width="4" fill="none"></path></g><g transform="translate(972.1763652049303 199.38825983332936) rotate(0 42.21917839885759 0.5705294378224153)"><path d="M56.39 -9.5 C62.88 -7.04, 69.37 -4.57, 84.44 1.14 M56.39 -9.5 C66.18 -5.78, 75.97 -2.07, 84.44 1.14" stroke="#000000" stroke-width="4" fill="none"></path></g></g><mask></mask><g stroke-linecap="round"><g transform="translate(280.4995334450466 66.17783998583627) rotate(0 1.1151314054891088 56.0104558917368)"><path d="M2.4 1.87 C3.03 20.08, 2.65 90.75, 2.25 108.86 M0.26 0.42 C0.6 19, -1.12 92.73, -0.26 111.6" stroke="#1e1e1e" stroke-width="1" fill="none"></path></g><g transform="translate(280.4995334450466 66.17783998583627) rotate(0 1.1151314054891088 56.0104558917368)"><path d="M-8.04 82.76 C-10.54 86.35, -5.57 99.85, 0.78 112.07 M-10.5 85.29 C-7.47 88.76, -6.12 94.36, -1.4 113.48" stroke="#1e1e1e" stroke-width="1" fill="none"></path></g><g transform="translate(280.4995334450466 66.17783998583627) rotate(0 1.1151314054891088 56.0104558917368)"><path d="M12.48 82.61 C4.91 86.59, 4.81 100.13, 0.78 112.07 M10.02 85.15 C8.61 88.75, 5.52 94.39, -1.4 113.48" stroke="#1e1e1e" stroke-width="1" fill="none"></path></g></g><mask></mask><g stroke-linecap="round" transform="translate(1062.635093878025 169.95296297506502) rotate(0 78.01958121304347 27.5)"><path d="M13.75 0 M13.75 0 C52.19 1.98, 84.08 2.71, 142.29 0 M13.75 0 C40.92 2.1, 71.58 3.15, 142.29 0 M142.29 0 C153.37 -1.65, 157.65 2.37, 156.04 13.75 M142.29 0 C149.91 4.2, 157.09 8.2, 156.04 13.75 M156.04 13.75 C158.06 20.88, 154.75 27.59, 156.04 41.25 M156.04 13.75 C157.43 25.06, 154.95 33.06, 156.04 41.25 M156.04 41.25 C156.1 52.02, 151.5 58.45, 142.29 55 M156.04 41.25 C159.92 51.46, 155.04 52.55, 142.29 55 M142.29 55 C91.07 57.11, 43.99 58.04, 13.75 55 M142.29 55 C104.65 51.61, 65.94 52.76, 13.75 55 M13.75 55 C1.57 55.58, 3.49 47.24, 0 41.25 M13.75 55 C0.07 57.02, 2.01 49.51, 0 41.25 M0 41.25 C3.6 38.5, 1.81 26.47, 0 13.75 M0 41.25 C1.74 32.44, 0.99 20.57, 0 13.75 M0 13.75 C1.06 2.37, 2.16 -1.95, 13.75 0 M0 13.75 C4.47 4.27, 6.5 2.14, 13.75 0" stroke="#1e1e1e" stroke-width="1" fill="none"></path></g><g transform="translate(1109.3706937678262 174.95296297506502) rotate(0 31.283981323242188 22.5)"><text x="31.283981323242188" y="0" font-family="Virgil, Segoe UI Emoji" font-size="36px" fill="#1e1e1e" text-anchor="middle" style="white-space: pre;" direction="ltr" dominant-baseline="text-before-edge">Null</text></g><g transform="translate(245.46083591932484 22.722471460730276) rotate(0 42.011985778808594 22.5)"><text x="42.011985778808594" y="0" font-family="Virgil, Segoe UI Emoji" font-size="36px" fill="#1e1e1e" text-anchor="middle" style="white-space: pre;" direction="ltr" dominant-baseline="text-before-edge">Head</text></g><g stroke-linecap="round" transform="translate(10 168.2497952173528) rotate(0 78.01958121304347 27.5)"><path d="M13.75 0 M13.75 0 C52.89 2.99, 98.15 -1.5, 142.29 0 M13.75 0 C51.48 3.05, 88.43 2.22, 142.29 0 M142.29 0 C154.72 -2.61, 157.27 1.4, 156.04 13.75 M142.29 0 C150.2 -1.99, 155.68 3.68, 156.04 13.75 M156.04 13.75 C157.53 21.33, 153.33 29.62, 156.04 41.25 M156.04 13.75 C155.31 24.24, 153.58 34.34, 156.04 41.25 M156.04 41.25 C153.1 50.78, 149.6 56.08, 142.29 55 M156.04 41.25 C157 50.45, 153.47 52.23, 142.29 55 M142.29 55 C107.84 51.05, 82.2 56.29, 13.75 55 M142.29 55 C114.91 54.12, 85.41 56.43, 13.75 55 M13.75 55 C5.71 57.7, -3.13 49.76, 0 41.25 M13.75 55 C6.37 57.77, 0.25 50.36, 0 41.25 M0 41.25 C-2.8 31.55, 3.25 22.04, 0 13.75 M0 41.25 C-0.27 32.31, -1.04 27.11, 0 13.75 M0 13.75 C3.82 4.51, 4.53 0.14, 13.75 0 M0 13.75 C-2.92 8.23, 1.26 1.76, 13.75 0" stroke="#1e1e1e" stroke-width="1" fill="none"></path></g><g transform="translate(56.73559988980128 173.2497952173528) rotate(0 31.283981323242188 22.5)"><text x="31.283981323242188" y="0" font-family="Virgil, Segoe UI Emoji" font-size="36px" fill="#1e1e1e" text-anchor="middle" style="white-space: pre;" direction="ltr" dominant-baseline="text-before-edge">Null</text></g><g stroke-linecap="round"><g transform="translate(81.67547345292576 53.455368525105996) rotate(0 0.47782957144976024 55.17954374904281)"><path d="M-1.82 0.79 C-1.18 19.11, 2 93.48, 2.77 111.6 M2.39 -1.25 C2.75 16.07, 0.77 88.3, 0.54 107.2" stroke="#1e1e1e" stroke-width="1" fill="none"></path></g><g transform="translate(81.67547345292576 53.455368525105996) rotate(0 0.47782957144976024 55.17954374904281)"><path d="M-8.02 78.83 C-4.66 86.47, -5.03 90.69, 3.86 109.03 M-8.82 80.55 C-4.72 85.82, -4.14 94.69, 1.19 107.34" stroke="#1e1e1e" stroke-width="1" fill="none"></path></g><g transform="translate(81.67547345292576 53.455368525105996) rotate(0 0.47782957144976024 55.17954374904281)"><path d="M12.49 79.24 C10.46 86.51, 4.7 90.61, 3.86 109.03 M11.7 80.96 C9.76 86, 4.3 94.75, 1.19 107.34" stroke="#1e1e1e" stroke-width="1" fill="none"></path></g></g><mask></mask><g transform="translate(49.750781969684226 10) rotate(0 38.897979736328125 22.5)"><text x="38.897979736328125" y="0" font-family="Virgil, Segoe UI Emoji" font-size="36px" fill="#1e1e1e" text-anchor="middle" style="white-space: pre;" direction="ltr" dominant-baseline="text-before-edge">Prev</text></g><g stroke-linecap="round"><g transform="translate(82.46637954117227 230.79679882126652) rotate(179.27729715783775 1.5731570139002997 55.239543618098935)"><path d="M-0.75 -2.72 C-0.15 15.83, 0.98 93.76, 1.59 113.2 M4.03 1.98 C4.4 19.44, -0.49 90.6, -0.9 108.44" stroke="#1e1e1e" stroke-width="1" fill="none"></path></g><g transform="translate(82.46637954117227 230.79679882126652) rotate(179.27729715783775 1.5731570139002997 55.239543618098935)"><path d="M-13.69 79.12 C-6.72 87.54, -3.66 92.55, 0.97 105.44 M-9.45 80.78 C-4.7 91.92, -1.59 99.18, 0.5 108.7" stroke="#1e1e1e" stroke-width="1" fill="none"></path></g><g transform="translate(82.46637954117227 230.79679882126652) rotate(179.27729715783775 1.5731570139002997 55.239543618098935)"><path d="M6.81 80.1 C9.11 88.19, 7.5 92.97, 0.97 105.44 M11.05 81.76 C8.41 92.59, 4.14 99.5, 0.5 108.7" stroke="#1e1e1e" stroke-width="1" fill="none"></path></g></g><mask></mask><g transform="translate(45.666416955425575 350.53045264731736) rotate(0 41.72398376464844 22.5)"><text x="41.72398376464844" y="0" font-family="Virgil, Segoe UI Emoji" font-size="36px" fill="#1e1e1e" text-anchor="middle" style="white-space: pre;" direction="ltr" dominant-baseline="text-before-edge">Next</text></g><g stroke-linecap="round"><g transform="translate(376.7655889711691 63.52244842619098) rotate(0 1.873896390899347 55.93574402684811)"><path d="M-0.58 2.08 C0.16 20.37, 1.54 93.43, 2.48 111.13 M4.29 0.74 C4.81 18, 0.06 88.24, 0.08 106.48" stroke="#1e1e1e" stroke-width="1" fill="none"></path></g><g transform="translate(376.7655889711691 63.52244842619098) rotate(0 1.873896390899347 55.93574402684811)"><path d="M-6.18 77.53 C-5.81 87.73, -7.77 87.1, -3.88 106.54 M-9.73 78.72 C-7.65 85.38, -4.17 91.29, -0.81 107.67" stroke="#1e1e1e" stroke-width="1" fill="none"></path></g><g transform="translate(376.7655889711691 63.52244842619098) rotate(0 1.873896390899347 55.93574402684811)"><path d="M14.32 78.27 C9.97 88.22, 3.3 87.42, -3.88 106.54 M10.78 79.46 C8.05 85.81, 6.72 91.54, -0.81 107.67" stroke="#1e1e1e" stroke-width="1" fill="none"></path></g></g><mask></mask><g transform="translate(346.4428872340218 20.06707990108498) rotate(0 37.295989990234375 22.5)"><text x="37.295989990234375" y="0" font-family="Virgil, Segoe UI Emoji" font-size="36px" fill="#1e1e1e" text-anchor="middle" style="white-space: pre;" direction="ltr" dominant-baseline="text-before-edge">Curr</text></g></svg>