<svg version="1.1" xmlns="http://www.w3.org/2000/svg" viewBox="0 0 1848.0963750796204 479.36137051760124" width="1848.0963750796204" height="479.36137051760124" filter="invert(93%) hue-rotate(180deg)">
  <!-- svg-source:excalidraw -->
  
  <defs>
    <style class="style-fonts">
      @font-face {
        font-family: "Virgil";
        src: url("https://excalidraw.com/Virgil.woff2");
      }
      @font-face {
        font-family: "Cascadia";
        src: url("https://excalidraw.com/Cascadia.woff2");
      }
    </style>
    
  </defs>
  <g stroke-linecap="round" transform="translate(376.93938004231234 176.04861122721547) rotate(0 38.41163688861462 40.671144940886165)"><path d="M-1.3 -1.53 C18.54 0.71, 40.39 1.09, 75.2 1.88 M0.49 -0.46 C19.68 0.21, 39.31 0.54, 76.14 0.75 M77.08 -1.45 C76.78 19.37, 75.14 42.2, 77.81 80.75 M76.79 -0.97 C77.36 31.46, 77.27 65.16, 77.32 82.3 M78.31 82.05 C48.88 79.71, 19.56 82.32, 0.96 82.92 M77.77 80.53 C46.44 80.28, 17.03 80.48, -0.82 82.25 M-1.47 79.99 C-0.54 60.36, 1.21 43.8, 0.01 -0.8 M-0.49 81.45 C0.74 58.9, 1.16 35.88, 0.95 0.35" stroke="#000000" stroke-width="4" fill="none"></path></g><g stroke-linecap="round" transform="translate(155.78188151190147 176.04861122721547) rotate(0 110.40372025733433 40.671144940886165)"><path d="M-0.89 0.4 C60.4 2.2, 117.22 3.09, 220.08 -0.05 M-0.1 -0.11 C56.3 1.06, 112.51 1.53, 220.45 -0.34 M221.07 -1.65 C219.54 29.31, 221.89 57.75, 222.71 80.22 M221.8 -0.68 C221.68 23.25, 221.27 45.7, 221.42 80.5 M220.65 80.01 C155.72 82.94, 94.46 83.38, 1.57 82.59 M220.5 80.7 C164.02 79.33, 106.08 80.58, -0.5 80.92 M-0.94 80.11 C1.42 55.97, 0.61 25.91, -0.47 -0.92 M0.37 81.39 C1.18 58.25, 1.34 36.43, 0.23 -0.49" stroke="#000000" stroke-width="4" fill="none"></path></g><g stroke-linecap="round" transform="translate(893.3827277232261 178.3421752206856) rotate(0 38.95319348978933 41.2445578127182)"><path d="M1.26 0.85 C15.77 1.7, 33.95 -0.23, 77.03 0.97 M-0.3 0.21 C19.11 0.84, 39.17 -0.29, 78.49 0.13 M76.53 0.14 C79 18.16, 79.92 36.38, 77.41 82.42 M78.81 0.87 C79.22 17.68, 79.34 32.62, 77.79 83.23 M76.18 83.56 C52.74 83.47, 27.47 83.33, -0.84 84.38 M78.16 81.94 C60.01 82.82, 43.19 81.43, 0.36 81.75 M0.82 84.43 C0.4 62.51, -0.08 43.2, -0.44 -0.97 M0.79 82.02 C0.64 57.24, -0.07 30.8, 0.92 0.55" stroke="#000000" stroke-width="4" fill="none"></path></g><g stroke-linecap="round" transform="translate(669.1071818266962 178.3421752206856) rotate(0 111.9602762477229 41.2445578127182)"><path d="M-1.4 1.62 C71.65 -0.86, 144.01 0.02, 223.13 -0.2 M-0.59 0.64 C64.08 -0.73, 129.38 -0.29, 223.3 0.11 M224.9 -0.59 C225.26 16.8, 222.86 35.78, 221.98 84.47 M224.41 0.95 C225.28 18.3, 224.55 39.02, 224.27 82.4 M224.75 83.84 C175.52 84.76, 123.27 85.14, -1.39 81.87 M223.21 83.27 C172.83 81.03, 123.03 80.81, -0.58 82.09 M0.01 81.69 C-0.81 61.91, -0.77 42.19, 0.21 0.74 M0.95 82.84 C-0.41 56.82, 0.27 32.69, -0.17 0.84" stroke="#000000" stroke-width="4" fill="none"></path></g><g stroke-linecap="round" transform="translate(1402.9450457477096 168.02096226235437) rotate(0 39.494729432692 41.81794881108567)"><path d="M-0.84 -0.05 C26.18 0.23, 53.2 -0.98, 78.74 -0.59 M-0.42 -0.39 C25.92 -0.46, 49.95 -0.46, 78.16 -0.69 M80.89 -1.12 C78.9 25.62, 77.46 53.35, 77.63 85.44 M79.6 -0.84 C79.28 33.14, 79.76 64.69, 78.22 82.77 M80.81 85.08 C50.24 86.15, 21.55 83.54, -1.48 84.15 M78.42 83.15 C59.95 83.62, 39.52 83.89, -0.62 84.04 M-0.47 82.72 C-0.44 49.45, 0.2 17.95, 0.1 1.57 M0.23 83.15 C0.12 63, -0.96 42.1, 0.08 0.88" stroke="#000000" stroke-width="4" fill="none"></path></g><g stroke-linecap="round" transform="translate(1175.5515714264234 168.02096226235437) rotate(0 113.51677286157155 41.81794881108567)"><path d="M-0.75 0.83 C88.67 -0.15, 178.69 -0.45, 227.39 -1.17 M0.5 0.11 C84.46 0.87, 169.46 0.16, 227.09 0.42 M226.53 -0.07 C225.89 24.59, 226.47 47.03, 228.78 84.62 M226.91 0.74 C227.9 32.97, 226.78 65.25, 227.57 84.12 M226.32 85.25 C139.66 84.42, 53.78 85.47, -0.93 82.23 M227.34 83.01 C137.73 82.3, 49.04 83.05, 0.83 83.64 M-0.44 82.66 C0.4 62.63, 0.3 41.71, -0.93 1.89 M0.92 84.19 C-0.36 56.46, -0.11 28.49, 0.71 -0.35" stroke="#000000" stroke-width="4" fill="none"></path></g><g stroke-linecap="round"><g transform="translate(457.99253945986084 202.11133998380728) rotate(0 62.662579538651585 -0.4748540825601708)"><path d="M0 0 C36.13 -0.27, 72.26 -0.55, 125.33 -0.95 M0 0 C39.27 -0.3, 78.55 -0.6, 125.33 -0.95" stroke="#000000" stroke-width="4" fill="none"></path></g><g transform="translate(457.99253945986084 202.11133998380728) rotate(0 62.662579538651585 -0.4748540825601708)"><path d="M97.21 9.52 C105.32 6.5, 113.42 3.49, 125.33 -0.95 M97.21 9.52 C106.02 6.24, 114.83 2.96, 125.33 -0.95" stroke="#000000" stroke-width="4" fill="none"></path></g><g transform="translate(457.99253945986084 202.11133998380728) rotate(0 62.662579538651585 -0.4748540825601708)"><path d="M97.06 -11 C105.21 -8.1, 113.36 -5.2, 125.33 -0.95 M97.06 -11 C105.92 -7.85, 114.77 -4.7, 125.33 -0.95" stroke="#000000" stroke-width="4" fill="none"></path></g></g><mask></mask><g stroke-linecap="round"><g transform="translate(981.4634581705433 197.62589346116602) rotate(0 51.463771590568285 -0.727030798672331)"><path d="M0 0 C27.84 -0.39, 55.68 -0.79, 102.93 -1.45 M0 0 C23.81 -0.34, 47.62 -0.67, 102.93 -1.45" stroke="#000000" stroke-width="4" fill="none"></path></g><g transform="translate(981.4634581705433 197.62589346116602) rotate(0 51.463771590568285 -0.727030798672331)"><path d="M74.88 9.2 C82.47 6.32, 90.05 3.44, 102.93 -1.45 M74.88 9.2 C81.37 6.74, 87.86 4.27, 102.93 -1.45" stroke="#000000" stroke-width="4" fill="none"></path></g><g transform="translate(981.4634581705433 197.62589346116602) rotate(0 51.463771590568285 -0.727030798672331)"><path d="M74.59 -11.32 C82.26 -8.65, 89.92 -5.98, 102.93 -1.45 M74.59 -11.32 C81.15 -9.03, 87.7 -6.75, 102.93 -1.45" stroke="#000000" stroke-width="4" fill="none"></path></g></g><mask></mask><g stroke-linecap="round"><g transform="translate(1483.2591714477298 208.92841542271856) rotate(0 41.65725747003455 0.6690950212803841)"><path d="M0 0 C19.28 0.31, 38.56 0.62, 83.31 1.34 M0 0 C29.09 0.47, 58.18 0.93, 83.31 1.34" stroke="#000000" stroke-width="4" fill="none"></path></g><g transform="translate(1483.2591714477298 208.92841542271856) rotate(0 41.65725747003455 0.6690950212803841)"><path d="M54.96 11.14 C61.52 8.88, 68.09 6.61, 83.31 1.34 M54.96 11.14 C64.86 7.72, 74.76 4.3, 83.31 1.34" stroke="#000000" stroke-width="4" fill="none"></path></g><g transform="translate(1483.2591714477298 208.92841542271856) rotate(0 41.65725747003455 0.6690950212803841)"><path d="M55.29 -9.37 C61.78 -6.89, 68.26 -4.42, 83.31 1.34 M55.29 -9.37 C65.08 -5.63, 74.86 -1.89, 83.31 1.34" stroke="#000000" stroke-width="4" fill="none"></path></g></g><mask></mask><g stroke-linecap="round"><g transform="translate(255.01317712062456 58.35404175176734) rotate(0 -0.13042789305254132 53.588043878877954)"><path d="M2.4 1.87 C2.63 19.27, 0.67 86.71, -0.12 104.01 M0.26 0.42 C0.2 18.19, -3.1 88.69, -2.64 106.76" stroke="#1e1e1e" stroke-width="1" fill="none"></path></g><g transform="translate(255.01317712062456 58.35404175176734) rotate(0 -0.13042789305254132 53.588043878877954)"><path d="M-9.8 77.69 C-12.45 81.35, -7.63 94.9, -1.6 107.23 M-12.25 80.23 C-9.37 83.74, -8.15 89.4, -3.78 108.63" stroke="#1e1e1e" stroke-width="1" fill="none"></path></g><g transform="translate(255.01317712062456 58.35404175176734) rotate(0 -0.13042789305254132 53.588043878877954)"><path d="M10.72 78 C3 81.93, 2.75 95.41, -1.6 107.23 M8.27 80.53 C6.72 84.09, 3.5 89.68, -3.78 108.63" stroke="#1e1e1e" stroke-width="1" fill="none"></path></g></g><mask></mask><g stroke-linecap="round" transform="translate(1580.0963750796204 163.40377662435094) rotate(0 129 47.5)"><path d="M23.75 0 M23.75 0 C84.19 1.06, 138.85 1.7, 234.25 0 M23.75 0 C69.29 3.07, 117.91 3.99, 234.25 0 M234.25 0 C252 -1.65, 259.61 5.7, 258 23.75 M234.25 0 C248.54 4.2, 259.06 11.53, 258 23.75 M258 23.75 C259.67 37.29, 256.36 50.39, 258 71.25 M258 23.75 C259.17 41.89, 256.69 56.72, 258 71.25 M258 71.25 C258.06 88.69, 250.13 98.45, 234.25 95 M258 71.25 C261.88 88.13, 253.67 92.55, 234.25 95 M234.25 95 C152.4 97.13, 74.2 97.95, 23.75 95 M234.25 95 C171.47 90.6, 107.75 91.62, 23.75 95 M23.75 95 C4.9 95.58, 3.49 83.9, 0 71.25 M23.75 95 C3.41 97.02, 2.01 86.18, 0 71.25 M0 71.25 C3.84 64.25, 2.04 47.97, 0 23.75 M0 71.25 C2.01 55.47, 1.26 36.63, 0 23.75 M0 23.75 C1.06 5.7, 5.49 -1.95, 23.75 0 M0 23.75 C4.47 7.6, 9.83 2.14, 23.75 0" stroke="#1e1e1e" stroke-width="1" fill="none"></path></g><g transform="translate(1662.665718646515 177.50881032965378) rotate(0 46.43065643310547 33.39496629469721)"><text x="46.43065643310547" y="0" font-family="Virgil, Segoe UI Emoji" font-size="53.43194607151554px" fill="#1e1e1e" text-anchor="middle" style="white-space: pre;" direction="ltr" dominant-baseline="text-before-edge">Null</text></g><g transform="translate(214.4430689407189 10) rotate(0 44.52104187011719 23.8488315812358)"><text x="44.52104187011719" y="0" font-family="Virgil, Segoe UI Emoji" font-size="38.158130529977285px" fill="#1e1e1e" text-anchor="middle" style="white-space: pre;" direction="ltr" dominant-baseline="text-before-edge">Head</text></g><g stroke-linecap="round" transform="translate(74.68369953434865 175.3412206341476) rotate(0 38.41163688861465 40.671144940886165)"><path d="M-1 -0.23 C16.54 0.84, 33.2 -2.18, 78.74 0.37 M-0.06 0.56 C21.13 -0.25, 41.93 0.39, 76.85 -0.43 M77.81 -1.74 C77.6 25.02, 76.04 54.8, 76.27 80.27 M76.92 -0.66 C76.18 29.63, 75.52 59.15, 77.39 82.2 M76.26 83.29 C54.41 81.61, 30.02 79.69, -0.89 81.46 M77.66 80.89 C49.23 81.52, 19.4 81.39, 0.51 80.75 M0.75 79.45 C-2.1 54.53, -1.86 25.69, -0.34 1.6 M-0.58 80.5 C0.35 59.6, -0.26 36.59, -0.76 0.21" stroke="#000000" stroke-width="4" fill="none"></path></g><g stroke-linecap="round" transform="translate(590.7435162592673 178.20813187905617) rotate(0 38.41163688861462 40.671144940886165)"><path d="M1.73 0.16 C18.32 -1.76, 33.8 1.51, 78.08 0.78 M0.06 0.7 C25.17 0.81, 50.99 -0.11, 77.62 -0.18 M75.64 0.91 C77.28 18.01, 77.32 36.66, 75.01 82.64 M77.62 -0.25 C76.47 18.8, 76.47 35.16, 76.69 81.96 M77.24 81.83 C59.45 79.26, 43.79 79.61, 1.03 80.97 M77.8 81.56 C52.62 81.82, 28.44 80.57, 0.22 80.35 M0.56 83.17 C-1.71 57.69, 0.54 31.44, 0.61 0.58 M-0.08 81.71 C-1.3 56.63, -0.49 31.45, -0.94 0.53" stroke="#000000" stroke-width="4" fill="none"></path></g><g stroke-linecap="round" transform="translate(1093.3283601675103 169.2013485700587) rotate(0 38.41163688861468 40.671144940886165)"><path d="M-0.64 -1.95 C20.59 -1.68, 40.99 0.4, 78.31 -1.45 M0.56 -0.85 C28.41 0, 55.19 0.18, 76.7 -0.92 M78.17 -0.52 C76.08 24.64, 77.13 53.59, 78.58 82.51 M76.37 -0.36 C76.99 29.81, 76.9 60.19, 76.91 80.47 M75.4 79.83 C56.45 81.24, 35.59 80.72, 0 81.86 M77.47 81.09 C49.43 81.33, 21.26 81.27, -0.18 81.98 M0.65 81.28 C0.87 63.93, 0.76 45.35, 1.65 0.31 M-0.35 81.88 C0.03 64.18, 1.41 46.13, -0.75 -0.54" stroke="#000000" stroke-width="4" fill="none"></path></g><g stroke-linecap="round"><g transform="translate(581.4009145545018 241.14329506897138) rotate(0 -59.471562358112976 -0.47478846216665715)"><path d="M0 0 C-45.28 -0.36, -90.55 -0.72, -118.94 -0.95 M0 0 C-32.9 -0.26, -65.79 -0.53, -118.94 -0.95" stroke="#000000" stroke-width="4" fill="none"></path></g><g transform="translate(581.4009145545018 241.14329506897138) rotate(0 -59.471562358112976 -0.47478846216665715)"><path d="M-90.67 -10.98 C-101.43 -7.16, -112.19 -3.35, -118.94 -0.95 M-90.67 -10.98 C-98.49 -8.21, -106.31 -5.43, -118.94 -0.95" stroke="#000000" stroke-width="4" fill="none"></path></g><g transform="translate(581.4009145545018 241.14329506897138) rotate(0 -59.471562358112976 -0.47478846216665715)"><path d="M-90.84 9.54 C-101.53 5.54, -112.23 1.55, -118.94 -0.95 M-90.84 9.54 C-98.61 6.64, -106.38 3.74, -118.94 -0.95" stroke="#000000" stroke-width="4" fill="none"></path></g></g><mask></mask><g stroke-linecap="round"><g transform="translate(1092.3283601675098 231.7773676076324) rotate(0 -59.34231041868429 0.21515802291492037)"><path d="M0 0 C-30.93 0.11, -61.85 0.22, -118.68 0.43 M0 0 C-38.34 0.14, -76.69 0.28, -118.68 0.43" stroke="#000000" stroke-width="4" fill="none"></path></g><g transform="translate(1092.3283601675098 231.7773676076324) rotate(0 -59.34231041868429 0.21515802291492037)"><path d="M-90.53 -9.93 C-97.87 -7.23, -105.2 -4.53, -118.68 0.43 M-90.53 -9.93 C-99.63 -6.58, -108.72 -3.24, -118.68 0.43" stroke="#000000" stroke-width="4" fill="none"></path></g><g transform="translate(1092.3283601675098 231.7773676076324) rotate(0 -59.34231041868429 0.21515802291492037)"><path d="M-90.46 10.59 C-97.81 7.94, -105.17 5.29, -118.68 0.43 M-90.46 10.59 C-99.58 7.31, -108.7 4.02, -118.68 0.43" stroke="#000000" stroke-width="4" fill="none"></path></g></g><mask></mask><g stroke-linecap="round" transform="translate(10 388.36137051760124) rotate(0 105 40.5)"><path d="M20.25 0 M20.25 0 C88.59 0.61, 155.76 1.66, 189.75 0 M20.25 0 C77.21 -1.6, 130.85 -1.58, 189.75 0 M189.75 0 C202.67 3.2, 208.96 10.17, 210 20.25 M189.75 0 C202.74 -0.02, 213.07 10.78, 210 20.25 M210 20.25 C212.36 29.04, 209.21 43.55, 210 60.75 M210 20.25 C208.86 34.83, 210.36 51.17, 210 60.75 M210 60.75 C208.2 70.43, 204.65 81.02, 189.75 81 M210 60.75 C211.07 72.86, 207.79 82.8, 189.75 81 M189.75 81 C143.88 84.85, 95.51 81.1, 20.25 81 M189.75 81 C136.35 79.67, 85.93 77.77, 20.25 81 M20.25 81 C5.32 84.16, 3.45 74.31, 0 60.75 M20.25 81 C5.39 82.11, 0.93 72.08, 0 60.75 M0 60.75 C-2.49 48.44, 2.48 31.3, 0 20.25 M0 60.75 C-0.75 50.05, -1.53 37.75, 0 20.25 M0 20.25 C-1.61 6.67, 8.35 -0.19, 20.25 0 M0 20.25 C0.14 6.18, 4.77 -0.95, 20.25 0" stroke="#1e1e1e" stroke-width="1" fill="none"></path></g><g transform="translate(68.56934356689453 395.466404222904) rotate(0 46.43065643310547 33.39496629469721)"><text x="46.43065643310547" y="0" font-family="Virgil, Segoe UI Emoji" font-size="53.43194607151554px" fill="#1e1e1e" text-anchor="middle" style="white-space: pre;" direction="ltr" dominant-baseline="text-before-edge">Null</text></g><g stroke-linecap="round"><g transform="translate(110.77591136968601 272.63767534704084) rotate(0 -1.0077950324950962 52.67409092475873)"><path d="M0 0 C-0.45 23.44, -0.9 46.87, -2.02 105.35 M0 0 C-0.78 40.64, -1.56 81.29, -2.02 105.35" stroke="#000000" stroke-width="4" fill="none"></path></g><g transform="translate(110.77591136968601 272.63767534704084) rotate(0 -1.0077950324950962 52.67409092475873)"><path d="M-11.74 76.97 C-9.57 83.28, -7.41 89.59, -2.02 105.35 M-11.74 76.97 C-7.99 87.92, -4.24 98.87, -2.02 105.35" stroke="#000000" stroke-width="4" fill="none"></path></g><g transform="translate(110.77591136968601 272.63767534704084) rotate(0 -1.0077950324950962 52.67409092475873)"><path d="M8.78 77.36 C6.38 83.59, 3.98 89.81, -2.02 105.35 M8.78 77.36 C4.62 88.16, 0.45 98.96, -2.02 105.35" stroke="#000000" stroke-width="4" fill="none"></path></g></g><mask></mask></svg>